<?xml version="1.0" standalone="no"?>
<!DOCTYPE svg PUBLIC "-//W3C//DTD SVG 1.1//EN" "http://www.w3.org/Graphics/SVG/1.1/DTD/svg11.dtd" >
<svg xmlns="http://www.w3.org/2000/svg" xmlns:xlink="http://www.w3.org/1999/xlink" version="1.1">
<metadata>
Created by FontForge 20161003 at Wed Apr 12 04:23:46 2017
 By www-data
Helvetica (Latin for Swiss) has the objective and functional style which was associated with Swiss typography in the 1950s and 1960s. It is perfect for international correspondence: no ornament, no emotion, just clear presentation of information. Helvetica is still one of the best selling sans-serif fonts.
</metadata>
<defs>
<font id="HelveticaNeue-Bold" horiz-adv-x="611" >
  <font-face 
    font-family="Helvetica Neue"
    font-weight="700"
    font-stretch="normal"
    units-per-em="1000"
    panose-1="2 0 8 3 0 0 0 9 0 4"
    ascent="800"
    descent="-200"
    x-height="517"
    cap-height="714"
    bbox="-1018 -481 1437 1141"
    underline-thickness="50"
    underline-position="-125"
    unicode-range="U+0008-FFA7"
  />
<missing-glyph horiz-adv-x="500" 
d="M391 95v512h-280v-512h280zM17 698h465v-695h-465v695z" />
    <glyph glyph-name="fi" unicode="fi" 
d="M85 422h-85v95h85v40c0 92 57 157 173 157c25 0 51 -3 75 -4v-106c-17 2 -34 3 -52 3c-39 0 -54 -16 -54 -59v-31h98v-95h-98v-422h-142v422zM411 517h142v-517h-142v517zM553 597h-142v117h142v-117z" />
    <glyph glyph-name="fl" unicode="fl" 
d="M85 422h-85v95h85v40c0 92 57 157 173 157c25 0 51 -3 75 -4v-106c-17 2 -34 3 -52 3c-39 0 -54 -16 -54 -59v-31h98v-95h-98v-422h-142v422zM411 714h142v-714h-142v714z" />
    <glyph glyph-name=".notdef" horiz-adv-x="500" 
d="M391 95v512h-280v-512h280zM17 698h465v-695h-465v695z" />
    <glyph glyph-name="NULL" horiz-adv-x="0" 
 />
    <glyph glyph-name="NULL" horiz-adv-x="0" 
 />
    <glyph glyph-name="uni000A" horiz-adv-x="0" 
 />
    <glyph glyph-name="space" unicode="&#xa;" horiz-adv-x="278" 
 />
    <glyph glyph-name="space" unicode=" " horiz-adv-x="278" 
 />
    <glyph glyph-name="controlHT" horiz-adv-x="0" 
 />
    <glyph glyph-name="CR" unicode="&#x9;" horiz-adv-x="278" 
 />
    <glyph glyph-name="controlGS" unicode="&#xd;" horiz-adv-x="278" 
 />
    <glyph glyph-name="controlBS" horiz-adv-x="0" 
 />
    <glyph glyph-name="exclam" unicode="!" horiz-adv-x="278" 
d="M61 154h157v-154h-157v154zM213 522l-39 -308h-71l-38 308v192h148v-192z" />
    <glyph glyph-name="quotedbl" unicode="&#x22;" horiz-adv-x="463" 
d="M85 714h107v-321h-107v321zM271 714h107v-321h-107v321z" />
    <glyph glyph-name="numbersign" unicode="#" horiz-adv-x="556" 
d="M243 412l-18 -124h97l17 124h-96zM116 198h-83v90h95l18 124h-83v90h95l28 198h97l-28 -198h97l27 198h97l-27 -198h74v-90h-87l-17 -124h74v-90h-87l-27 -198h-97l27 198h-96l-28 -198h-97z" />
    <glyph glyph-name="dollar" unicode="$" horiz-adv-x="556" 
d="M141 232c-1 -76 46 -120 107 -132v209c-7 3 -19 6 -32 9c-99 27 -200 66 -200 199c0 137 112 206 232 214v77h59v-77c119 -13 217 -74 225 -213h-142c-1 53 -38 96 -83 96v-177l51 -13c196 -53 199 -165 199 -232c0 -59 -51 -195 -250 -208v-85h-59v85
c-149 11 -235 91 -248 248h141zM307 100c49 5 108 34 108 98c0 52 -29 73 -108 94v-192zM248 614c-45 0 -90 -27 -90 -83c0 -44 26 -65 90 -80v163z" />
    <glyph glyph-name="percent" unicode="%" horiz-adv-x="1000" 
d="M693 182c0 -43 0 -121 64 -121c62 0 66 78 66 120c0 39 -3 120 -62 120c-64 0 -68 -73 -68 -119zM591 183c0 108 53 193 170 193c124 0 164 -88 164 -197s-52 -192 -169 -192c-123 0 -165 86 -165 196zM668 722h85l-412 -743h-87zM177 514c0 -43 0 -115 64 -115
c62 0 66 72 66 114c0 40 -3 126 -62 126c-64 0 -68 -79 -68 -125zM75 516c0 109 53 198 170 198c124 0 164 -92 164 -202c0 -109 -52 -188 -169 -188c-123 0 -165 82 -165 192z" />
    <glyph glyph-name="ampersand" unicode="&#x26;" horiz-adv-x="685" 
d="M464 71c-57 -56 -120 -84 -201 -84c-129 0 -231 77 -231 213c0 102 77 167 160 207c-39 47 -68 89 -68 152c0 99 90 163 186 163c108 0 196 -59 196 -171c0 -84 -55 -139 -127 -178l92 -113c15 27 22 56 26 85h123c-7 -64 -29 -125 -69 -176l145 -169h-174zM267 315
c-51 -21 -100 -60 -100 -118c0 -52 49 -94 102 -94c51 0 87 26 120 63zM382 559c0 37 -30 68 -65 68s-64 -26 -64 -63c0 -45 29 -74 56 -107c40 25 73 50 73 102z" />
    <glyph glyph-name="quotesingle" unicode="'" horiz-adv-x="278" 
d="M86 714h107v-321h-107v321z" />
    <glyph glyph-name="parenleft" unicode="(" horiz-adv-x="296" 
d="M303 731c-76 -141 -109 -296 -109 -453c0 -160 32 -314 108 -459h-118c-84 137 -132 292 -132 449c0 149 45 336 132 463h119z" />
    <glyph glyph-name="parenright" unicode=")" horiz-adv-x="296" 
d="M-6 -181c73 141 108 294 108 451c0 160 -34 316 -107 461h117c84 -137 132 -294 132 -451c0 -150 -43 -335 -132 -461h-118z" />
    <glyph glyph-name="asterisk" unicode="*" horiz-adv-x="407" 
d="M242 589l116 44l27 -77l-118 -39l74 -98l-66 -49l-74 103l-70 -103l-67 49l74 98l-116 39l27 77l113 -44v125h80v-125z" />
    <glyph glyph-name="plus" unicode="+" horiz-adv-x="600" 
d="M354 306h199v-107h-199v-199h-107v199h-199v107h199v199h107v-199z" />
    <glyph glyph-name="comma" unicode="," horiz-adv-x="278" 
d="M61 154h157v-154c0 -92 -71 -152 -156 -165v72c41 8 74 50 71 93h-72v154z" />
    <glyph glyph-name="hyphen" unicode="-" horiz-adv-x="407" 
d="M53 334h301v-122h-301v122z" />
    <glyph glyph-name="period" unicode="." horiz-adv-x="278" 
d="M60 154h157v-154h-157v154z" />
    <glyph glyph-name="slash" unicode="/" horiz-adv-x="371" 
d="M268 731h114l-279 -747h-113z" />
    <glyph glyph-name="zero" unicode="0" horiz-adv-x="556" 
d="M163 353c0 -79 0 -250 114 -250c116 0 116 171 116 250c0 73 0 244 -116 244c-115 0 -114 -171 -114 -244zM21 353c0 273 117 361 256 361c140 0 258 -88 258 -361c0 -280 -118 -366 -258 -366c-139 0 -256 86 -256 366z" />
    <glyph glyph-name="one" unicode="1" horiz-adv-x="556" 
d="M392 0h-142v454h-176v107c99 -3 189 32 205 139h113v-700z" />
    <glyph glyph-name="two" unicode="2" horiz-adv-x="556" 
d="M37 431c-5 160 86 283 254 283c128 0 240 -82 240 -219c0 -210 -224 -231 -327 -373h331v-122h-514c0 163 100 230 221 313c61 43 147 85 147 171c0 68 -44 108 -105 108c-84 0 -111 -86 -111 -161h-136z" />
    <glyph glyph-name="three" unicode="3" horiz-adv-x="556" 
d="M228 417c61 -5 149 7 149 87c0 60 -47 93 -99 93c-72 0 -109 -53 -108 -125h-135c5 144 97 242 242 242c112 0 235 -69 235 -194c0 -68 -33 -124 -98 -143v-2c77 -17 124 -79 124 -159c0 -148 -124 -229 -260 -229c-157 0 -263 92 -260 254h135c3 -76 41 -138 123 -138
c64 0 114 42 114 110c0 106 -93 104 -162 104v100z" />
    <glyph glyph-name="four" unicode="4" horiz-adv-x="556" 
d="M312 522h-3l-181 -243h184v243zM312 162h-296v130l304 408h127v-421h93v-117h-93v-162h-135v162z" />
    <glyph glyph-name="five" unicode="5" horiz-adv-x="556" 
d="M500 583h-289l-28 -159l2 -2c39 39 81 54 137 54c138 0 216 -107 216 -238c0 -145 -120 -254 -260 -251c-136 0 -257 73 -260 221h142c7 -64 51 -105 115 -105c75 0 121 66 121 135c0 73 -45 131 -121 131c-51 0 -79 -17 -107 -56h-128l69 387h391v-117z" />
    <glyph glyph-name="six" unicode="6" horiz-adv-x="556" 
d="M286 363c-76 0 -113 -61 -113 -130c0 -65 41 -130 113 -130c68 0 107 64 107 128c0 66 -34 132 -107 132zM388 520c-9 47 -45 87 -94 87c-101 0 -131 -136 -134 -213l2 -2c39 56 90 78 158 78c60 0 121 -28 161 -72c37 -43 54 -100 54 -156c0 -144 -98 -255 -245 -255
c-212 0 -269 183 -269 361c0 172 76 366 275 366c121 0 211 -70 227 -194h-135z" />
    <glyph glyph-name="seven" unicode="7" horiz-adv-x="556" 
d="M517 578c-147 -128 -226 -391 -229 -578h-152c16 209 102 407 235 568h-332v132h478v-122z" />
    <glyph glyph-name="eight" unicode="8" horiz-adv-x="556" 
d="M172 510c0 -60 50 -92 107 -92c60 0 105 32 105 92c0 36 -17 97 -105 97c-57 0 -107 -34 -107 -97zM43 523c0 126 122 191 236 191c174 0 234 -120 234 -188c0 -69 -34 -124 -102 -147v-2c84 -19 131 -83 131 -171c0 -148 -131 -219 -262 -219c-135 0 -266 66 -266 218
c0 89 48 152 132 172v2c-68 19 -103 75 -103 144zM156 212c0 -72 56 -119 124 -119s120 48 120 118c0 67 -54 112 -120 112c-69 0 -124 -39 -124 -111z" />
    <glyph glyph-name="nine" unicode="9" horiz-adv-x="556" 
d="M270 337c76 0 113 61 113 130c0 65 -41 130 -113 130c-68 0 -107 -64 -107 -128c0 -66 34 -132 107 -132zM168 180c9 -47 45 -87 94 -87c104 0 129 136 134 213l-2 2c-39 -56 -90 -78 -158 -78c-60 0 -121 28 -161 72c-37 43 -54 100 -54 156c0 143 98 256 245 256
c212 0 269 -185 269 -362c0 -173 -76 -365 -275 -365c-121 0 -211 70 -227 193h135z" />
    <glyph glyph-name="colon" unicode=":" horiz-adv-x="278" 
d="M218 354h-157v154h157v-154zM61 154h157v-154h-157v154z" />
    <glyph glyph-name="semicolon" unicode=";" horiz-adv-x="278" 
d="M218 354h-157v154h157v-154zM61 154h157v-154c0 -92 -71 -152 -156 -165v72c41 8 74 50 71 93h-72v154z" />
    <glyph glyph-name="less" unicode="&#x3c;" horiz-adv-x="600" 
d="M554 399l-367 -146l367 -146v-114l-508 201v118l508 202v-115z" />
    <glyph glyph-name="equal" unicode="=" horiz-adv-x="600" 
d="M553 92h-505v107h505v-107zM553 306h-505v107h505v-107z" />
    <glyph glyph-name="greater" unicode="&#x3e;" horiz-adv-x="600" 
d="M46 107l367 146l-367 146v115l508 -202v-118l-508 -201v114z" />
    <glyph glyph-name="question" unicode="?" horiz-adv-x="556" 
d="M193 154h157v-154h-157v154zM32 484c3 143 96 247 243 247c188 0 249 -117 249 -193c0 -191 -166 -165 -182 -286v-38h-135v45c12 173 164 158 160 265c0 61 -32 90 -85 90c-72 0 -103 -59 -103 -130h-147z" />
    <glyph glyph-name="at" unicode="@" horiz-adv-x="800" 
d="M559 287c-4 -13 -8 -30 -8 -43s5 -23 17 -23c57 0 118 76 118 184c0 159 -119 246 -271 246c-172 0 -283 -127 -283 -296c0 -175 123 -292 295 -292c84 0 163 30 215 82h84c-68 -104 -180 -161 -305 -161c-213 0 -385 159 -385 373c0 211 172 374 380 374
c181 0 348 -121 348 -305c0 -205 -171 -290 -235 -290c-43 0 -70 24 -73 57h-2c-24 -40 -65 -58 -108 -58c-85 0 -157 78 -157 171c0 126 86 255 218 255c43 0 94 -18 117 -70l16 54h82zM291 319c0 -53 31 -89 78 -89c72 0 123 82 123 151c0 49 -34 85 -77 85
c-73 0 -124 -80 -124 -147z" />
    <glyph glyph-name="A" unicode="A" horiz-adv-x="685" 
d="M249 276h185l-90 262h-2zM264 714h161l267 -714h-163l-54 159h-267l-56 -159h-158z" />
    <glyph glyph-name="B" unicode="B" horiz-adv-x="704" 
d="M226 425h159c56 0 96 25 96 85c0 67 -52 82 -108 82h-147v-167zM69 714h336c136 0 228 -44 228 -177c0 -72 -33 -118 -97 -149c88 -25 131 -92 131 -181c0 -145 -123 -207 -252 -207h-346v714zM226 122h168c61 0 116 20 116 94c0 73 -45 102 -113 102h-171v-196z" />
    <glyph glyph-name="C" unicode="C" horiz-adv-x="741" 
d="M545 474c-11 71 -79 125 -156 125c-141 0 -194 -120 -194 -245c0 -119 53 -239 194 -239c96 0 150 64 162 160h152c-16 -180 -138 -291 -314 -291c-220 0 -351 162 -351 370c0 212 131 377 351 377c156 0 289 -92 308 -257h-152z" />
    <glyph glyph-name="D" unicode="D" horiz-adv-x="741" 
d="M226 132h140c91 0 178 56 178 214c0 144 -51 236 -206 236h-112v-450zM69 714h308c185 0 324 -117 324 -353c0 -207 -106 -361 -324 -361h-308v714z" />
    <glyph glyph-name="E" unicode="E" horiz-adv-x="648" 
d="M69 714h534v-132h-377v-153h346v-122h-346v-175h385v-132h-542v714z" />
    <glyph glyph-name="F" unicode="F" horiz-adv-x="593" 
d="M69 714h502v-132h-345v-165h299v-122h-299v-295h-157v714z" />
    <glyph glyph-name="G" unicode="G" horiz-adv-x="759" 
d="M585 81c-56 -72 -127 -97 -196 -97c-220 0 -351 162 -351 370c0 212 131 377 351 377c147 0 285 -89 301 -252h-150c-19 80 -75 120 -151 120c-141 0 -194 -120 -194 -245c0 -119 53 -239 194 -239c104 0 161 54 170 154h-158v117h300v-386h-100z" />
    <glyph glyph-name="H" unicode="H" horiz-adv-x="741" 
d="M69 714h157v-274h289v274h157v-714h-157v308h-289v-308h-157v714z" />
    <glyph glyph-name="I" unicode="I" horiz-adv-x="295" 
d="M69 714h157v-714h-157v714z" />
    <glyph glyph-name="J" unicode="J" horiz-adv-x="556" 
d="M487 225c0 -93 -25 -241 -238 -241c-119 0 -235 64 -235 220v62h142v-32c0 -69 17 -119 91 -119c83 0 83 66 83 117v482h157v-489z" />
    <glyph glyph-name="K" unicode="K" horiz-adv-x="722" 
d="M69 714h157v-296l279 296h196l-279 -282l306 -432h-197l-215 321l-90 -91v-230h-157v714z" />
    <glyph glyph-name="L" unicode="L" horiz-adv-x="593" 
d="M69 714h157v-582h348v-132h-505v714z" />
    <glyph glyph-name="M" unicode="M" horiz-adv-x="907" 
d="M69 714h221l167 -491h2l158 491h221v-714h-147v506h-2l-175 -506h-121l-175 501h-2v-501h-147v714z" />
    <glyph glyph-name="N" unicode="N" horiz-adv-x="741" 
d="M69 714h156l298 -479h2v479h147v-714h-157l-297 478h-2v-478h-147v714z" />
    <glyph glyph-name="O" unicode="O" horiz-adv-x="778" 
d="M195 354c0 -119 53 -239 194 -239s194 120 194 239c0 125 -53 245 -194 245s-194 -120 -194 -245zM38 354c0 212 131 377 351 377s351 -165 351 -377c0 -208 -131 -370 -351 -370s-351 162 -351 370z" />
    <glyph glyph-name="P" unicode="P" horiz-adv-x="667" 
d="M226 378h122c72 0 138 16 138 107s-66 107 -138 107h-122v-214zM69 714h322c179 0 247 -113 247 -229s-68 -229 -247 -229h-165v-256h-157v714z" />
    <glyph glyph-name="Q" unicode="Q" horiz-adv-x="778" 
d="M458 264l81 -74c27 36 44 88 44 164c0 125 -53 245 -194 245s-194 -120 -194 -245c0 -119 53 -239 194 -239c23 0 52 -1 63 10l-67 61zM663 -66l-101 91c-47 -27 -105 -41 -173 -41c-220 0 -351 162 -351 370c0 212 131 377 351 377s351 -165 351 -377
c0 -104 -33 -195 -93 -263l89 -81z" />
    <glyph glyph-name="R" unicode="R" horiz-adv-x="722" 
d="M226 391h172c72 0 108 30 108 102c0 69 -36 99 -108 99h-172v-201zM69 714h385c128 0 209 -89 209 -197c0 -84 -33 -147 -113 -179v-2c77 -21 99 -93 104 -167c3 -45 2 -130 30 -169h-157c-17 45 -17 114 -25 171c-11 75 -40 108 -119 108h-157v-279h-157v714z" />
    <glyph glyph-name="S" unicode="S" horiz-adv-x="649" 
d="M176 237c0 -95 74 -132 158 -132c55 0 139 16 139 89c0 77 -108 89 -212 118c-106 26 -213 71 -213 203c0 147 138 216 267 216c149 0 286 -65 286 -230h-152c-5 85 -65 108 -141 108c-50 0 -108 -21 -108 -81c0 -56 35 -63 213 -108c53 -11 212 -48 212 -208
c0 -132 -102 -228 -297 -228c-158 0 -307 76 -304 253h152z" />
    <glyph glyph-name="T" unicode="T" 
d="M227 582h-214v132h585v-132h-214v-582h-157v582z" />
    <glyph glyph-name="U" unicode="U" horiz-adv-x="741" 
d="M675 270c0 -193 -114 -286 -305 -286c-193 0 -304 91 -304 286v444h157v-444c0 -77 20 -155 147 -155c112 0 148 48 148 155v444h157v-444z" />
    <glyph glyph-name="V" unicode="V" horiz-adv-x="630" 
d="M401 0h-177l-231 714h161l159 -502h2l161 502h162z" />
    <glyph glyph-name="W" unicode="W" horiz-adv-x="944" 
d="M749 0h-156l-121 486h-2l-119 -486h-159l-189 714h157l113 -486h2l124 486h147l122 -492h2l117 492h154z" />
    <glyph glyph-name="X" unicode="X" horiz-adv-x="667" 
d="M244 374l-230 340h182l140 -228l145 228h172l-229 -341l249 -373h-187l-156 247l-159 -247h-176z" />
    <glyph glyph-name="Y" unicode="Y" horiz-adv-x="667" 
d="M254 278l-262 436h176l167 -282l166 282h175l-265 -440v-274h-157v278z" />
    <glyph glyph-name="Z" unicode="Z" horiz-adv-x="648" 
d="M23 124l383 458h-353v132h562v-124l-383 -458h393v-132h-602v124z" />
    <glyph glyph-name="bracketleft" unicode="[" horiz-adv-x="333" 
d="M68 731h264v-112h-122v-688h122v-112h-264v912z" />
    <glyph glyph-name="backslash" unicode="\" horiz-adv-x="371" 
d="M382 -16h-114l-278 747h113z" />
    <glyph glyph-name="backslash" unicode="&#x29f5;" horiz-adv-x="371" 
d="M382 -16h-114l-278 747h113z" />
    <glyph glyph-name="bracketright" unicode="]" horiz-adv-x="333" 
d="M265 -181h-264v112h122v688h-122v112h264v-912z" />
    <glyph glyph-name="asciicircum" unicode="^" horiz-adv-x="600" 
d="M233 700h134l172 -385h-117l-122 275l-122 -275h-117z" />
    <glyph glyph-name="underscore" unicode="_" horiz-adv-x="500" 
d="M0 -74h500v-50h-500v50z" />
    <glyph glyph-name="grave" unicode="`" horiz-adv-x="259" 
d="M-47 723h156l96 -142h-99z" />
    <glyph glyph-name="a" unicode="a" horiz-adv-x="574" 
d="M48 358c8 132 127 173 243 173c103 0 227 -23 227 -147v-269c0 -47 5 -94 18 -115h-144c-5 16 -9 33 -10 50c-45 -47 -110 -63 -174 -63c-99 0 -176 47 -176 154c2 235 350 109 344 225c0 60 -42 70 -92 70c-56 0 -89 -22 -94 -78h-142zM376 253
c-24 -21 -73 -22 -118 -30c-44 -8 -84 -23 -84 -76c0 -52 41 -66 87 -66c111 0 115 87 115 119v53z" />
    <glyph glyph-name="b" unicode="b" 
d="M433 258c0 88 -37 166 -121 166s-121 -78 -121 -166c0 -86 37 -165 121 -165s121 79 121 165zM54 714h142v-260h2c35 53 99 77 163 77c103 0 214 -83 214 -272s-111 -272 -214 -272c-76 0 -139 22 -170 79h-2v-66h-135v714z" />
    <glyph glyph-name="c" unicode="c" horiz-adv-x="574" 
d="M406 335c-9 59 -44 89 -105 89c-91 0 -121 -92 -121 -168c0 -75 29 -163 118 -163c68 0 104 41 113 105h137c-19 -137 -112 -211 -249 -211c-156 0 -261 109 -261 264c0 161 96 280 264 280c123 0 235 -64 243 -196h-139z" />
    <glyph glyph-name="d" unicode="d" 
d="M421 260c0 84 -30 164 -122 164c-93 0 -125 -81 -125 -165c0 -81 37 -166 125 -166c93 0 122 82 122 167zM423 66h-2c-33 -56 -89 -79 -157 -79c-156 0 -232 131 -232 276c0 139 77 268 229 268c61 0 121 -26 153 -77h2v260h142v-714h-135v66z" />
    <glyph glyph-name="e" unicode="e" horiz-adv-x="574" 
d="M402 314c-13 72 -44 110 -113 110c-92 0 -115 -70 -118 -110h231zM171 224c4 -92 47 -131 127 -131c57 0 103 35 112 67h125c-40 -124 -125 -173 -242 -173c-163 0 -264 110 -264 271c0 155 107 273 264 273c176 0 262 -148 251 -307h-373z" />
    <glyph glyph-name="f" unicode="f" horiz-adv-x="333" 
d="M85 422h-85v95h85v40c0 92 57 157 173 157c25 0 51 -3 75 -4v-106c-17 2 -34 3 -52 3c-39 0 -54 -16 -54 -59v-31h98v-95h-98v-422h-142v422z" />
    <glyph glyph-name="g" unicode="g" 
d="M295 122c81 0 121 69 121 143c0 84 -29 159 -121 159c-80 0 -115 -70 -115 -147c0 -74 27 -155 115 -155zM551 33c0 -84 -31 -228 -268 -228c-102 0 -220 49 -228 166h141c13 -53 55 -71 106 -71c80 0 115 54 114 127v68h-2c-31 -55 -92 -80 -155 -80
c-156 0 -221 118 -221 260c0 134 78 256 222 256c68 0 119 -23 154 -83h2v69h135v-484z" />
    <glyph glyph-name="h" unicode="h" horiz-adv-x="593" 
d="M54 714h142v-269h3c36 60 98 86 151 86c151 0 189 -85 189 -213v-318h-142v292c0 85 -23 127 -91 127c-77 0 -110 -43 -110 -148v-271h-142v714z" />
    <glyph glyph-name="i" unicode="i" horiz-adv-x="258" 
d="M200 597h-142v117h142v-117zM58 517h142v-517h-142v517z" />
    <glyph glyph-name="j" unicode="j" horiz-adv-x="278" 
d="M209 597h-142v117h142v-117zM-18 -60c7 -3 17 -4 30 -4c29 0 55 7 55 46v535h142v-542c0 -106 -39 -156 -182 -156c-17 0 -32 1 -45 4v117z" />
    <glyph glyph-name="k" unicode="k" horiz-adv-x="574" 
d="M67 714h142v-383l179 186h168l-195 -190l217 -327h-172l-142 231l-55 -53v-178h-142v714z" />
    <glyph glyph-name="l" unicode="l" horiz-adv-x="258" 
d="M58 714h142v-714h-142v714z" />
    <glyph glyph-name="m" unicode="m" horiz-adv-x="906" 
d="M58 517h134v-70h2c37 53 90 84 158 84c65 0 123 -22 151 -86c31 45 84 86 156 86c110 0 189 -51 189 -185v-346h-142v293c0 69 -6 126 -87 126c-80 0 -95 -67 -95 -131v-288h-142v290c0 60 4 129 -86 129c-28 0 -96 -18 -96 -119v-300h-142v517z" />
    <glyph glyph-name="n" unicode="n" horiz-adv-x="593" 
d="M54 517h135v-72h3c36 60 98 86 158 86c151 0 189 -85 189 -213v-318h-142v292c0 85 -23 127 -91 127c-77 0 -110 -43 -110 -148v-271h-142v517z" />
    <glyph glyph-name="o" unicode="o" 
d="M180 258c0 -83 29 -165 125 -165c97 0 126 82 126 165s-29 166 -126 166c-96 0 -125 -83 -125 -166zM38 258c0 165 105 273 267 273c163 0 268 -108 268 -273s-105 -271 -268 -271c-162 0 -267 106 -267 271z" />
    <glyph glyph-name="p" unicode="p" 
d="M315 93c93 0 123 80 123 164c0 83 -33 167 -124 167c-93 0 -123 -83 -123 -167s32 -164 124 -164zM54 517h135v-66h2c35 56 90 80 154 80c162 0 235 -131 235 -278c0 -139 -75 -266 -227 -266c-64 0 -120 26 -155 77h-2v-245h-142v698z" />
    <glyph glyph-name="q" unicode="q" 
d="M174 258c0 -83 30 -165 123 -165c92 0 124 78 124 163c0 80 -32 168 -121 168c-93 0 -126 -82 -126 -166zM558 -181h-142v246h-2c-33 -56 -99 -78 -163 -78c-95 0 -219 67 -219 268c0 142 75 276 232 276c64 0 125 -23 157 -80h2v66h135v-698z" />
    <glyph glyph-name="r" unicode="r" horiz-adv-x="389" 
d="M54 517h135v-96h2c27 65 94 110 165 110c9 0 20 -2 31 -5v-132c-13 3 -34 5 -51 5c-105 0 -140 -74 -140 -166v-233h-142v517z" />
    <glyph glyph-name="s" unicode="s" horiz-adv-x="537" 
d="M164 168c0 -61 54 -87 109 -87c40 0 93 16 93 66c0 43 -60 59 -161 80c-83 19 -164 46 -164 138c0 132 114 166 225 166c112 0 217 -38 228 -165h-135c-4 55 -46 70 -97 70c-32 0 -79 -5 -79 -48c0 -51 81 -58 161 -77c83 -19 164 -49 164 -145
c0 -137 -119 -179 -236 -179c-120 0 -238 43 -243 181h135z" />
    <glyph glyph-name="t" unicode="t" horiz-adv-x="352" 
d="M234 517h104v-95h-104v-256c0 -48 12 -60 60 -60c16 0 31 1 44 4v-110c-24 -4 -55 -5 -83 -5c-88 0 -163 18 -163 122v305h-86v95h86v155h142v-155z" />
    <glyph glyph-name="u" unicode="u" horiz-adv-x="593" 
d="M539 0h-135v72h-3c-36 -60 -98 -85 -158 -85c-151 0 -189 83 -189 212v318h142v-292c0 -85 23 -127 91 -127c77 0 110 43 110 148v271h142v-517z" />
    <glyph glyph-name="v" unicode="v" horiz-adv-x="520" 
d="M340 0h-158l-177 517h149l109 -353h2l109 353h141z" />
    <glyph glyph-name="w" unicode="w" horiz-adv-x="814" 
d="M645 0h-146l-92 347h-2l-88 -347h-147l-164 517h150l95 -351h2l86 351h138l88 -350h2l95 350h146z" />
    <glyph glyph-name="x" unicode="x" horiz-adv-x="537" 
d="M186 272l-170 245h162l91 -135l90 135h157l-170 -242l191 -275h-162l-108 163l-108 -163h-159z" />
    <glyph glyph-name="y" unicode="y" horiz-adv-x="519" 
d="M309 -64c-31 -84 -81 -117 -178 -117c-29 0 -58 2 -87 5v117c27 -3 55 -6 83 -5c37 4 55 33 55 64c0 11 -2 22 -6 32l-181 485h151l117 -354h2l113 354h147z" />
    <glyph glyph-name="z" unicode="z" horiz-adv-x="519" 
d="M22 107l269 303h-249v107h436v-107l-269 -303h288v-107h-475v107z" />
    <glyph glyph-name="braceleft" unicode="{" horiz-adv-x="333" 
d="M333 619h-54c-48 0 -54 -41 -54 -73v-152c0 -98 -70 -115 -99 -118v-3c29 -3 99 -26 99 -110v-160c0 -30 6 -72 54 -72h54v-112h-127c-45 0 -123 44 -123 135v194c0 61 -61 83 -91 83v87c30 0 91 22 91 90v188c0 91 78 135 123 135h127v-112z" />
    <glyph glyph-name="bar" unicode="|" horiz-adv-x="223" 
d="M58 786h107v-999h-107v999z" />
    <glyph glyph-name="braceright" unicode="}" horiz-adv-x="333" 
d="M0 -69h54c48 0 54 42 54 72v160c0 84 70 107 99 110v3c-29 3 -99 20 -99 118v152c0 32 -6 73 -54 73h-54v112h127c45 0 123 -44 123 -135v-188c0 -68 60 -90 92 -90v-87c-32 0 -92 -22 -92 -83v-194c0 -91 -78 -135 -123 -135h-127v112z" />
    <glyph glyph-name="asciitilde" unicode="~" horiz-adv-x="600" 
d="M533 251c-29 -43 -63 -86 -125 -86c-37 0 -69 14 -102 33c-32 19 -68 35 -115 35c-44 0 -68 -37 -84 -72l-40 93c21 43 58 86 125 86c35 0 72 -15 111 -32c37 -16 75 -36 102 -36c41 0 64 37 88 72z" />
    <glyph glyph-name="Adieresis" unicode="&#xc4;" horiz-adv-x="685" 
d="M172 911h135v-117h-135v117zM378 911h135v-117h-135v117zM249 276h185l-90 262h-2zM264 714h161l267 -714h-163l-54 159h-267l-56 -159h-158z" />
    <glyph glyph-name="Aring" horiz-adv-x="685" 
d="M220 853c0 68 54 122 122 122s123 -54 123 -122s-55 -122 -123 -122s-122 54 -122 122zM279 853c0 -39 24 -70 63 -70s64 31 64 70s-25 70 -64 70s-63 -31 -63 -70zM249 276h185l-90 262h-2zM264 714h161l267 -714h-163l-54 159h-267l-56 -159h-158z" />
    <glyph glyph-name="Ccedilla" unicode="&#xc7;" horiz-adv-x="741" 
d="M545 474c-11 71 -79 125 -156 125c-141 0 -194 -120 -194 -245c0 -119 53 -239 194 -239c96 0 150 64 162 160h152c-16 -179 -138 -288 -311 -291l-26 -36h2c8 3 19 5 34 5c45 0 92 -21 92 -70c0 -78 -58 -100 -117 -100c-64 0 -86 8 -124 22l21 48c21 -9 49 -18 84 -18
c24 0 40 10 40 34c0 25 -17 32 -40 32c-15 0 -28 -2 -40 -7l-21 24l48 69c-195 19 -307 176 -307 367c0 212 131 377 351 377c156 0 289 -92 308 -257h-152z" />
    <glyph glyph-name="Eacute" unicode="&#xc9;" horiz-adv-x="648" 
d="M348 778h-99l96 142h157zM69 714h534v-132h-377v-153h346v-122h-346v-175h385v-132h-542v714z" />
    <glyph glyph-name="Ntilde" unicode="&#xd1;" horiz-adv-x="741" 
d="M554 911c-13 -45 -31 -114 -112 -114c-31 0 -57 9 -82 17c-25 9 -47 17 -70 17c-27 0 -35 -17 -42 -42h-61c13 58 38 122 126 122c23 0 43 -9 64 -17c21 -9 43 -18 66 -18c31 0 43 16 42 35h69zM69 714h156l298 -479h2v479h147v-714h-157l-297 478h-2v-478h-147v714z" />
    <glyph glyph-name="Odieresis" unicode="&#xd6;" horiz-adv-x="778" 
d="M219 911h135v-117h-135v117zM425 911h135v-117h-135v117zM195 354c0 -119 53 -239 194 -239s194 120 194 239c0 125 -53 245 -194 245s-194 -120 -194 -245zM38 354c0 212 131 377 351 377s351 -165 351 -377c0 -208 -131 -370 -351 -370s-351 162 -351 370z" />
    <glyph glyph-name="Udieresis" unicode="&#xdc;" horiz-adv-x="741" 
d="M200 911h135v-117h-135v117zM406 911h135v-117h-135v117zM675 270c0 -193 -114 -286 -305 -286c-193 0 -304 91 -304 286v444h157v-444c0 -77 20 -155 147 -155c112 0 148 48 148 155v444h157v-444z" />
    <glyph glyph-name="aacute" unicode="&#xe1;" horiz-adv-x="574" 
d="M311 581h-99l96 142h157zM48 358c8 132 127 173 243 173c103 0 227 -23 227 -147v-269c0 -47 5 -94 18 -115h-144c-5 16 -9 33 -10 50c-45 -47 -110 -63 -174 -63c-99 0 -176 47 -176 154c2 235 350 109 344 225c0 60 -42 70 -92 70c-56 0 -89 -22 -94 -78h-142zM376 253
c-24 -21 -73 -22 -118 -30c-44 -8 -84 -23 -84 -76c0 -52 41 -66 87 -66c111 0 115 87 115 119v53z" />
    <glyph glyph-name="agrave" unicode="&#xe0;" horiz-adv-x="574" 
d="M110 723h157l96 -142h-99zM48 358c8 132 127 173 243 173c103 0 227 -23 227 -147v-269c0 -47 5 -94 18 -115h-144c-5 16 -9 33 -10 50c-45 -47 -110 -63 -174 -63c-99 0 -176 47 -176 154c2 235 350 109 344 225c0 60 -42 70 -92 70c-56 0 -89 -22 -94 -78h-142z
M376 253c-24 -21 -73 -22 -118 -30c-44 -8 -84 -23 -84 -76c0 -52 41 -66 87 -66c111 0 115 87 115 119v53z" />
    <glyph glyph-name="acircumflex" unicode="&#xe2;" horiz-adv-x="574" 
d="M223 723h130l110 -142h-117l-62 81l-64 -81h-108zM48 358c8 132 127 173 243 173c103 0 227 -23 227 -147v-269c0 -47 5 -94 18 -115h-144c-5 16 -9 33 -10 50c-45 -47 -110 -63 -174 -63c-99 0 -176 47 -176 154c2 235 350 109 344 225c0 60 -42 70 -92 70
c-56 0 -89 -22 -94 -78h-142zM376 253c-24 -21 -73 -22 -118 -30c-44 -8 -84 -23 -84 -76c0 -52 41 -66 87 -66c111 0 115 87 115 119v53z" />
    <glyph glyph-name="adieresis" unicode="&#xe4;" horiz-adv-x="574" 
d="M117 714h135v-117h-135v117zM323 714h135v-117h-135v117zM48 358c8 132 127 173 243 173c103 0 227 -23 227 -147v-269c0 -47 5 -94 18 -115h-144c-5 16 -9 33 -10 50c-45 -47 -110 -63 -174 -63c-99 0 -176 47 -176 154c2 235 350 109 344 225c0 60 -42 70 -92 70
c-56 0 -89 -22 -94 -78h-142zM376 253c-24 -21 -73 -22 -118 -30c-44 -8 -84 -23 -84 -76c0 -52 41 -66 87 -66c111 0 115 87 115 119v53z" />
    <glyph glyph-name="atilde" unicode="&#xe3;" horiz-adv-x="574" 
d="M471 714c-13 -45 -31 -114 -112 -114c-31 0 -57 9 -82 17c-25 9 -47 17 -70 17c-27 0 -35 -17 -42 -42h-61c13 58 38 122 126 122c23 0 43 -9 64 -17c21 -9 43 -18 66 -18c31 0 43 16 42 35h69zM48 358c8 132 127 173 243 173c103 0 227 -23 227 -147v-269
c0 -47 5 -94 18 -115h-144c-5 16 -9 33 -10 50c-45 -47 -110 -63 -174 -63c-99 0 -176 47 -176 154c2 235 350 109 344 225c0 60 -42 70 -92 70c-56 0 -89 -22 -94 -78h-142zM376 253c-24 -21 -73 -22 -118 -30c-44 -8 -84 -23 -84 -76c0 -52 41 -66 87 -66
c111 0 115 87 115 119v53z" />
    <glyph glyph-name="aring" unicode="&#xe5;" horiz-adv-x="574" 
d="M165 656c0 68 54 122 122 122s123 -54 123 -122s-55 -122 -123 -122s-122 54 -122 122zM224 656c0 -39 24 -70 63 -70s64 31 64 70s-25 70 -64 70s-63 -31 -63 -70zM48 358c8 132 127 173 243 173c103 0 227 -23 227 -147v-269c0 -47 5 -94 18 -115h-144
c-5 16 -9 33 -10 50c-45 -47 -110 -63 -174 -63c-99 0 -176 47 -176 154c2 235 350 109 344 225c0 60 -42 70 -92 70c-56 0 -89 -22 -94 -78h-142zM376 253c-24 -21 -73 -22 -118 -30c-44 -8 -84 -23 -84 -76c0 -52 41 -66 87 -66c111 0 115 87 115 119v53z" />
    <glyph glyph-name="ccedilla" unicode="&#xe7;" horiz-adv-x="574" 
d="M406 335c-9 59 -44 89 -105 89c-91 0 -121 -92 -121 -168c0 -75 29 -163 118 -163c68 0 104 41 113 105h137c-17 -133 -105 -206 -237 -210l-28 -40h2c8 3 19 5 34 5c45 0 92 -21 92 -70c0 -78 -58 -100 -117 -100c-64 0 -86 8 -124 22l21 48c21 -9 49 -18 84 -18
c24 0 40 10 40 34c0 25 -17 32 -40 32c-15 0 -28 -2 -40 -7l-21 24l50 72c-136 13 -226 117 -226 261c0 161 96 280 264 280c123 0 235 -64 243 -196h-139z" />
    <glyph glyph-name="eacute" unicode="&#xe9;" horiz-adv-x="574" 
d="M311 581h-99l96 142h157zM402 314c-13 72 -44 110 -113 110c-92 0 -115 -70 -118 -110h231zM171 224c4 -92 47 -131 127 -131c57 0 103 35 112 67h125c-40 -124 -125 -173 -242 -173c-163 0 -264 110 -264 271c0 155 107 273 264 273c176 0 262 -148 251 -307h-373z" />
    <glyph glyph-name="egrave" unicode="&#xe8;" horiz-adv-x="574" 
d="M110 723h157l96 -142h-99zM402 314c-13 72 -44 110 -113 110c-92 0 -115 -70 -118 -110h231zM171 224c4 -92 47 -131 127 -131c57 0 103 35 112 67h125c-40 -124 -125 -173 -242 -173c-163 0 -264 110 -264 271c0 155 107 273 264 273c176 0 262 -148 251 -307h-373z" />
    <glyph glyph-name="ecircumflex" unicode="&#xea;" horiz-adv-x="574" 
d="M223 723h130l110 -142h-117l-62 81l-64 -81h-108zM402 314c-13 72 -44 110 -113 110c-92 0 -115 -70 -118 -110h231zM171 224c4 -92 47 -131 127 -131c57 0 103 35 112 67h125c-40 -124 -125 -173 -242 -173c-163 0 -264 110 -264 271c0 155 107 273 264 273
c176 0 262 -148 251 -307h-373z" />
    <glyph glyph-name="edieresis" unicode="&#xeb;" horiz-adv-x="574" 
d="M117 714h135v-117h-135v117zM323 714h135v-117h-135v117zM402 314c-13 72 -44 110 -113 110c-92 0 -115 -70 -118 -110h231zM171 224c4 -92 47 -131 127 -131c57 0 103 35 112 67h125c-40 -124 -125 -173 -242 -173c-163 0 -264 110 -264 271c0 155 107 273 264 273
c176 0 262 -148 251 -307h-373z" />
    <glyph glyph-name="iacute" unicode="&#xed;" horiz-adv-x="258" 
d="M153 581h-99l96 142h157zM58 517h142v-517h-142v517z" />
    <glyph glyph-name="igrave" unicode="&#xec;" horiz-adv-x="258" 
d="M-47 723h156l96 -142h-99zM58 517h142v-517h-142v517z" />
    <glyph glyph-name="icircumflex" unicode="&#xee;" horiz-adv-x="258" 
d="M65 723h130l110 -142h-117l-62 81l-64 -81h-107zM58 517h142v-517h-142v517z" />
    <glyph glyph-name="idieresis" unicode="&#xef;" horiz-adv-x="258" 
d="M-40 714h134v-117h-134v117zM165 714h135v-117h-135v117zM58 517h142v-517h-142v517z" />
    <glyph glyph-name="ntilde" unicode="&#xf1;" horiz-adv-x="593" 
d="M480 714c-13 -45 -31 -114 -112 -114c-31 0 -57 9 -82 17c-25 9 -47 17 -70 17c-27 0 -35 -17 -42 -42h-61c13 58 38 122 126 122c23 0 43 -9 64 -17c21 -9 43 -18 66 -18c31 0 43 16 42 35h69zM54 517h135v-72h3c36 60 98 86 158 86c151 0 189 -85 189 -213v-318h-142
v292c0 85 -23 127 -91 127c-77 0 -110 -43 -110 -148v-271h-142v517z" />
    <glyph glyph-name="oacute" unicode="&#xf3;" 
d="M329 581h-99l96 142h157zM180 258c0 -83 29 -165 125 -165c97 0 126 82 126 165s-29 166 -126 166c-96 0 -125 -83 -125 -166zM38 258c0 165 105 273 267 273c163 0 268 -108 268 -273s-105 -271 -268 -271c-162 0 -267 106 -267 271z" />
    <glyph glyph-name="ograve" unicode="&#xf2;" 
d="M128 723h157l96 -142h-99zM180 258c0 -83 29 -165 125 -165c97 0 126 82 126 165s-29 166 -126 166c-96 0 -125 -83 -125 -166zM38 258c0 165 105 273 267 273c163 0 268 -108 268 -273s-105 -271 -268 -271c-162 0 -267 106 -267 271z" />
    <glyph glyph-name="ocircumflex" unicode="&#xf4;" 
d="M241 723h130l110 -142h-117l-62 81l-64 -81h-108zM180 258c0 -83 29 -165 125 -165c97 0 126 82 126 165s-29 166 -126 166c-96 0 -125 -83 -125 -166zM38 258c0 165 105 273 267 273c163 0 268 -108 268 -273s-105 -271 -268 -271c-162 0 -267 106 -267 271z" />
    <glyph glyph-name="odieresis" unicode="&#xf6;" 
d="M135 714h135v-117h-135v117zM341 714h135v-117h-135v117zM180 258c0 -83 29 -165 125 -165c97 0 126 82 126 165s-29 166 -126 166c-96 0 -125 -83 -125 -166zM38 258c0 165 105 273 267 273c163 0 268 -108 268 -273s-105 -271 -268 -271c-162 0 -267 106 -267 271z" />
    <glyph glyph-name="otilde" unicode="&#xf5;" 
d="M489 714c-13 -45 -31 -114 -112 -114c-31 0 -57 9 -82 17c-25 9 -47 17 -70 17c-27 0 -35 -17 -42 -42h-61c13 58 38 122 126 122c23 0 43 -9 64 -17c21 -9 43 -18 66 -18c31 0 43 16 42 35h69zM180 258c0 -83 29 -165 125 -165c97 0 126 82 126 165s-29 166 -126 166
c-96 0 -125 -83 -125 -166zM38 258c0 165 105 273 267 273c163 0 268 -108 268 -273s-105 -271 -268 -271c-162 0 -267 106 -267 271z" />
    <glyph glyph-name="uacute" unicode="&#xfa;" horiz-adv-x="593" 
d="M320 581h-99l96 142h157zM539 0h-135v72h-3c-36 -60 -98 -85 -158 -85c-151 0 -189 83 -189 212v318h142v-292c0 -85 23 -127 91 -127c77 0 110 43 110 148v271h142v-517z" />
    <glyph glyph-name="ugrave" unicode="&#xf9;" horiz-adv-x="593" 
d="M119 723h157l96 -142h-99zM539 0h-135v72h-3c-36 -60 -98 -85 -158 -85c-151 0 -189 83 -189 212v318h142v-292c0 -85 23 -127 91 -127c77 0 110 43 110 148v271h142v-517z" />
    <glyph glyph-name="ucircumflex" unicode="&#xfb;" horiz-adv-x="593" 
d="M232 723h130l110 -142h-117l-62 81l-64 -81h-108zM539 0h-135v72h-3c-36 -60 -98 -85 -158 -85c-151 0 -189 83 -189 212v318h142v-292c0 -85 23 -127 91 -127c77 0 110 43 110 148v271h142v-517z" />
    <glyph glyph-name="udieresis" unicode="&#xfc;" horiz-adv-x="593" 
d="M126 714h135v-117h-135v117zM332 714h135v-117h-135v117zM539 0h-135v72h-3c-36 -60 -98 -85 -158 -85c-151 0 -189 83 -189 212v318h142v-292c0 -85 23 -127 91 -127c77 0 110 43 110 148v271h142v-517z" />
    <glyph glyph-name="dagger" unicode="&#x2020;" horiz-adv-x="556" 
d="M210 400h-186v117h186v197h135v-197h187v-117h-187v-565h-135v565z" />
    <glyph glyph-name="degree" unicode="&#xb0;" horiz-adv-x="400" 
d="M117 566c0 -48 40 -88 83 -88s83 40 83 88s-40 88 -83 88s-83 -40 -83 -88zM52 566c0 83 65 148 148 148s148 -65 148 -148s-65 -148 -148 -148s-148 65 -148 148z" />
    <glyph glyph-name="cent" unicode="&#xa2;" horiz-adv-x="556" 
d="M260 -13c-144 8 -239 122 -239 263c0 152 84 268 239 281v85h59v-85c110 0 219 -77 224 -197h-139c-4 48 -40 86 -85 90v-331c48 8 87 59 87 110h139c-11 -129 -103 -205 -226 -216v-101h-59v101zM260 423c-72 -19 -97 -90 -97 -159c0 -72 23 -147 97 -171v330z" />
    <glyph glyph-name="sterling" unicode="&#xa3;" horiz-adv-x="556" 
d="M26 76c56 35 113 94 113 166c0 23 -8 44 -19 67h-99v85h64c-20 25 -45 78 -45 138c0 107 88 199 256 199c153 0 243 -87 243 -250h-135c-3 39 -8 133 -109 133c-60 0 -98 -36 -98 -92c0 -31 1 -56 41 -128h133v-85h-105c7 -20 8 -39 8 -62c0 -63 -38 -105 -82 -140l2 -2
c32 20 49 23 68 23c27 0 52 -6 79 -11c27 -7 51 -12 78 -12s52 4 88 43l60 -101c-48 -47 -105 -63 -156 -63s-81 8 -109 17c-29 11 -55 20 -99 20c-36 0 -76 -8 -115 -37z" />
    <glyph glyph-name="section" unicode="&#xa7;" horiz-adv-x="556" 
d="M370 538c0 49 -32 86 -85 86c-36 0 -76 -24 -76 -64c4 -111 337 -122 337 -310c0 -68 -40 -123 -104 -146c39 -29 55 -70 55 -117c0 -112 -112 -168 -213 -168c-128 0 -225 60 -225 193h124c3 -57 38 -86 98 -86c41 0 74 22 74 66c5 115 -344 122 -345 319
c0 72 39 122 107 146c-28 31 -43 58 -43 101c0 113 108 173 209 173c117 0 211 -69 211 -193h-124zM212 380c-8 4 -16 11 -27 10c-29 -3 -51 -38 -51 -67c0 -19 9 -37 32 -49l180 -98c7 -3 18 -7 30 -7c27 0 46 34 46 55c0 31 -21 50 -45 63z" />
    <glyph glyph-name="bullet" horiz-adv-x="501" 
d="M72 357c0 99 79 178 178 178s179 -79 179 -178s-80 -179 -179 -179s-178 80 -178 179z" />
    <glyph glyph-name="paragraph" unicode="&#xb6;" horiz-adv-x="620" 
d="M221 357c-141 0 -219 67 -219 175c0 139 101 182 240 182h293v-879h-102v799h-110v-799h-102v522z" />
    <glyph glyph-name="germandbls" unicode="&#xdf;" 
d="M56 491c0 111 35 240 235 240c120 0 227 -60 227 -192c0 -64 -37 -122 -93 -139v-2c87 -18 130 -93 130 -179c0 -125 -90 -232 -217 -232c-27 0 -55 2 -82 6v115c13 -4 26 -5 41 -5c68 0 116 54 116 121c0 72 -38 122 -122 122c-11 0 -23 -1 -35 -2v94c8 -1 15 -2 22 -2
c53 0 105 27 105 89c0 84 -67 89 -96 89c-57 0 -89 -38 -89 -98v-516h-142v491z" />
    <glyph glyph-name="registered" unicode="&#xae;" horiz-adv-x="800" 
d="M334 393h74c48 0 82 7 82 58c0 44 -48 52 -86 52h-70v-110zM251 568h158c105 0 164 -33 164 -124c0 -77 -49 -107 -110 -112l112 -183h-87l-102 179h-52v-179h-83v419zM118 358c0 -171 125 -295 282 -295c155 0 282 124 282 295c0 170 -127 293 -282 293
c-157 0 -282 -123 -282 -293zM16 358c0 227 181 373 384 373s384 -146 384 -373c0 -229 -181 -374 -384 -374s-384 145 -384 374z" />
    <glyph glyph-name="copyright" unicode="&#xa9;" horiz-adv-x="800" 
d="M596 295c-16 -100 -93 -158 -182 -158c-130 0 -215 97 -215 222c0 128 80 224 213 224c92 0 168 -54 181 -155h-78c-11 47 -51 75 -103 75c-76 0 -117 -58 -117 -142c0 -78 47 -144 119 -144c56 0 94 30 101 78h81zM118 357c0 -171 125 -294 282 -294
c155 0 282 123 282 294s-127 294 -282 294c-157 0 -282 -123 -282 -294zM16 357c0 228 181 374 384 374s384 -146 384 -374s-181 -373 -384 -373s-384 145 -384 373z" />
    <glyph glyph-name="trademark" unicode="&#x2122;" horiz-adv-x="1000" 
d="M398 634h-117v-332h-102v332h-117v80h336v-80zM928 302h-96v292h-2l-106 -292h-69l-106 292h-2v-292h-96v412h136l103 -271l103 271h135v-412z" />
    <glyph glyph-name="acute" unicode="&#xb4;" horiz-adv-x="259" 
d="M153 581h-99l96 142h157z" />
    <glyph glyph-name="dieresis" unicode="&#xa8;" horiz-adv-x="259" 
d="M-40 714h134v-117h-134v117zM165 714h135v-117h-135v117z" />
    <glyph glyph-name="notequal" unicode="&#x2260;" horiz-adv-x="600" 
d="M195 -53l-89 46l50 99h-108v107h163l54 107h-217v107h272l81 158l89 -45l-58 -113h121v-107h-175l-55 -107h230v-107h-284z" />
    <glyph glyph-name="AE" unicode="&#xc6;" horiz-adv-x="981" 
d="M330 714h606v-132h-332v-153h312v-122h-312v-175h340v-132h-492v159h-224l-72 -159h-166zM280 276h172v306h-34z" />
    <glyph glyph-name="Oslash" unicode="&#xd8;" horiz-adv-x="778" 
d="M261 164c31 -31 72 -49 128 -49c141 0 194 120 194 239c0 48 -8 95 -27 136zM519 548c-31 31 -73 51 -130 51c-141 0 -194 -120 -194 -245c0 -47 8 -94 28 -135zM120 105c-56 68 -82 153 -82 249c0 212 131 377 351 377c92 0 168 -28 225 -77l80 89l50 -44l-84 -93
c52 -68 80 -152 80 -252c0 -208 -131 -370 -351 -370c-92 0 -167 28 -223 75l-83 -91l-49 42z" />
    <glyph glyph-name="infinity" unicode="&#x221e;" horiz-adv-x="823" 
d="M220 69c-108 0 -175 81 -175 185c0 103 63 184 171 184c88 0 143 -57 196 -120c51 62 107 120 194 120c107 0 172 -79 172 -182c0 -104 -65 -187 -173 -187c-83 0 -142 54 -193 113c-56 -59 -103 -113 -192 -113zM219 170c52 0 101 44 133 81c-33 36 -85 87 -136 87
c-47 0 -76 -42 -76 -86c0 -48 30 -82 79 -82zM607 170c49 0 77 36 77 83s-31 85 -80 85c-53 0 -99 -51 -132 -87c35 -40 80 -81 135 -81z" />
    <glyph glyph-name="plusminus" unicode="&#xb1;" horiz-adv-x="600" 
d="M48 107h505v-107h-505v107zM354 375h199v-107h-199v-131h-107v131h-199v107h199v131h107v-131z" />
    <glyph glyph-name="lessequal" unicode="&#x2264;" horiz-adv-x="600" 
d="M48 -35v101h505v-101h-505zM553 100l-505 172v103l505 179v-107l-367 -123l367 -117v-107z" />
    <glyph glyph-name="greaterequal" unicode="&#x2265;" horiz-adv-x="600" 
d="M554 -35h-505v101h505v-101zM554 272l-505 -172v107l367 117l-367 123v107l505 -179v-103z" />
    <glyph glyph-name="yen" unicode="&#xa5;" horiz-adv-x="556" 
d="M207 0v138h-157v95h157v46l-14 29h-143v95h95l-153 311h162l132 -311l129 311h162l-155 -311h95v-95h-143l-15 -29v-46h158v-95h-158v-138h-152z" />
    <glyph glyph-name="mu" unicode="&#xb5;" horiz-adv-x="593" 
d="M539 0h-135v72h-3c-37 -59 -98 -85 -130 -85c-40 0 -63 10 -75 23v-191h-142v698h142v-292c0 -85 23 -127 91 -127c77 0 110 43 110 148v271h142v-517z" />
    <glyph glyph-name="partialdiff" unicode="&#x2202;" horiz-adv-x="560" 
d="M259 -13c-135 0 -224 97 -224 230c0 128 89 222 218 222c53 0 97 -18 138 -51v18c0 92 -29 221 -144 221c-51 0 -82 -19 -121 -50l-65 74c56 44 107 70 180 70c208 0 274 -186 274 -362c0 -171 -45 -372 -256 -372zM262 78c93 0 128 111 128 212c-31 37 -70 59 -119 59
c-80 0 -118 -66 -118 -138c0 -68 33 -133 109 -133z" />
    <glyph glyph-name="summation" unicode="&#x2211;" horiz-adv-x="618" 
d="M5 -214v100l299 406l-286 395v99h584v-115h-420l269 -378l-287 -393h449v-114h-608z" />
    <glyph glyph-name="product" unicode="&#x220f;" horiz-adv-x="749" 
d="M69 -214v1000h611v-1000h-135v883h-341v-883h-135z" />
    <glyph glyph-name="pi" unicode="&#x3c0;" horiz-adv-x="666" 
d="M532 -7c-88 0 -113 57 -113 130v287h-184v-410h-135v410h-70v107h603v-107h-79v-242c0 -29 1 -59 38 -59c14 0 29 3 44 10v-106c-28 -13 -73 -20 -104 -20z" />
    <glyph glyph-name="integral" unicode="&#x222b;" horiz-adv-x="417" 
d="M117 -213c-48 0 -117 26 -117 82c0 32 25 54 57 54c64 0 46 -80 74 -80c17 0 19 20 19 33c0 43 -5 84 -5 127v521c0 116 3 261 160 261c45 0 112 -23 112 -78c0 -32 -23 -59 -56 -59c-64 0 -48 79 -76 79c-16 0 -18 -18 -18 -30c0 -51 4 -100 4 -151v-479
c0 -118 3 -280 -154 -280z" />
    <glyph glyph-name="ordfeminine" unicode="&#xaa;" horiz-adv-x="344" 
d="M20 605c13 87 81 109 156 109c70 0 150 -14 150 -89v-166c0 -35 4 -60 12 -75h-101c-3 11 -6 20 -7 31c-29 -31 -72 -40 -108 -40c-63 0 -112 29 -112 100c0 75 58 89 114 97c60 8 107 5 107 38c0 35 -27 39 -60 39c-23 0 -46 -13 -49 -44h-102zM230 535
c-15 -13 -47 -14 -67 -18c-28 -7 -51 -15 -51 -40c0 -29 26 -37 45 -37c67 0 73 44 73 75v20z" />
    <glyph glyph-name="ordmasculine" unicode="&#xba;" horiz-adv-x="367" 
d="M119 544c0 -44 19 -94 64 -94c46 0 65 50 65 94c0 45 -19 95 -65 95c-45 0 -64 -50 -64 -95zM12 544c0 105 67 170 171 170s172 -65 172 -170s-68 -169 -172 -169s-171 64 -171 169z" />
    <glyph glyph-name="Omegagreek" unicode="&#x3a9;" horiz-adv-x="773" 
d="M57 0v107h180v37c-120 35 -183 142 -183 263c0 188 152 314 333 314s332 -124 332 -312c0 -120 -61 -233 -184 -265v-37h181v-107h-281v200c100 23 149 98 149 198c0 115 -77 209 -196 209c-120 0 -199 -97 -199 -212c0 -100 48 -172 148 -195v-200h-280z" />
    <glyph glyph-name="ae" unicode="&#xe6;" horiz-adv-x="907" 
d="M736 314c0 64 -39 122 -111 122s-116 -58 -116 -122h227zM509 224c-3 -68 44 -143 123 -143c64 0 94 30 103 81h138c-29 -112 -126 -175 -238 -175c-75 0 -149 24 -193 87c-48 -64 -133 -87 -211 -87c-98 0 -193 37 -193 153c0 118 88 145 173 158c121 19 174 19 174 72
c0 54 -47 66 -92 66c-56 0 -96 -20 -99 -80h-142c5 131 123 175 244 175c60 0 134 -17 171 -70c40 47 89 70 173 70c172 0 238 -147 238 -307h-369zM385 252c-52 -44 -205 -5 -205 -104c0 -52 44 -67 88 -67c52 0 117 31 117 107v64z" />
    <glyph glyph-name="oslash" unicode="&#xf8;" 
d="M104 69c-44 48 -66 111 -66 189c0 165 105 273 267 273c64 0 118 -16 163 -48l53 61l37 -32l-54 -61c44 -47 69 -113 69 -193c0 -165 -105 -271 -268 -271c-65 0 -120 16 -165 49l-59 -66l-37 31zM220 127c19 -21 46 -34 85 -34c97 0 126 82 126 165c0 32 -5 64 -16 91z
M388 392c-20 21 -48 32 -83 32c-96 0 -125 -83 -125 -166c0 -31 4 -61 15 -86z" />
    <glyph glyph-name="questiondown" unicode="&#xbf;" horiz-adv-x="556" 
d="M363 377h-157v154h157v-154zM522 51c-3 -141 -97 -246 -241 -246c-188 0 -249 117 -249 193c0 189 166 164 182 285v38h135v-45c-12 -173 -164 -158 -160 -265c0 -60 32 -89 85 -89c69 0 101 60 101 129h147z" />
    <glyph glyph-name="exclamdown" unicode="&#xa1;" horiz-adv-x="278" 
d="M65 9l39 308h71l38 -308v-191h-148v191zM218 377h-157v154h157v-154z" />
    <glyph glyph-name="logicalnot" unicode="&#xac;" horiz-adv-x="600" 
d="M552 99h-107v200h-397v107h504v-307z" />
    <glyph glyph-name="radical" unicode="&#x221a;" horiz-adv-x="565" 
d="M242 -214l-150 310l-52 -25l-45 97l160 73l123 -264l165 809h127l-214 -1000h-114z" />
    <glyph glyph-name="florin" unicode="&#x192;" horiz-adv-x="556" 
d="M14 -59c13 -2 27 -3 40 -3c51 -1 64 25 72 70l63 329h-92l18 95h91l24 127c24 126 75 172 206 172c29 0 54 -2 75 -7l-18 -107c-15 7 -27 7 -40 7c-52 0 -68 -19 -76 -62l-25 -130h98l-16 -95h-100l-56 -310c-24 -132 -61 -196 -209 -196c-25 0 -46 0 -73 3z" />
    <glyph glyph-name="approxequal" unicode="&#x2248;" horiz-adv-x="600" 
d="M103 65h-71c8 83 49 173 146 173c82 0 177 -66 257 -66c37 0 55 33 62 66h71c-8 -87 -48 -173 -148 -173c-79 0 -197 69 -253 69c-37 0 -57 -37 -64 -69zM103 272h-71c8 83 49 173 146 173c82 0 177 -66 257 -66c37 0 55 33 62 66h71c-8 -87 -48 -173 -148 -173
c-79 0 -197 69 -253 69c-37 0 -57 -37 -64 -69z" />
    <glyph glyph-name="increment" unicode="&#x2206;" horiz-adv-x="686" 
d="M-6 0l270 714h161l267 -714h-698zM182 117h317l-155 436h-2z" />
    <glyph glyph-name="guillemotleft" unicode="&#xab;" horiz-adv-x="444" 
d="M42 205v135l157 123v-120l-90 -71l90 -72v-120zM245 205v135l157 123v-120l-90 -71l90 -72v-120z" />
    <glyph glyph-name="guillemotright" unicode="&#xbb;" horiz-adv-x="444" 
d="M199 340v-135l-157 -125v120l90 72l-90 71v120zM402 340v-135l-157 -125v120l90 72l-90 71v120z" />
    <glyph glyph-name="ellipsis" unicode="&#x2026;" horiz-adv-x="1000" 
d="M754 154h157v-154h-157v154zM421 154h157v-154h-157v154zM88 154h157v-154h-157v154z" />
    <glyph glyph-name="nbspace" unicode="&#xa0;" horiz-adv-x="278" 
 />
    <glyph glyph-name="Agrave" unicode="&#xc0;" horiz-adv-x="685" 
d="M165 920h157l96 -142h-99zM249 276h185l-90 262h-2zM264 714h161l267 -714h-163l-54 159h-267l-56 -159h-158z" />
    <glyph glyph-name="Atilde" unicode="&#xc3;" horiz-adv-x="685" 
d="M526 911c-13 -45 -31 -114 -112 -114c-31 0 -57 9 -82 17c-25 9 -47 17 -70 17c-27 0 -35 -17 -42 -42h-61c13 58 38 122 126 122c23 0 43 -9 64 -17c21 -9 43 -18 66 -18c31 0 43 16 42 35h69zM249 276h185l-90 262h-2zM264 714h161l267 -714h-163l-54 159h-267
l-56 -159h-158z" />
    <glyph glyph-name="Otilde" unicode="&#xd5;" horiz-adv-x="778" 
d="M573 911c-13 -45 -31 -114 -112 -114c-31 0 -57 9 -82 17c-25 9 -47 17 -70 17c-27 0 -35 -17 -42 -42h-61c13 58 38 122 126 122c23 0 43 -9 64 -17c21 -9 43 -18 66 -18c31 0 43 16 42 35h69zM195 354c0 -119 53 -239 194 -239s194 120 194 239c0 125 -53 245 -194 245
s-194 -120 -194 -245zM38 354c0 212 131 377 351 377s351 -165 351 -377c0 -208 -131 -370 -351 -370s-351 162 -351 370z" />
    <glyph glyph-name="OE" unicode="&#x152;" horiz-adv-x="1093" 
d="M538 448c0 90 -65 151 -154 151c-139 0 -189 -125 -189 -244c0 -117 52 -240 186 -240c96 0 157 66 157 163v170zM544 54h-2c-43 -47 -108 -70 -172 -70c-212 0 -332 172 -332 369c0 198 123 378 335 378c63 0 129 -17 169 -68h2v51h500v-132h-354v-153h324v-122h-324
v-175h361v-132h-507v54z" />
    <glyph glyph-name="oe" unicode="&#x153;" horiz-adv-x="926" 
d="M528 224c0 -75 40 -131 123 -131c52 0 85 24 104 71h138c-33 -113 -125 -177 -242 -177c-72 0 -147 23 -187 87c-37 -64 -114 -87 -183 -87c-160 0 -243 126 -243 274c0 152 99 270 254 270c68 0 139 -22 178 -82c34 52 112 82 173 82c183 0 254 -143 254 -307h-369z
M290 93c95 0 114 92 114 167c0 69 -16 164 -111 164c-87 0 -113 -88 -113 -168c0 -71 25 -163 110 -163zM755 314c-3 68 -39 110 -115 110c-72 0 -109 -49 -112 -110h227z" />
    <glyph glyph-name="endash" unicode="&#x2013;" horiz-adv-x="500" 
d="M0 334h500v-122h-500v122z" />
    <glyph glyph-name="emdash" unicode="&#x2014;" horiz-adv-x="1000" 
d="M130 334h740v-122h-740v122z" />
    <glyph glyph-name="quotedblleft" unicode="&#x201c;" horiz-adv-x="463" 
d="M196 393h-142v153c-3 88 59 157 142 168v-66c-51 -17 -66 -52 -66 -101h66v-154zM409 393h-142v153c-3 88 59 157 142 168v-66c-51 -17 -66 -52 -66 -101h66v-154z" />
    <glyph glyph-name="quotedblright" unicode="&#x201d;" horiz-adv-x="463" 
d="M54 714h142v-153c3 -88 -59 -157 -142 -168v66c51 17 66 52 66 101h-66v154zM267 714h142v-153c3 -88 -59 -157 -142 -168v66c51 17 66 52 66 101h-66v154z" />
    <glyph glyph-name="quoteleft" unicode="&#x2018;" horiz-adv-x="278" 
d="M210 393h-142v153c-3 88 59 157 142 168v-66c-51 -17 -66 -52 -66 -101h66v-154z" />
    <glyph glyph-name="quoteright" unicode="&#x2019;" horiz-adv-x="278" 
d="M68 714h142v-153c3 -88 -59 -157 -142 -168v66c51 17 66 52 66 101h-66v154z" />
    <glyph glyph-name="divide" unicode="&#xf7;" horiz-adv-x="600" 
d="M216 45c0 47 40 84 85 84c44 0 84 -37 84 -84c0 -40 -39 -84 -83 -84c-47 0 -86 40 -86 84zM216 460c0 48 40 85 85 85c44 0 84 -37 84 -85c0 -43 -39 -84 -83 -84c-47 0 -86 38 -86 84zM48 306h505v-107h-505v107z" />
    <glyph glyph-name="lozenge" unicode="&#x25ca;" horiz-adv-x="600" 
d="M245 -35l-180 384l180 384h110l181 -384l-181 -384h-110zM300 82l115 267l-115 266l-115 -266z" />
    <glyph glyph-name="ydieresis" unicode="&#xff;" horiz-adv-x="519" 
d="M89 714h135v-117h-135v117zM295 714h135v-117h-135v117zM309 -64c-31 -84 -81 -117 -178 -117c-29 0 -58 2 -87 5v117c27 -3 55 -6 83 -5c37 4 55 33 55 64c0 11 -2 22 -6 32l-181 485h151l117 -354h2l113 354h147z" />
    <glyph glyph-name="Ydieresis" unicode="&#x178;" horiz-adv-x="667" 
d="M163 911h135v-117h-135v117zM369 911h135v-117h-135v117zM254 278l-262 436h176l167 -282l166 282h175l-265 -440v-274h-157v278z" />
    <glyph glyph-name="fraction" unicode="&#x2044;" horiz-adv-x="167" 
d="M248 722h85l-411 -743h-87z" />
    <glyph glyph-name="Euro" unicode="&#x20ac;" horiz-adv-x="556" 
d="M515 547c-47 30 -90 45 -131 45c-70 0 -117 -46 -140 -137h244l-31 -72h-224l-1 -42h213l-31 -72h-174c21 -105 71 -158 148 -158c50 0 101 21 154 63l-1 -151c-45 -26 -96 -39 -154 -39c-84 0 -152 27 -203 81c-47 49 -77 117 -91 204h-77l31 72h40v26c0 9 0 15 1 16
h-73l31 72h51c16 81 49 144 99 191c53 51 119 76 198 76c56 0 117 -17 182 -50z" />
    <glyph glyph-name="guilsinglleft" unicode="&#x2039;" horiz-adv-x="241" 
d="M42 205v135l157 123v-120l-90 -71l90 -72v-120z" />
    <glyph glyph-name="guilsinglright" unicode="&#x203a;" horiz-adv-x="241" 
d="M199 340v-135l-157 -125v120l90 72l-90 71v120z" />
    <glyph glyph-name="daggerdbl" unicode="&#x2021;" horiz-adv-x="556" 
d="M210 27h-186v117h186v256h-186v117h186v197h135v-197h187v-117h-187v-256h187v-117h-187v-192h-135v192z" />
    <glyph glyph-name="middot" unicode="&#xb7;" horiz-adv-x="278" 
d="M55 287c0 48 40 85 85 85c44 0 84 -37 84 -85c0 -43 -39 -84 -83 -84c-47 0 -86 38 -86 84z" />
    <glyph glyph-name="quotesinglbase" unicode="&#x201a;" horiz-adv-x="278" 
d="M68 154h142v-153c3 -85 -59 -156 -142 -167v66c51 17 66 52 66 100h-66v154z" />
    <glyph glyph-name="quotedblbase" unicode="&#x201e;" horiz-adv-x="463" 
d="M54 154h142v-153c3 -85 -59 -156 -142 -167v66c51 17 66 52 66 100h-66v154zM267 154h142v-153c3 -85 -59 -156 -142 -167v66c51 17 66 52 66 100h-66v154z" />
    <glyph glyph-name="perthousand" unicode="&#x2030;" horiz-adv-x="1147" 
d="M440 155c0 94 43 175 147 175c108 0 145 -77 145 -174c0 -99 -43 -169 -146 -169c-93 0 -146 68 -146 168zM564 722h85l-412 -743h-87zM159 556c0 -57 4 -121 56 -121c57 0 56 59 56 107c0 52 -1 107 -54 107c-56 0 -58 -55 -58 -93zM69 539c0 94 43 175 147 175
c108 0 145 -77 145 -174s-43 -170 -146 -170c-93 0 -146 69 -146 169zM876 172c0 -57 4 -121 56 -121c57 0 56 59 56 107c0 52 -1 107 -54 107c-56 0 -58 -55 -58 -93zM786 155c0 94 43 175 147 175c108 0 145 -77 145 -174c0 -99 -43 -169 -146 -169
c-93 0 -146 68 -146 168zM530 172c0 -57 4 -121 56 -121c57 0 56 59 56 107c0 52 -1 107 -54 107c-56 0 -58 -55 -58 -93z" />
    <glyph glyph-name="Acircumflex" unicode="&#xc2;" horiz-adv-x="685" 
d="M278 920h130l110 -142h-117l-62 81l-64 -81h-108zM249 276h185l-90 262h-2zM264 714h161l267 -714h-163l-54 159h-267l-56 -159h-158z" />
    <glyph glyph-name="Ecircumflex" unicode="&#xca;" horiz-adv-x="648" 
d="M260 920h130l110 -142h-117l-62 81l-64 -81h-108zM69 714h534v-132h-377v-153h346v-122h-346v-175h385v-132h-542v714z" />
    <glyph glyph-name="Aacute" unicode="&#xc1;" horiz-adv-x="685" 
d="M366 778h-99l96 142h157zM249 276h185l-90 262h-2zM264 714h161l267 -714h-163l-54 159h-267l-56 -159h-158z" />
    <glyph glyph-name="Edieresis" unicode="&#xcb;" horiz-adv-x="648" 
d="M154 911h135v-117h-135v117zM360 911h135v-117h-135v117zM69 714h534v-132h-377v-153h346v-122h-346v-175h385v-132h-542v714z" />
    <glyph glyph-name="Egrave" unicode="&#xc8;" horiz-adv-x="648" 
d="M147 920h157l96 -142h-99zM69 714h534v-132h-377v-153h346v-122h-346v-175h385v-132h-542v714z" />
    <glyph glyph-name="Iacute" unicode="&#xcd;" horiz-adv-x="295" 
d="M171 778h-99l96 142h157zM69 714h157v-714h-157v714z" />
    <glyph glyph-name="Icircumflex" unicode="&#xce;" horiz-adv-x="295" 
d="M83 920h130l110 -142h-117l-62 81l-64 -81h-107zM69 714h157v-714h-157v714z" />
    <glyph glyph-name="Idieresis" unicode="&#xcf;" horiz-adv-x="295" 
d="M-22 911h134v-117h-134v117zM183 911h135v-117h-135v117zM69 714h157v-714h-157v714z" />
    <glyph glyph-name="Igrave" unicode="&#xcc;" horiz-adv-x="295" 
d="M-29 920h156l96 -142h-99zM69 714h157v-714h-157v714z" />
    <glyph glyph-name="Oacute" unicode="&#xd3;" horiz-adv-x="778" 
d="M413 778h-99l96 142h157zM195 354c0 -119 53 -239 194 -239s194 120 194 239c0 125 -53 245 -194 245s-194 -120 -194 -245zM38 354c0 212 131 377 351 377s351 -165 351 -377c0 -208 -131 -370 -351 -370s-351 162 -351 370z" />
    <glyph glyph-name="Ocircumflex" unicode="&#xd4;" horiz-adv-x="778" 
d="M325 920h130l110 -142h-117l-62 81l-64 -81h-108zM195 354c0 -119 53 -239 194 -239s194 120 194 239c0 125 -53 245 -194 245s-194 -120 -194 -245zM38 354c0 212 131 377 351 377s351 -165 351 -377c0 -208 -131 -370 -351 -370s-351 162 -351 370z" />
    <glyph glyph-name="apple" unicode="&#xf8ff;" horiz-adv-x="790" 
d="M408 588c13 0 37 6 71 17s63 17 87 17c40 0 76 -11 107 -32c17 -13 35 -29 52 -50c-26 -23 -45 -43 -57 -60c-22 -31 -33 -65 -33 -103c0 -41 12 -79 35 -112s49 -54 79 -63c-13 -40 -33 -82 -61 -125c-43 -65 -86 -97 -129 -97c-18 0 -42 5 -71 16c-29 10 -54 15 -75 15
c-22 0 -46 -5 -72 -16c-28 -11 -50 -17 -66 -17c-51 0 -101 43 -150 129c-49 85 -74 169 -74 252c0 76 19 138 56 187c38 48 86 72 143 72c25 0 54 -5 89 -15s58 -15 69 -15zM561 790c0 -43 -20 -95 -61 -138c-19 -18 -38 -30 -55 -36c-13 -3 -30 -6 -51 -8
c1 99 47 176 164 203c3 -9 3 -16 3 -21z" />
    <glyph glyph-name="Ograve" unicode="&#xd2;" horiz-adv-x="778" 
d="M212 920h157l96 -142h-99zM195 354c0 -119 53 -239 194 -239s194 120 194 239c0 125 -53 245 -194 245s-194 -120 -194 -245zM38 354c0 212 131 377 351 377s351 -165 351 -377c0 -208 -131 -370 -351 -370s-351 162 -351 370z" />
    <glyph glyph-name="Uacute" unicode="&#xda;" horiz-adv-x="741" 
d="M394 778h-99l96 142h157zM675 270c0 -193 -114 -286 -305 -286c-193 0 -304 91 -304 286v444h157v-444c0 -77 20 -155 147 -155c112 0 148 48 148 155v444h157v-444z" />
    <glyph glyph-name="Ucircumflex" unicode="&#xdb;" horiz-adv-x="741" 
d="M306 920h130l110 -142h-117l-62 81l-64 -81h-108zM675 270c0 -193 -114 -286 -305 -286c-193 0 -304 91 -304 286v444h157v-444c0 -77 20 -155 147 -155c112 0 148 48 148 155v444h157v-444z" />
    <glyph glyph-name="Ugrave" unicode="&#xd9;" horiz-adv-x="741" 
d="M193 920h157l96 -142h-99zM675 270c0 -193 -114 -286 -305 -286c-193 0 -304 91 -304 286v444h157v-444c0 -77 20 -155 147 -155c112 0 148 48 148 155v444h157v-444z" />
    <glyph glyph-name="dotlessi" unicode="&#x131;" horiz-adv-x="258" 
d="M58 517h142v-517h-142v517z" />
    <glyph glyph-name="circumflex" unicode="&#x2c6;" horiz-adv-x="259" 
d="M65 723h130l110 -142h-117l-62 81l-64 -81h-107z" />
    <glyph glyph-name="tilde" unicode="&#x2dc;" horiz-adv-x="259" 
d="M313 714c-13 -45 -31 -114 -112 -114c-31 0 -57 9 -82 17c-25 9 -47 17 -70 17c-27 0 -35 -17 -42 -42h-60c13 58 38 122 125 122c23 0 43 -9 64 -17c21 -9 43 -18 66 -18c31 0 43 16 42 35h69z" />
    <glyph glyph-name="overscore" unicode="&#xaf;" horiz-adv-x="259" 
d="M-56 691h372v-75h-372v75z" />
    <glyph glyph-name="breve" unicode="&#x2d8;" horiz-adv-x="259" 
d="M26 727c8 -53 59 -71 99 -71c60 0 98 20 110 71h63c-13 -104 -78 -146 -178 -146c-97 0 -150 49 -158 146h64z" />
    <glyph glyph-name="dotaccent" unicode="&#x2d9;" horiz-adv-x="259" 
d="M62 714h135v-117h-135v117z" />
    <glyph glyph-name="ring" unicode="&#x2da;" horiz-adv-x="259" 
d="M7 656c0 68 54 122 122 122s123 -54 123 -122s-55 -122 -123 -122s-122 54 -122 122zM66 656c0 -39 24 -70 63 -70s64 31 64 70s-25 70 -64 70s-63 -31 -63 -70z" />
    <glyph glyph-name="cedilla" unicode="&#xb8;" horiz-adv-x="259" 
d="M33 -147c21 -9 49 -18 84 -18c24 0 40 10 40 34c0 25 -17 32 -40 32c-15 0 -28 -2 -40 -7l-21 24l59 84h49l-39 -54h2c8 3 19 5 34 5c45 0 92 -21 92 -70c0 -78 -58 -100 -117 -100c-64 0 -86 8 -124 22z" />
    <glyph glyph-name="hungarumlaut" unicode="&#x2dd;" horiz-adv-x="259" 
d="M250 581h-99l91 142h157zM43 581h-98l90 142h157z" />
    <glyph glyph-name="ogonek" unicode="&#x2db;" horiz-adv-x="259" 
d="M250 -149c-40 -51 -89 -68 -134 -68c-25 0 -107 5 -107 90c0 18 2 66 114 130h65c-64 -57 -83 -91 -83 -126c0 -20 19 -34 39 -34c21 0 39 5 58 30z" />
    <glyph glyph-name="caron" unicode="&#x2c7;" horiz-adv-x="259" 
d="M195 581h-130l-110 142h111l64 -81l65 81h110z" />
    <glyph glyph-name="Omega" unicode="&#x2126;" horiz-adv-x="773" 
d="M57 0v107h180v37c-120 35 -183 142 -183 263c0 188 152 314 333 314s332 -124 332 -312c0 -120 -61 -233 -184 -265v-37h181v-107h-281v200c100 23 149 98 149 198c0 115 -77 209 -196 209c-120 0 -199 -97 -199 -212c0 -100 48 -172 148 -195v-200h-280z" />
    <glyph glyph-name="currency" unicode="&#xa4;" horiz-adv-x="556" 
d="M280 491c-84 0 -127 -68 -127 -142c0 -73 43 -140 126 -140s122 70 122 142c0 70 -40 140 -121 140zM77 207c-32 37 -48 85 -48 142c0 56 15 111 48 144l-57 58l57 57l57 -56c33 28 90 46 146 46c53 0 106 -18 137 -45l58 57l61 -61l-56 -55c29 -32 45 -87 45 -143
s-15 -109 -46 -146l55 -56l-55 -55l-57 58c-33 -32 -87 -50 -143 -50c-60 0 -112 17 -147 49l-56 -58l-56 56z" />
    <glyph glyph-name="Lslash" unicode="&#x141;" horiz-adv-x="593" 
d="M69 214l-79 -56v112l79 56v388h157v-278l211 148v-112l-211 -148v-192h348v-132h-505v214z" />
    <glyph glyph-name="lslash" unicode="&#x142;" horiz-adv-x="258" 
d="M58 286l-66 -53v102l66 53v326h142v-214l67 53v-102l-67 -53v-398h-142v286z" />
    <glyph glyph-name="threequarters" unicode="&#xbe;" horiz-adv-x="889" 
d="M709 313h-2l-114 -144h116v144zM709 89h-192v93l188 238h100v-251h57v-80h-57v-89h-96v89zM181 534c37 0 95 -1 95 47c0 33 -30 53 -62 53c-43 0 -68 -32 -67 -72h-96c3 93 62 152 162 152c80 0 159 -40 159 -123c0 -40 -22 -75 -66 -86v-2c51 -9 81 -47 81 -94
c0 -96 -80 -145 -173 -145c-108 0 -178 56 -175 160h96c3 -43 26 -80 77 -80c40 0 73 26 73 63c0 57 -60 57 -104 57v70zM653 722h85l-412 -743h-87z" />
    <glyph glyph-name="onequarter" unicode="&#xbc;" horiz-adv-x="892" 
d="M689 313h-2l-114 -144h116v144zM689 89h-192v93l188 238h100v-251h57v-80h-57v-89h-96v89zM236 273h-102v274h-110v75c63 -3 120 19 128 83h84v-432zM566 722h85l-412 -743h-87z" />
    <glyph glyph-name="onesuperior" unicode="&#xb9;" horiz-adv-x="392" 
d="M289 273h-102v274h-110v75c63 -3 120 19 128 83h84v-432z" />
    <glyph glyph-name="multiply" unicode="&#xd7;" horiz-adv-x="600" 
d="M64 93l161 160l-159 160l76 76l159 -160l160 160l76 -76l-161 -160l161 -160l-76 -76l-160 161l-161 -161z" />
    <glyph glyph-name="Thorn" unicode="&#xde;" horiz-adv-x="667" 
d="M226 281h122c72 0 138 16 138 107s-66 107 -138 107h-122v-214zM69 714h157v-97h165c179 0 247 -113 247 -229s-68 -229 -247 -229h-165v-159h-157v714z" />
    <glyph glyph-name="brokenbar" unicode="&#xa6;" horiz-adv-x="223" 
d="M165 411h-107v250h107v-250zM58 161h107v-249h-107v249z" />
    <glyph glyph-name="Eth" unicode="&#xd0;" horiz-adv-x="741" 
d="M226 427h160v-117h-160v-178h140c91 0 178 56 178 214c0 144 -51 236 -206 236h-112v-155zM69 311h-66v116h66v287h308c185 0 324 -117 324 -353c0 -207 -106 -361 -324 -361h-308v311z" />
    <glyph glyph-name="onehalf" unicode="&#xbd;" horiz-adv-x="889" 
d="M509 267c-1 103 58 174 181 174c84 0 156 -46 156 -135c0 -127 -144 -136 -213 -226h209v-80h-334c0 106 63 148 140 196c39 26 96 52 96 103c0 35 -24 62 -61 62c-55 0 -75 -54 -72 -94h-102zM236 273h-102v274h-110v75c63 -3 120 19 128 83h84v-432zM566 722h85
l-412 -743h-87z" />
    <glyph glyph-name="minus" unicode="&#x2212;" horiz-adv-x="600" 
d="M48 306h505v-107h-505v107z" />
    <glyph glyph-name="eth" unicode="&#xf0;" 
d="M240 647c-29 21 -57 37 -84 50l92 69c36 -20 69 -42 99 -66l123 62l52 -59l-114 -57c108 -104 168 -217 165 -373c0 -165 -105 -286 -268 -286c-162 0 -267 107 -267 260c0 124 70 259 230 259c39 0 88 -8 135 -40h2c-24 56 -69 98 -102 127l-112 -56l-58 56zM305 93
c97 0 126 82 126 165c0 75 -35 153 -127 153s-124 -80 -124 -153c0 -83 29 -165 125 -165z" />
    <glyph glyph-name="thorn" unicode="&#xfe;" 
d="M438 257c0 83 -33 167 -124 167c-93 0 -123 -83 -123 -167s32 -164 124 -164c93 0 123 80 123 164zM54 714h142v-263h2c35 56 90 80 147 80c162 0 235 -131 235 -278c0 -139 -75 -266 -227 -266c-64 0 -120 26 -155 77h-2v-245h-142v895z" />
    <glyph glyph-name="twosuperior" unicode="&#xb2;" horiz-adv-x="392" 
d="M28 540c-1 103 58 174 181 174c84 0 156 -46 156 -135c0 -127 -144 -136 -213 -226h209v-80h-334c0 106 63 148 140 196c39 26 96 52 96 103c0 35 -24 62 -61 62c-55 0 -75 -54 -72 -94h-102z" />
    <glyph glyph-name="threesuperior" unicode="&#xb3;" horiz-adv-x="392" 
d="M164 534c37 0 95 -1 95 47c0 33 -30 53 -62 53c-43 0 -68 -32 -67 -72h-96c3 93 62 152 162 152c80 0 159 -40 159 -123c0 -40 -22 -75 -66 -86v-2c51 -9 81 -47 81 -94c0 -96 -80 -145 -173 -145c-108 0 -178 56 -175 160h96c3 -43 26 -80 77 -80c40 0 73 26 73 63
c0 57 -60 57 -104 57v70z" />
    <glyph glyph-name="Scaron" unicode="&#x160;" horiz-adv-x="649" 
d="M390 778h-130l-111 142h112l64 -81l65 81h110zM176 237c0 -95 74 -132 158 -132c55 0 139 16 139 89c0 77 -108 89 -212 118c-106 26 -213 71 -213 203c0 147 138 216 267 216c149 0 286 -65 286 -230h-152c-5 85 -65 108 -141 108c-50 0 -108 -21 -108 -81
c0 -56 35 -63 213 -108c53 -11 212 -48 212 -208c0 -132 -102 -228 -297 -228c-158 0 -307 76 -304 253h152z" />
    <glyph glyph-name="Yacute" unicode="&#xdd;" horiz-adv-x="667" 
d="M357 778h-99l96 142h157zM254 278l-262 436h176l167 -282l166 282h175l-265 -440v-274h-157v278z" />
    <glyph glyph-name="Zcaron" unicode="&#x17d;" horiz-adv-x="648" 
d="M390 778h-130l-111 142h112l64 -81l65 81h110zM23 124l383 458h-353v132h562v-124l-383 -458h393v-132h-602v124z" />
    <glyph glyph-name="scaron" unicode="&#x161;" horiz-adv-x="537" 
d="M334 581h-130l-111 142h112l64 -81l65 81h110zM164 168c0 -61 54 -87 109 -87c40 0 93 16 93 66c0 43 -60 59 -161 80c-83 19 -164 46 -164 138c0 132 114 166 225 166c112 0 217 -38 228 -165h-135c-4 55 -46 70 -97 70c-32 0 -79 -5 -79 -48c0 -51 81 -58 161 -77
c83 -19 164 -49 164 -145c0 -137 -119 -179 -236 -179c-120 0 -238 43 -243 181h135z" />
    <glyph glyph-name="yacute" unicode="&#xfd;" horiz-adv-x="519" 
d="M283 581h-99l96 142h157zM309 -64c-31 -84 -81 -117 -178 -117c-29 0 -58 2 -87 5v117c27 -3 55 -6 83 -5c37 4 55 33 55 64c0 11 -2 22 -6 32l-181 485h151l117 -354h2l113 354h147z" />
    <glyph glyph-name="zcaron" unicode="&#x17e;" horiz-adv-x="519" 
d="M325 581h-130l-111 142h112l64 -81l65 81h110zM22 107l269 303h-249v107h436v-107l-269 -303h288v-107h-475v107z" />
    <glyph glyph-name="gravecmb" unicode="&#x300;" horiz-adv-x="0" 
d="M-303 723h156l96 -142h-99z" />
    <glyph glyph-name="acutecmb" unicode="&#x301;" horiz-adv-x="0" 
d="M-103 581h-99l96 142h157z" />
    <glyph glyph-name="circumflexcmb" unicode="&#x302;" horiz-adv-x="0" 
d="M-191 723h130l110 -142h-117l-62 81l-64 -81h-107z" />
    <glyph glyph-name="tildecmb" unicode="&#x303;" horiz-adv-x="0" 
d="M57 714c-13 -45 -31 -114 -112 -114c-31 0 -57 9 -82 17c-25 9 -47 17 -70 17c-27 0 -35 -17 -42 -42h-60c13 58 38 122 125 122c23 0 43 -9 64 -17c21 -9 43 -18 66 -18c31 0 43 16 42 35h69z" />
    <glyph glyph-name="macroncmb" unicode="&#x304;" horiz-adv-x="0" 
d="M-312 691h372v-75h-372v75z" />
    <glyph glyph-name="brevecmb" unicode="&#x306;" horiz-adv-x="0" 
d="M-230 727c8 -53 59 -71 99 -71c60 0 98 20 110 71h63c-13 -104 -78 -146 -178 -146c-97 0 -150 49 -158 146h64z" />
    <glyph glyph-name="dotaccentcmb" unicode="&#x307;" horiz-adv-x="0" 
d="M-194 714h135v-117h-135v117z" />
    <glyph glyph-name="dieresiscmb" unicode="&#x308;" horiz-adv-x="0" 
d="M-296 714h134v-117h-134v117zM-91 714h135v-117h-135v117z" />
    <glyph glyph-name="ringcmb" unicode="&#x30a;" horiz-adv-x="0" 
d="M-249 656c0 68 54 122 122 122s123 -54 123 -122s-55 -122 -123 -122s-122 54 -122 122zM-190 656c0 -39 24 -70 63 -70s64 31 64 70s-25 70 -64 70s-63 -31 -63 -70z" />
    <glyph glyph-name="hungarumlautcmb" unicode="&#x30b;" horiz-adv-x="0" 
d="M-6 581h-99l91 142h157zM-213 581h-98l90 142h157z" />
    <glyph glyph-name="caroncmb" unicode="&#x30c;" horiz-adv-x="0" 
d="M-61 581h-130l-110 142h111l64 -81l65 81h110z" />
    <glyph glyph-name="cedillacmb" unicode="&#x327;" horiz-adv-x="0" 
d="M-223 -147c21 -9 49 -18 84 -18c24 0 40 10 40 34c0 25 -17 32 -40 32c-15 0 -28 -2 -40 -7l-21 24l59 84h49l-39 -54h2c8 3 19 5 34 5c45 0 92 -21 92 -70c0 -78 -58 -100 -117 -100c-64 0 -86 8 -124 22z" />
    <glyph glyph-name="ogonekcmb" unicode="&#x328;" horiz-adv-x="0" 
d="M-6 -149c-40 -51 -89 -68 -134 -68c-25 0 -107 5 -107 90c0 18 2 66 114 130h65c-64 -57 -83 -91 -83 -126c0 -20 19 -34 39 -34c21 0 39 5 58 30z" />
    <glyph glyph-name="soliduslongoverlaycmb" unicode="&#x338;" horiz-adv-x="0" 
d="M-100 731h114l-279 -747h-113z" />
    <glyph glyph-name="FL295" horiz-adv-x="0" 
 />
    <glyph glyph-name="cyrbreve" horiz-adv-x="259" 
d="M129 579c-92 0 -159 41 -159 144h56c9 -47 47 -66 103 -66s94 19 103 66h56c0 -103 -67 -144 -159 -144z" />
    <glyph glyph-name="cyrBreve" horiz-adv-x="259" 
d="M129 775c-97 0 -163 50 -163 154h56c9 -47 51 -71 107 -71s98 24 107 71h56c0 -104 -66 -154 -163 -154z" />
    <glyph glyph-name="uni018F" unicode="&#x18f;" horiz-adv-x="748" 
d="M376 -16c-229 0 -338 162 -338 370c0 9 1 37 2 46h513c-15 125 -89 201 -190 201c-80 0 -144 -39 -163 -111h-149c19 139 144 241 309 241c219 0 350 -165 350 -373c0 -224 -137 -374 -334 -374zM375 114c88 0 150 55 173 164h-346c13 -93 69 -164 173 -164z" />
    <glyph glyph-name="uni01A2" unicode="&#x1a2;" horiz-adv-x="922" 
d="M696 -181v763h-90v-529c-57 -43 -129 -69 -217 -69c-220 0 -351 162 -351 370c0 212 131 377 351 377c41 0 79 -6 115 -17h349v-895h-157zM389 115c21 0 41 3 60 8v468c-19 5 -39 8 -60 8c-141 0 -194 -120 -194 -245c0 -119 53 -239 194 -239z" />
    <glyph glyph-name="uni01A3" unicode="&#x1a3;" horiz-adv-x="764" 
d="M568 -181v591h-68v-349c-47 -47 -112 -74 -195 -74c-162 0 -267 106 -267 271s105 273 267 273c33 0 65 -5 94 -14h311v-698h-142zM305 93c19 0 36 3 53 10v311c-19 7 -30 10 -53 10c-96 0 -125 -83 -125 -166s29 -165 125 -165z" />
    <glyph glyph-name="uni01B5" unicode="&#x1b5;" horiz-adv-x="648" 
d="M23 0v124l157 183h-89v122h193l132 153h-363v132h562v-124l-138 -161h91v-122h-196l-150 -175h403v-132h-602z" />
    <glyph glyph-name="uni01B6" unicode="&#x1b6;" horiz-adv-x="519" 
d="M22 0v107l105 114h-51v91h135l90 98h-259v107h436v-107l-90 -98h58v-91h-142l-105 -114h298v-107h-475z" />
    <glyph glyph-name="uni0259" unicode="&#x259;" horiz-adv-x="574" 
d="M281 -13c-176 0 -262 148 -251 307h373c-4 92 -47 131 -127 131c-57 0 -103 -35 -112 -67h-125c40 124 125 173 242 173c163 0 264 -110 264 -271c0 -155 -107 -273 -264 -273zM285 94c92 0 115 70 118 110h-231c13 -72 44 -110 113 -110z" />
    <glyph glyph-name="uni0400" unicode="&#x400;" horiz-adv-x="648" 
d="M69 0v714h534v-132h-377v-153h346v-122h-346v-175h385v-132h-542zM148 920h156l96 -142h-99z" />
    <glyph glyph-name="afii10023" unicode="&#x401;" horiz-adv-x="648" 
d="M69 0v714h534v-132h-377v-153h346v-122h-346v-175h385v-132h-542zM174 911h134v-117h-134v117zM379 911h135v-117h-135v117z" />
    <glyph glyph-name="afii10051" unicode="&#x402;" horiz-adv-x="804" 
d="M505 -11c-28 0 -67 4 -88 11v118c12 -6 44 -7 55 -7c75 0 134 28 134 119c0 72 -46 112 -122 112c-77 0 -130 -59 -130 -159v-183h-157v582h-184v132h575v-132h-234v-197c35 47 101 78 168 78c139 0 242 -67 242 -233c0 -179 -120 -241 -259 -241z" />
    <glyph glyph-name="afii10052" unicode="&#x403;" horiz-adv-x="574" 
d="M74 0v714h496v-132h-339v-582h-157zM329 778h-99l96 142h157z" />
    <glyph glyph-name="afii10053" unicode="&#x404;" horiz-adv-x="736" 
d="M382 -16c-208 0 -344 150 -344 374c0 208 131 373 350 373c165 0 287 -102 306 -241h-152c-20 69 -77 110 -157 110c-108 0 -165 -74 -184 -167h258v-123h-263c15 -121 78 -197 187 -197c89 0 143 46 162 139h153c-24 -161 -128 -268 -316 -268z" />
    <glyph glyph-name="afii10054" unicode="&#x405;" horiz-adv-x="649" 
d="M328 -16c-158 0 -307 76 -304 253h152c0 -95 74 -132 158 -132c55 0 139 16 139 89c0 77 -108 89 -212 118c-106 26 -213 70 -213 203c0 147 138 216 267 216c149 0 286 -65 286 -230h-152c-5 85 -65 108 -141 108c-50 0 -108 -21 -108 -81c0 -56 35 -63 213 -108
c53 -11 212 -48 212 -208c0 -132 -102 -228 -297 -228z" />
    <glyph glyph-name="afii10055" unicode="&#x406;" horiz-adv-x="295" 
d="M69 0v714h157v-714h-157z" />
    <glyph glyph-name="afii10056" unicode="&#x407;" horiz-adv-x="295" 
d="M69 0v714h157v-714h-157zM-23 911h134v-117h-134v117zM182 911h135v-117h-135v117z" />
    <glyph glyph-name="afii10057" unicode="&#x408;" horiz-adv-x="556" 
d="M249 -16c-119 0 -235 64 -235 220v62h142v-32c0 -69 17 -119 91 -119c83 0 83 66 83 117v482h157v-489c0 -93 -25 -241 -238 -241z" />
    <glyph glyph-name="afii10058" unicode="&#x409;" horiz-adv-x="1125" 
d="M101 -8c-28 0 -82 4 -103 12v120c10 -5 50 -6 60 -6c20 0 65 6 81 75c19 80 21 238 21 521h514v-258h168c143 0 253 -71 253 -227c0 -157 -106 -229 -261 -229h-316v582h-209c-3 -314 -8 -438 -69 -523c-35 -48 -79 -67 -139 -67zM674 128h148c76 0 121 27 121 103
c0 75 -52 102 -122 102h-147v-205z" />
    <glyph glyph-name="afii10059" unicode="&#x40a;" horiz-adv-x="1123" 
d="M69 0v714h157v-268h289v268h157v-268h168c143 0 253 -71 253 -222c0 -152 -106 -224 -261 -224h-317v314h-289v-314h-157zM672 128h148c76 0 121 26 121 98s-52 97 -122 97h-147v-195z" />
    <glyph glyph-name="afii10060" unicode="&#x40b;" horiz-adv-x="804" 
d="M197 0v582h-184v132h575v-132h-234v-154c35 8 106 20 149 20c160 0 241 -65 241 -249v-199h-156v201c0 87 -31 117 -111 117c-43 0 -100 -13 -123 -16v-302h-157z" />
    <glyph glyph-name="afii10061" unicode="&#x40c;" horiz-adv-x="722" 
d="M69 0v714h157v-296l279 296h196l-279 -282l306 -432h-197l-215 321l-90 -91v-230h-157zM373 778h-99l96 142h157z" />
    <glyph glyph-name="uni040D" unicode="&#x40d;" horiz-adv-x="745" 
d="M69 0v714h156v-495h3l272 495h176v-714h-156v496h-3l-272 -496h-176zM186 920h156l96 -142h-99z" />
    <glyph glyph-name="afii10062" unicode="&#x40e;" horiz-adv-x="647" 
d="M177 -13c-35 0 -68 8 -87 13v127c19 -5 44 -8 75 -8c48 0 72 29 72 61c0 31 -18 65 -33 94l-209 440h173l164 -372l155 372h167l-240 -526c-67 -145 -122 -201 -237 -201zM330 775c-97 0 -163 50 -163 154h56c9 -47 51 -71 107 -71s98 24 107 71h56
c0 -104 -66 -154 -163 -154z" />
    <glyph glyph-name="afii10145" unicode="&#x40f;" horiz-adv-x="732" 
d="M290 -163v163h-221v714h157v-582h280v582h157v-714h-222v-163h-151z" />
    <glyph glyph-name="afii10017" unicode="&#x410;" horiz-adv-x="685" 
d="M-6 0l270 714h161l267 -714h-163l-54 159h-267l-56 -159h-158zM249 276h185l-90 262h-2z" />
    <glyph glyph-name="afii10018" unicode="&#x411;" horiz-adv-x="702" 
d="M69 0v714h530v-129h-373v-135h186c143 0 253 -68 253 -224c0 -157 -106 -226 -261 -226h-335zM226 128h166c76 0 121 24 121 100c0 75 -52 99 -122 99h-165v-199z" />
    <glyph glyph-name="afii10019" unicode="&#x412;" horiz-adv-x="704" 
d="M69 0v714h336c136 0 228 -44 228 -177c0 -72 -33 -118 -97 -149c88 -25 131 -92 131 -181c0 -145 -123 -207 -252 -207h-346zM226 122h168c61 0 116 20 116 94c0 73 -45 102 -113 102h-171v-196zM226 425h159c56 0 96 25 96 85c0 67 -52 82 -108 82h-147v-167z" />
    <glyph glyph-name="afii10020" unicode="&#x413;" horiz-adv-x="574" 
d="M74 0v714h496v-132h-339v-582h-157z" />
    <glyph glyph-name="afii10021" unicode="&#x414;" horiz-adv-x="772" 
d="M8 -163v295h60c83 113 98 259 98 471v111h518v-582h78v-295h-151v163h-452v-163h-151zM237 132h290v453h-211v-13c0 -195 -15 -326 -79 -440z" />
    <glyph glyph-name="afii10022" unicode="&#x415;" horiz-adv-x="648" 
d="M69 0v714h534v-132h-377v-153h346v-122h-346v-175h385v-132h-542z" />
    <glyph glyph-name="afii10024" unicode="&#x416;" horiz-adv-x="1061" 
d="M-6 0l285 423l-259 291h185l250 -294v294h151v-294l250 294h185l-259 -291l285 -423h-194l-190 312l-77 -87v-225h-151v225l-77 87l-191 -312h-193z" />
    <glyph glyph-name="afii10025" unicode="&#x417;" horiz-adv-x="647" 
d="M330 -16c-196 0 -306 95 -309 256h155c3 -97 70 -136 154 -136c73 0 123 51 123 116c0 81 -65 100 -134 100h-54v106c12 -1 33 -1 42 -1c86 0 129 32 129 97c0 56 -43 88 -107 88c-77 0 -125 -39 -132 -108h-148c3 159 132 229 281 229c144 0 253 -80 253 -199
c0 -72 -44 -128 -108 -143c76 -14 135 -76 135 -168c0 -139 -121 -237 -280 -237z" />
    <glyph glyph-name="afii10026" unicode="&#x418;" horiz-adv-x="745" 
d="M69 0v714h156v-495h3l272 495h176v-714h-156v496h-3l-272 -496h-176z" />
    <glyph glyph-name="afii10027" unicode="&#x419;" horiz-adv-x="745" 
d="M69 0v714h156v-495h3l272 495h176v-714h-156v496h-3l-272 -496h-176zM382 775c-97 0 -163 50 -163 154h56c9 -47 51 -71 107 -71s98 24 107 71h56c0 -104 -66 -154 -163 -154z" />
    <glyph glyph-name="afii10028" unicode="&#x41a;" horiz-adv-x="722" 
d="M69 0v714h157v-296l279 296h196l-279 -282l306 -432h-197l-215 321l-90 -91v-230h-157z" />
    <glyph glyph-name="afii10029" unicode="&#x41b;" horiz-adv-x="743" 
d="M101 -8c-28 0 -82 4 -103 12v120c10 -5 50 -6 60 -6c20 0 65 6 81 75c19 80 21 238 21 521h514v-714h-156v582h-209c-3 -314 -8 -438 -69 -523c-35 -48 -79 -67 -139 -67z" />
    <glyph glyph-name="afii10030" unicode="&#x41c;" horiz-adv-x="907" 
d="M69 0v714h221l167 -491h2l158 491h221v-714h-147v506h-2l-175 -506h-121l-175 501h-2v-501h-147z" />
    <glyph glyph-name="afii10031" unicode="&#x41d;" horiz-adv-x="741" 
d="M69 0v714h157v-274h289v274h157v-714h-157v308h-289v-308h-157z" />
    <glyph glyph-name="afii10032" unicode="&#x41e;" horiz-adv-x="778" 
d="M389 -16c-220 0 -351 162 -351 370c0 212 131 377 351 377s351 -165 351 -377c0 -208 -131 -370 -351 -370zM389 115c141 0 194 120 194 239c0 125 -53 245 -194 245s-194 -120 -194 -245c0 -119 53 -239 194 -239z" />
    <glyph glyph-name="afii10033" unicode="&#x41f;" horiz-adv-x="732" 
d="M69 0v714h594v-714h-157v582h-280v-582h-157z" />
    <glyph glyph-name="afii10034" unicode="&#x420;" horiz-adv-x="667" 
d="M69 0v714h322c179 0 247 -113 247 -229s-68 -229 -247 -229h-165v-256h-157zM226 378h122c72 0 138 16 138 107s-66 107 -138 107h-122v-214z" />
    <glyph glyph-name="afii10035" unicode="&#x421;" horiz-adv-x="741" 
d="M389 -16c-220 0 -351 162 -351 370c0 212 131 377 351 377c156 0 289 -92 308 -257h-152c-11 71 -79 125 -156 125c-141 0 -194 -120 -194 -245c0 -119 53 -239 194 -239c96 0 150 64 162 160h152c-16 -180 -138 -291 -314 -291z" />
    <glyph glyph-name="afii10036" unicode="&#x422;" 
d="M227 0v582h-214v132h585v-132h-214v-582h-157z" />
    <glyph glyph-name="afii10037" unicode="&#x423;" horiz-adv-x="647" 
d="M177 -13c-35 0 -68 8 -87 13v127c19 -5 44 -8 75 -8c48 0 72 29 72 61c0 31 -18 65 -33 94l-209 440h173l164 -372l155 372h167l-240 -526c-67 -145 -122 -201 -237 -201z" />
    <glyph glyph-name="afii10038" unicode="&#x424;" horiz-adv-x="863" 
d="M354 -16v78c-193 8 -319 123 -319 302c0 172 122 292 319 297v70h155v-70c197 -5 319 -125 319 -297c0 -179 -126 -294 -319 -302v-78h-155zM354 179v369c-104 -5 -168 -82 -168 -184c0 -93 68 -182 168 -185zM509 548v-369c100 3 169 92 169 185c0 102 -65 179 -169 184
z" />
    <glyph glyph-name="afii10039" unicode="&#x425;" horiz-adv-x="667" 
d="M-5 0l249 374l-230 340h182l140 -228l145 228h172l-229 -341l249 -373h-187l-156 247l-159 -247h-176z" />
    <glyph glyph-name="afii10040" unicode="&#x426;" horiz-adv-x="752" 
d="M591 -163v163h-522v714h157v-582h280v582h157v-582h79v-295h-151z" />
    <glyph glyph-name="afii10041" unicode="&#x427;" horiz-adv-x="680" 
d="M453 0v271c-35 -8 -110 -20 -153 -20c-160 0 -255 65 -255 249v214h156v-216c0 -87 31 -117 111 -117c43 0 118 11 141 16v317h157v-714h-157z" />
    <glyph glyph-name="afii10042" unicode="&#x428;" horiz-adv-x="1081" 
d="M69 0v714h157v-582h236v582h157v-582h236v582h157v-714h-943z" />
    <glyph glyph-name="afii10043" unicode="&#x429;" horiz-adv-x="1101" 
d="M940 -163v163h-871v714h157v-582h236v582h157v-582h236v582h157v-582h79v-295h-151z" />
    <glyph glyph-name="afii10044" unicode="&#x42a;" horiz-adv-x="814" 
d="M206 0v582h-193v132h350v-258h168c143 0 253 -71 253 -227c0 -157 -106 -229 -261 -229h-317zM363 128h148c76 0 121 27 121 103c0 75 -52 102 -122 102h-147v-205z" />
    <glyph glyph-name="afii10045" unicode="&#x42b;" horiz-adv-x="929" 
d="M69 0v714h157v-258h148c143 0 253 -71 253 -227c0 -157 -106 -229 -261 -229h-297zM226 128h128c76 0 121 27 121 103c0 75 -52 102 -122 102h-127v-205zM703 0v714h157v-714h-157z" />
    <glyph glyph-name="afii10046" unicode="&#x42c;" horiz-adv-x="677" 
d="M69 0v714h157v-258h168c143 0 253 -71 253 -227c0 -157 -106 -229 -261 -229h-317zM226 128h148c76 0 121 27 121 103c0 75 -52 102 -122 102h-147v-205z" />
    <glyph glyph-name="afii10047" unicode="&#x42d;" horiz-adv-x="738" 
d="M356 -16c-187 0 -294 107 -318 268h151c19 -92 75 -138 166 -138c107 0 173 75 188 196h-264v123h259c-19 91 -71 168 -185 168c-80 0 -140 -42 -160 -111h-149c19 139 141 241 306 241c219 0 350 -165 350 -373c0 -224 -136 -374 -344 -374z" />
    <glyph glyph-name="afii10048" unicode="&#x42e;" horiz-adv-x="1023" 
d="M663 -16c-181 0 -306 130 -322 329h-115v-313h-157v714h157v-274h119c29 178 147 291 319 291c191 0 321 -151 321 -375c0 -221 -130 -372 -322 -372zM664 115c101 0 163 91 163 244c0 152 -61 240 -165 240c-101 0 -165 -92 -165 -240c0 -153 63 -243 167 -244z" />
    <glyph glyph-name="afii10049" unicode="&#x42f;" horiz-adv-x="725" 
d="M3 0l216 282c-95 24 -158 98 -158 214c0 152 114 218 245 218h350v-714h-156v269h-111l-190 -269h-196zM352 386h148v205h-155c-67 0 -131 -14 -131 -96c0 -88 66 -109 138 -109z" />
    <glyph glyph-name="afii10065" unicode="&#x430;" horiz-adv-x="574" 
d="M208 -13c-99 0 -176 47 -176 154c2 235 350 109 344 225c0 60 -42 70 -92 70c-56 0 -89 -22 -94 -78h-142c8 132 127 173 243 173c103 0 227 -23 227 -147v-269c0 -47 5 -94 18 -115h-144c-5 16 -9 33 -10 50c-45 -47 -110 -63 -174 -63zM261 81c111 0 115 87 115 119v53
c-24 -21 -73 -22 -118 -30c-44 -8 -84 -24 -84 -76s41 -66 87 -66z" />
    <glyph glyph-name="afii10066" unicode="&#x431;" horiz-adv-x="607" 
d="M300 -13c-201 0 -252 164 -252 315c0 182 21 338 210 389c59 16 170 5 173 40h125c-11 -127 -88 -142 -250 -158c-129 -13 -170 -102 -181 -203h3c24 68 87 147 204 147c132 0 237 -106 237 -265c0 -163 -103 -265 -269 -265zM310 93c72 0 117 56 117 160
c0 101 -43 161 -119 161c-72 0 -116 -61 -116 -162c0 -104 45 -159 118 -159z" />
    <glyph glyph-name="afii10067" unicode="&#x432;" horiz-adv-x="581" 
d="M58 0v517h297c91 0 165 -38 165 -130c0 -51 -27 -88 -70 -107c53 -15 94 -54 94 -126c0 -100 -78 -154 -175 -154h-311zM198 92h105c48 0 94 9 94 68c0 60 -49 69 -100 69h-99v-137zM198 309h94c43 0 84 8 84 60c0 51 -40 58 -84 58h-94v-118z" />
    <glyph glyph-name="afii10068" unicode="&#x433;" horiz-adv-x="453" 
d="M59 0v517h390v-107h-248v-410h-142z" />
    <glyph glyph-name="afii10069" unicode="&#x434;" horiz-adv-x="624" 
d="M7 -142v249h62c30 59 65 178 65 319v91h413v-410h67v-249h-133v142h-341v-142h-133zM208 107h197v304h-139v-13c0 -128 -34 -238 -58 -291z" />
    <glyph glyph-name="afii10070" unicode="&#x435;" horiz-adv-x="574" 
d="M293 -13c-163 0 -264 110 -264 271c0 155 107 273 264 273c166 0 252 -132 252 -280c0 -9 0 -18 -1 -27h-373c4 -92 47 -131 127 -131c57 0 103 35 112 67h125c-40 -124 -125 -173 -242 -173zM171 314h231c-13 72 -44 110 -113 110c-92 0 -115 -70 -118 -110z" />
    <glyph glyph-name="afii10072" unicode="&#x436;" horiz-adv-x="812" 
d="M-5 0l198 318l-178 199h157l167 -206v206h134v-206l167 206h157l-181 -202l201 -315h-164l-127 215l-53 -60v-155h-134v155l-53 60l-127 -215h-164z" />
    <glyph glyph-name="afii10073" unicode="&#x437;" horiz-adv-x="542" 
d="M264 -13c-131 0 -239 49 -242 181h135c5 -56 45 -86 110 -86c64 0 92 30 92 69c0 43 -25 72 -89 72h-55v89h37c60 0 98 15 98 67c0 31 -25 58 -81 58c-57 0 -90 -15 -98 -71h-132c11 120 116 165 233 165c137 0 216 -43 216 -139c0 -61 -49 -106 -93 -114v-2
c48 -5 110 -33 110 -123c0 -112 -97 -166 -241 -166z" />
    <glyph glyph-name="afii10074" unicode="&#x438;" horiz-adv-x="600" 
d="M54 0v517h136v-350l195 350h161v-517h-136v350l-195 -350h-161z" />
    <glyph glyph-name="afii10075" unicode="&#x439;" horiz-adv-x="600" 
d="M54 0v517h136v-350l195 350h161v-517h-136v350l-195 -350h-161zM299 579c-92 0 -159 41 -159 144h56c9 -47 47 -66 103 -66s94 19 103 66h56c0 -103 -67 -144 -159 -144z" />
    <glyph glyph-name="afii10076" unicode="&#x43a;" horiz-adv-x="574" 
d="M54 0v517h142v-220l190 220h167l-197 -206l225 -311h-172l-145 215l-68 -72v-143h-142z" />
    <glyph glyph-name="afii10077" unicode="&#x43b;" horiz-adv-x="599" 
d="M85 -8c-21 0 -67 5 -82 10v109c11 -3 30 -5 45 -5c22 0 38 10 49 31c8 16 23 52 23 380h425v-517h-142v410h-146c0 -205 -10 -307 -42 -356c-23 -37 -62 -62 -130 -62z" />
    <glyph glyph-name="afii10078" unicode="&#x43c;" horiz-adv-x="738" 
d="M54 0v517h206l107 -376h4l107 376h206v-517h-134v393h-3l-111 -393h-134l-111 393h-3v-393h-134z" />
    <glyph glyph-name="afii10079" unicode="&#x43d;" horiz-adv-x="593" 
d="M54 0v517h142v-188h201v188h142v-517h-142v217h-201v-217h-142z" />
    <glyph glyph-name="afii10080" unicode="&#x43e;" 
d="M305 -13c-162 0 -267 106 -267 271s105 273 267 273c163 0 268 -108 268 -273s-105 -271 -268 -271zM305 93c97 0 126 82 126 165s-29 166 -126 166c-96 0 -125 -83 -125 -166s29 -165 125 -165z" />
    <glyph glyph-name="afii10081" unicode="&#x43f;" horiz-adv-x="583" 
d="M54 0v517h475v-517h-142v410h-191v-410h-142z" />
    <glyph glyph-name="afii10082" unicode="&#x440;" 
d="M54 -181v698h135v-66h2c35 56 90 80 154 80c162 0 235 -131 235 -278c0 -139 -75 -266 -227 -266c-64 0 -120 26 -155 77h-2v-245h-142zM315 93c93 0 123 80 123 164c0 83 -33 167 -124 167c-93 0 -123 -83 -123 -167s32 -164 124 -164z" />
    <glyph glyph-name="afii10083" unicode="&#x441;" horiz-adv-x="574" 
d="M299 -13c-156 0 -261 109 -261 264c0 161 96 280 264 280c123 0 235 -64 243 -196h-139c-9 59 -44 89 -105 89c-91 0 -121 -92 -121 -168c0 -75 29 -163 118 -163c68 0 104 41 113 105h137c-19 -137 -112 -211 -249 -211z" />
    <glyph glyph-name="afii10084" unicode="&#x442;" horiz-adv-x="502" 
d="M180 0v410h-170v107h482v-107h-170v-410h-142z" />
    <glyph glyph-name="afii10085" unicode="&#x443;" horiz-adv-x="519" 
d="M131 -181c-29 0 -58 2 -87 5v117c23 -3 48 -5 72 -5c43 0 66 27 66 64c0 11 -2 22 -6 32l-181 485h151l117 -354h2l113 354h147l-216 -581c-31 -84 -81 -117 -178 -117z" />
    <glyph glyph-name="afii10086" unicode="&#x444;" horiz-adv-x="856" 
d="M357 -181v216h-3c-20 -25 -64 -48 -107 -48c-155 0 -209 135 -209 279c0 163 79 265 202 265c60 0 99 -25 114 -53h3v236h142v-236h3c15 28 54 53 114 53c123 0 202 -102 202 -265c0 -144 -54 -279 -209 -279c-43 0 -87 23 -107 48h-3v-216h-142zM280 93
c43 0 72 23 77 50v226c-13 41 -50 55 -81 55c-68 0 -96 -61 -96 -161c0 -85 21 -170 100 -170zM576 93c79 0 100 85 100 170c0 100 -28 161 -96 161c-31 0 -68 -14 -81 -55v-226c5 -27 34 -50 77 -50z" />
    <glyph glyph-name="afii10087" unicode="&#x445;" horiz-adv-x="537" 
d="M0 0l186 272l-170 245h162l91 -135l90 135h157l-170 -242l191 -275h-162l-108 163l-108 -163h-159z" />
    <glyph glyph-name="afii10088" unicode="&#x446;" horiz-adv-x="603" 
d="M460 -142v142h-406v517h142v-410h191v410h142v-410h64v-249h-133z" />
    <glyph glyph-name="afii10089" unicode="&#x447;" horiz-adv-x="574" 
d="M378 0v198c-26 -8 -102 -23 -165 -23c-116 0 -173 70 -173 182v160h141v-131c0 -75 16 -101 79 -101c36 0 94 10 118 15v217h142v-517h-142z" />
    <glyph glyph-name="afii10090" unicode="&#x448;" horiz-adv-x="839" 
d="M54 0v517h141v-410h154v410h141v-410h154v410h141v-517h-731z" />
    <glyph glyph-name="afii10091" unicode="&#x449;" horiz-adv-x="854" 
d="M711 -142v142h-657v517h141v-410h151v410h141v-410h151v410h141v-410h65v-249h-133z" />
    <glyph glyph-name="afii10092" unicode="&#x44a;" horiz-adv-x="646" 
d="M152 0v410h-142v107h284v-178h137c104 0 189 -57 189 -169c0 -115 -83 -170 -195 -170h-273zM294 98h97c52 0 86 21 86 72s-38 73 -87 73h-96v-145z" />
    <glyph glyph-name="afii10093" unicode="&#x44b;" horiz-adv-x="778" 
d="M54 0v517h142v-178h137c104 0 189 -57 189 -169c0 -115 -83 -170 -195 -170h-273zM196 98h97c52 0 86 21 86 72s-38 73 -87 73h-96v-145zM583 0v517h141v-517h-141z" />
    <glyph glyph-name="afii10094" unicode="&#x44c;" horiz-adv-x="548" 
d="M54 0v517h142v-178h137c104 0 189 -57 189 -169c0 -115 -83 -170 -195 -170h-273zM196 98h97c52 0 86 21 86 72s-38 73 -87 73h-96v-145z" />
    <glyph glyph-name="afii10095" unicode="&#x44d;" horiz-adv-x="576" 
d="M275 -13c-131 0 -224 64 -243 191h135c15 -56 52 -89 108 -89c73 0 112 52 121 133h-171v90h168c-13 72 -57 116 -121 116c-51 0 -91 -27 -104 -80h-136c17 113 108 183 241 183c160 0 265 -110 265 -277c0 -161 -103 -267 -263 -267z" />
    <glyph glyph-name="afii10096" unicode="&#x44e;" horiz-adv-x="835" 
d="M546 -13c-148 0 -237 88 -250 233h-100v-220h-142v517h142v-197h103c21 129 109 211 249 211c154 0 249 -109 249 -273c0 -165 -95 -271 -251 -271zM546 93c72 0 109 58 109 166c0 104 -39 165 -111 165c-69 0 -108 -62 -108 -166c0 -108 38 -165 110 -165z" />
    <glyph glyph-name="afii10097" unicode="&#x44f;" horiz-adv-x="578" 
d="M0 0l164 194c-73 12 -124 76 -124 161c0 91 71 162 171 162h313v-517h-142v182h-67l-141 -182h-174zM382 284v130h-113c-65 0 -85 -25 -85 -64c0 -40 18 -66 85 -66h113z" />
    <glyph glyph-name="uni0450" unicode="&#x450;" horiz-adv-x="574" 
d="M293 -13c-163 0 -264 110 -264 271c0 155 107 273 264 273c166 0 252 -132 252 -280c0 -9 0 -18 -1 -27h-373c4 -92 47 -131 127 -131c57 0 103 35 112 67h125c-40 -124 -125 -173 -242 -173zM171 314h231c-13 72 -44 110 -113 110c-92 0 -115 -70 -118 -110zM111 723
h156l96 -142h-99z" />
    <glyph glyph-name="afii10071" unicode="&#x451;" horiz-adv-x="574" 
d="M293 -13c-163 0 -264 110 -264 271c0 155 107 273 264 273c166 0 252 -132 252 -280c0 -9 0 -18 -1 -27h-373c4 -92 47 -131 127 -131c57 0 103 35 112 67h125c-40 -124 -125 -173 -242 -173zM171 314h231c-13 72 -44 110 -113 110c-92 0 -115 -70 -118 -110zM122 714
h134v-117h-134v117zM327 714h135v-117h-135v117z" />
    <glyph glyph-name="afii10099" unicode="&#x452;" horiz-adv-x="613" 
d="M324 -181c-18 0 -37 1 -57 3v114c11 -1 29 -2 42 -2c70 0 108 26 108 131v185c0 85 -23 127 -91 127c-77 0 -110 -43 -110 -148v-229h-142v535h-82v96h82v83h142v-83h208v-96h-208v-132h3c36 60 98 86 151 86c151 0 189 -85 189 -213v-220c0 -149 -71 -237 -235 -237z
" />
    <glyph glyph-name="afii10100" unicode="&#x453;" horiz-adv-x="453" 
d="M59 0v517h390v-107h-248v-410h-142zM254 581h-99l96 142h157z" />
    <glyph glyph-name="afii10101" unicode="&#x454;" horiz-adv-x="576" 
d="M301 -13c-160 0 -263 106 -263 267c0 167 105 277 265 277c133 0 224 -70 241 -183h-136c-13 53 -53 80 -104 80c-64 0 -108 -44 -121 -116h168v-90h-171c9 -81 48 -133 121 -133c56 0 93 33 108 89h135c-19 -127 -112 -191 -243 -191z" />
    <glyph glyph-name="afii10102" unicode="&#x455;" horiz-adv-x="537" 
d="M272 -13c-120 0 -238 43 -243 181h135c0 -61 54 -87 109 -87c40 0 93 16 93 66c0 43 -60 59 -161 80c-83 19 -164 46 -164 138c0 132 114 166 225 166c112 0 217 -38 228 -165h-135c-4 55 -46 70 -97 70c-32 0 -79 -5 -79 -48c0 -51 81 -58 161 -77
c83 -19 164 -49 164 -145c0 -137 -119 -179 -236 -179z" />
    <glyph glyph-name="afii10103" unicode="&#x456;" horiz-adv-x="258" 
d="M58 0v517h142v-517h-142zM58 597v117h142v-117h-142z" />
    <glyph glyph-name="afii10104" unicode="&#x457;" horiz-adv-x="258" 
d="M-41 714h134v-117h-134v117zM164 714h135v-117h-135v117zM58 517h142v-517h-142v517z" />
    <glyph glyph-name="afii10105" unicode="&#x458;" horiz-adv-x="278" 
d="M27 -181c-19 0 -34 1 -45 4v117c6 -3 16 -4 30 -4c29 0 55 7 55 46v535h142v-542c0 -106 -39 -156 -182 -156zM67 597v117h142v-117h-142z" />
    <glyph glyph-name="afii10106" unicode="&#x459;" horiz-adv-x="897" 
d="M85 -8c-21 0 -67 5 -82 10v109c11 -3 30 -5 45 -5c22 0 38 10 49 31c8 16 23 52 23 380h425v-178h137c104 0 189 -57 189 -169c0 -115 -83 -170 -195 -170h-273v410h-146c0 -205 -10 -307 -42 -356c-23 -37 -62 -62 -130 -62zM545 98h97c52 0 86 21 86 72s-38 73 -87 73
h-96v-145z" />
    <glyph glyph-name="afii10107" unicode="&#x45a;" horiz-adv-x="891" 
d="M54 0v517h142v-188h201v188h142v-188h137c104 0 189 -52 189 -164c0 -115 -83 -165 -195 -165h-273v217h-201v-217h-142zM539 98h97c52 0 86 16 86 67s-38 68 -87 68h-96v-135z" />
    <glyph glyph-name="afii10108" unicode="&#x45b;" horiz-adv-x="613" 
d="M74 0v535h-82v96h82v83h142v-83h208v-96h-208v-132h3c36 60 98 86 151 86c151 0 189 -85 189 -213v-276h-142v250c0 85 -23 127 -91 127c-77 0 -110 -43 -110 -148v-229h-142z" />
    <glyph glyph-name="afii10109" unicode="&#x45c;" horiz-adv-x="574" 
d="M54 0v517h142v-220l190 220h167l-197 -206l225 -311h-172l-145 215l-68 -72v-143h-142zM309 581h-99l96 142h157z" />
    <glyph glyph-name="uni045D" unicode="&#x45d;" horiz-adv-x="600" 
d="M54 0v517h136v-350l195 350h161v-517h-136v350l-195 -350h-161zM134 723h156l96 -142h-99z" />
    <glyph glyph-name="afii10110" unicode="&#x45e;" horiz-adv-x="519" 
d="M131 -181c-29 0 -58 2 -87 5v117c23 -3 48 -5 72 -5c43 0 66 27 66 64c0 11 -2 22 -6 32l-181 485h151l117 -354h2l113 354h147l-216 -581c-31 -84 -81 -117 -178 -117zM265 579c-92 0 -159 41 -159 144h56c9 -47 47 -66 103 -66s94 19 103 66h56
c0 -103 -67 -144 -159 -144z" />
    <glyph glyph-name="afii10193" unicode="&#x45f;" horiz-adv-x="583" 
d="M225 -142v142h-171v517h142v-410h191v410h142v-517h-170v-142h-134z" />
    <glyph glyph-name="afii10146" unicode="&#x462;" horiz-adv-x="754" 
d="M146 0v526h-146v105h146v83h157v-83h211v-105h-211v-91h168c143 0 253 -69 253 -217c0 -155 -106 -218 -261 -218h-317zM303 128h148c85 0 121 27 121 92c0 64 -42 92 -122 92h-147v-184z" />
    <glyph glyph-name="afii10194" unicode="&#x463;" horiz-adv-x="588" 
d="M94 0v422h-104v95h104v197h142v-197h165v-95h-165v-83h137c104 0 189 -57 189 -169c0 -115 -83 -170 -195 -170h-273zM236 98h97c52 0 86 21 86 72s-38 73 -87 73h-96v-145z" />
    <glyph glyph-name="uni046A" unicode="&#x46a;" horiz-adv-x="997" 
d="M60 0v169c0 184 81 249 241 249h70l-190 296h639l-189 -296h65c160 0 241 -65 241 -249v-169h-156v181c0 87 -31 117 -111 117h-93v-298h-157v298h-93c-80 0 -111 -30 -111 -117v-181h-156zM503 446l90 156h-178z" />
    <glyph glyph-name="uni046B" unicode="&#x46b;" horiz-adv-x="822" 
d="M46 0v110c0 112 57 182 173 182h71l-149 225h520l-151 -225h93c116 0 173 -70 173 -182v-110h-141v101c0 75 -16 101 -79 101h-83v-202h-142v202h-65c-63 0 -79 -26 -79 -101v-101h-141zM404 322l59 105h-119z" />
    <glyph glyph-name="afii10147" unicode="&#x472;" horiz-adv-x="778" 
d="M389 -16c-220 0 -351 162 -351 370c0 212 131 377 351 377s351 -165 351 -377c0 -208 -131 -370 -351 -370zM389 111c133 0 189 104 197 216c-29 -35 -67 -73 -103 -73c-60 0 -144 85 -196 85c-41 0 -71 -17 -92 -41c16 -100 71 -187 194 -187zM484 372c40 0 75 20 98 45
c-16 102 -73 186 -193 186c-131 0 -186 -100 -197 -213c28 32 63 67 99 67c64 0 153 -85 193 -85z" />
    <glyph glyph-name="afii10195" unicode="&#x473;" 
d="M305 -13c-162 0 -267 106 -267 271s105 273 267 273c163 0 268 -108 268 -273s-105 -271 -268 -271zM305 89c88 0 120 66 128 138c-19 -23 -43 -43 -70 -43c-47 0 -77 56 -118 56c-32 0 -50 -17 -65 -36c10 -63 49 -115 125 -115zM364 281c31 0 51 11 67 28
c-11 65 -46 119 -126 119c-88 0 -120 -66 -128 -141c19 25 43 50 72 50c51 0 82 -56 115 -56z" />
    <glyph glyph-name="afii10148" unicode="&#x474;" horiz-adv-x="670" 
d="M224 0l-231 714h161l159 -502h2l120 399c23 77 88 117 167 117c28 0 72 -5 93 -12v-120c-11 4 -39 6 -50 6c-16 0 -57 -2 -71 -46l-173 -556h-177z" />
    <glyph glyph-name="afii10196" unicode="&#x475;" horiz-adv-x="540" 
d="M182 0l-177 517h149l109 -353h2l68 257c16 61 50 107 134 107c21 0 66 -4 82 -9v-109c-11 3 -30 4 -45 4c-23 0 -41 -17 -48 -40l-116 -374h-158z" />
    <glyph glyph-name="uni048C" unicode="&#x48c;" horiz-adv-x="754" 
d="M146 0v609h-146v105h146v106h157v-106h151v-105h-151v-174h168c143 0 253 -69 253 -217c0 -155 -106 -218 -261 -218h-317zM303 128h148c85 0 121 27 121 92c0 64 -42 92 -122 92h-147v-184z" />
    <glyph glyph-name="uni048D" unicode="&#x48d;" horiz-adv-x="588" 
d="M94 0v422h-104v95h104v108h142v-108h118v-95h-118v-83h137c104 0 189 -57 189 -169c0 -115 -83 -170 -195 -170h-273zM236 98h97c52 0 86 21 86 72s-38 73 -87 73h-96v-145z" />
    <glyph glyph-name="afii10050" unicode="&#x490;" horiz-adv-x="574" 
d="M69 0v714h346v157h151v-289h-340v-582h-157z" />
    <glyph glyph-name="afii10098" unicode="&#x491;" horiz-adv-x="453" 
d="M59 0v517h261v141h129v-248h-248v-410h-142z" />
    <glyph glyph-name="uni0492" unicode="&#x492;" horiz-adv-x="627" 
d="M127 0v307h-103v122h103v285h496v-132h-339v-153h187v-122h-187v-307h-157z" />
    <glyph glyph-name="uni0493" unicode="&#x493;" horiz-adv-x="495" 
d="M101 0v213h-83v91h83v213h390v-107h-248v-106h145v-91h-145v-213h-142z" />
    <glyph glyph-name="uni0496" unicode="&#x496;" horiz-adv-x="1082" 
d="M926 -163v163h-53l-190 312l-77 -87v-225h-151v225l-77 87l-191 -312h-193l285 423l-259 291h185l250 -294v294h151v-294l250 294h185l-259 -291l196 -291h99v-295h-151z" />
    <glyph glyph-name="uni0497" unicode="&#x497;" horiz-adv-x="832" 
d="M696 -142v142h-43l-127 215l-53 -60v-155h-134v155l-53 60l-127 -215h-164l198 318l-178 199h157l167 -206v206h134v-206l167 206h157l-181 -202l133 -208h80v-249h-133z" />
    <glyph glyph-name="uni0498" unicode="&#x498;" horiz-adv-x="647" 
d="M326 -217c-64 0 -86 8 -124 22l21 48c21 -9 49 -18 84 -18c24 0 40 10 40 34c0 25 -17 32 -40 32c-15 0 -28 -2 -40 -7l-21 24l47 67c-173 12 -269 103 -272 255h155c3 -97 70 -136 154 -136c73 0 123 51 123 116c0 81 -65 100 -134 100h-54v106c12 -1 33 -1 42 -1
c86 0 129 32 129 97c0 56 -43 88 -107 88c-77 0 -125 -39 -132 -108h-148c3 159 132 229 281 229c144 0 253 -80 253 -199c0 -72 -44 -128 -108 -143c76 -14 135 -76 135 -168c0 -136 -116 -232 -269 -237l-26 -36h2c8 3 19 5 34 5c45 0 92 -21 92 -70
c0 -78 -58 -100 -117 -100z" />
    <glyph glyph-name="uni0499" unicode="&#x499;" horiz-adv-x="542" 
d="M273 -217c-64 0 -86 8 -124 22l21 48c21 -9 49 -18 84 -18c24 0 40 10 40 34c0 25 -17 32 -40 32c-15 0 -28 -2 -40 -7l-21 24l49 70c-120 5 -217 55 -220 180h135c5 -56 45 -86 110 -86c64 0 92 30 92 69c0 43 -25 72 -89 72h-55v89h37c60 0 98 15 98 67
c0 31 -25 58 -81 58c-57 0 -90 -15 -98 -71h-132c11 120 116 165 233 165c137 0 216 -43 216 -139c0 -61 -49 -106 -93 -114v-2c48 -5 110 -33 110 -123c0 -106 -86 -157 -215 -165l-28 -40h2c8 3 19 5 34 5c45 0 92 -21 92 -70c0 -78 -58 -100 -117 -100z" />
    <glyph glyph-name="uni049A" unicode="&#x49a;" horiz-adv-x="743" 
d="M587 -163v163h-56l-215 321l-90 -91v-230h-157v714h157v-296l279 296h196l-279 -282l213 -300h103v-295h-151z" />
    <glyph glyph-name="uni049B" unicode="&#x49b;" horiz-adv-x="586" 
d="M450 -142v142h-41l-145 215l-68 -72v-143h-142v517h142v-220l190 220h167l-197 -206l149 -204h78v-249h-133z" />
    <glyph glyph-name="uni049C" unicode="&#x49c;" horiz-adv-x="752" 
d="M69 0v714h157v-274h47v133h80v-133h12l200 274h176l-253 -332l270 -382h-197l-203 308h-5v-135h-80v135h-47v-308h-157z" />
    <glyph glyph-name="uni049D" unicode="&#x49d;" horiz-adv-x="615" 
d="M54 0v517h142v-194h38v92h65v-92h5l145 194h156l-188 -234l204 -283h-172l-145 215h-5v-95h-65v95h-38v-215h-142z" />
    <glyph glyph-name="uni04A0" unicode="&#x4a0;" horiz-adv-x="859" 
d="M206 0v582h-193v132h350v-296l279 296h196l-279 -282l306 -432h-197l-215 321l-90 -91v-230h-157z" />
    <glyph glyph-name="uni04A1" unicode="&#x4a1;" horiz-adv-x="672" 
d="M152 0v410h-142v107h284v-220l190 220h167l-197 -206l225 -311h-172l-145 215l-68 -72v-143h-142z" />
    <glyph glyph-name="uni04A2" unicode="&#x4a2;" horiz-adv-x="761" 
d="M600 -163v163h-85v308h-289v-308h-157v714h157v-274h289v274h157v-582h79v-295h-151z" />
    <glyph glyph-name="uni04A3" unicode="&#x4a3;" horiz-adv-x="610" 
d="M470 -142v142h-73v217h-201v-217h-142v517h142v-188h201v188h142v-410h64v-249h-133z" />
    <glyph glyph-name="uni04A4" unicode="&#x4a4;" horiz-adv-x="1015" 
d="M69 0v714h157v-274h289v274h496v-132h-339v-582h-157v308h-289v-308h-157z" />
    <glyph glyph-name="uni04A5" unicode="&#x4a5;" horiz-adv-x="791" 
d="M54 0v517h142v-188h201v188h390v-107h-248v-410h-142v217h-201v-217h-142z" />
    <glyph glyph-name="uni04AA" unicode="&#x4aa;" horiz-adv-x="741" 
d="M386 -217c-64 0 -86 8 -124 22l21 48c21 -9 49 -18 84 -18c24 0 40 10 40 34c0 25 -17 32 -40 32c-15 0 -28 -2 -40 -7l-21 24l47 68c-197 16 -315 171 -315 368c0 212 131 377 351 377c156 0 289 -92 308 -257h-152c-11 71 -79 125 -156 125c-141 0 -194 -120 -194 -245
c0 -119 53 -239 194 -239c96 0 150 64 162 160h152c-16 -176 -133 -286 -302 -291l-26 -36h2c8 3 19 5 34 5c45 0 92 -21 92 -70c0 -78 -58 -100 -117 -100z" />
    <glyph glyph-name="uni04AB" unicode="&#x4ab;" horiz-adv-x="574" 
d="M306 -217c-64 0 -86 8 -124 22l21 48c21 -9 49 -18 84 -18c24 0 40 10 40 34c0 25 -17 32 -40 32c-15 0 -28 -2 -40 -7l-21 24l49 70c-143 11 -237 116 -237 263c0 161 96 280 264 280c123 0 235 -64 243 -196h-139c-9 59 -44 89 -105 89c-91 0 -121 -92 -121 -168
c0 -75 29 -163 118 -163c68 0 104 41 113 105h137c-19 -129 -100 -202 -225 -210l-28 -40h2c8 3 19 5 34 5c45 0 92 -21 92 -70c0 -78 -58 -100 -117 -100z" />
    <glyph glyph-name="uni04AE" unicode="&#x4ae;" horiz-adv-x="667" 
d="M254 0v278l-262 436h176l167 -282l166 282h175l-265 -440v-274h-157z" />
    <glyph glyph-name="uni04AF" unicode="&#x4af;" horiz-adv-x="519" 
d="M188 -181v198l-193 500h151l117 -344h2l113 344h147l-195 -507v-191h-142z" />
    <glyph glyph-name="uni04B0" unicode="&#x4b0;" horiz-adv-x="667" 
d="M254 0v134h-154v105h154v39l-262 436h176l167 -282l166 282h175l-265 -440v-35h154v-105h-154v-134h-157z" />
    <glyph glyph-name="uni04B1" unicode="&#x4b1;" horiz-adv-x="519" 
d="M188 -181v78h-122v95h122v25l-193 500h151l117 -344h2l113 344h147l-195 -507v-18h122v-95h-122v-78h-142z" />
    <glyph glyph-name="uni04B2" unicode="&#x4b2;" horiz-adv-x="688" 
d="M532 -163v163h-46l-156 247l-159 -247h-176l249 374l-230 340h182l140 -228l145 228h172l-229 -341l161 -241h98v-295h-151z" />
    <glyph glyph-name="uni04B3" unicode="&#x4b3;" horiz-adv-x="553" 
d="M417 0h-42l-108 163l-108 -163h-159l186 272l-170 245h162l91 -135l90 135h157l-170 -242l117 -168h87v-249h-133v142z" />
    <glyph glyph-name="uni04B6" unicode="&#x4b6;" horiz-adv-x="699" 
d="M538 -163v163h-85v271c-35 -8 -110 -20 -153 -20c-160 0 -255 65 -255 249v214h156v-216c0 -87 31 -117 111 -117c43 0 118 11 141 16v317h157v-582h79v-295h-151z" />
    <glyph glyph-name="uni04B7" unicode="&#x4b7;" horiz-adv-x="591" 
d="M451 -142v142h-73v198c-26 -8 -102 -23 -165 -23c-116 0 -173 70 -173 182v160h141v-131c0 -75 16 -101 79 -101c36 0 94 10 118 15v217h142v-410h64v-249h-133z" />
    <glyph glyph-name="uni04B8" unicode="&#x4b8;" horiz-adv-x="680" 
d="M453 0v271c-21 -5 -54 -12 -89 -16v-132h-80v128c-151 3 -239 72 -239 249v214h156v-216c0 -76 23 -109 83 -116v141h80v-139c36 3 74 9 89 13v317h157v-714h-157z" />
    <glyph glyph-name="uni04B9" unicode="&#x4b9;" horiz-adv-x="574" 
d="M378 0v198c-15 -4 -38 -10 -69 -15v-103h-65v96c-11 -1 -20 -1 -31 -1c-116 0 -173 70 -173 182v160h141v-131c0 -68 12 -96 63 -100v99h65v-97c27 3 54 8 69 12v217h142v-517h-142z" />
    <glyph glyph-name="uni04BA" unicode="&#x4ba;" horiz-adv-x="675" 
d="M69 0v714h157v-271c35 8 110 20 153 20c160 0 255 -65 255 -249v-214h-156v216c0 87 -31 117 -111 117c-43 0 -118 -11 -141 -16v-317h-157z" />
    <glyph glyph-name="uni04BB" unicode="&#x4bb;" horiz-adv-x="593" 
d="M54 0v714h142v-269h3c36 60 98 86 151 86c151 0 189 -85 189 -213v-318h-142v292c0 85 -23 127 -91 127c-77 0 -110 -43 -110 -148v-271h-142z" />
    <glyph glyph-name="uni04C0" unicode="&#x4c0;" horiz-adv-x="295" 
d="M69 0v714h157v-714h-157z" />
    <glyph glyph-name="uni04C1" unicode="&#x4c1;" horiz-adv-x="1061" 
d="M-6 0l285 423l-259 291h185l250 -294v294h151v-294l250 294h185l-259 -291l285 -423h-194l-190 312l-77 -87v-225h-151v225l-77 87l-191 -312h-193zM529 775c-97 0 -163 50 -163 154h56c9 -47 51 -71 107 -71s98 24 107 71h56c0 -104 -66 -154 -163 -154z" />
    <glyph glyph-name="uni04C2" unicode="&#x4c2;" horiz-adv-x="812" 
d="M-5 0l198 318l-178 199h157l167 -206v206h134v-206l167 206h157l-181 -202l201 -315h-164l-127 215l-53 -60v-155h-134v155l-53 60l-127 -215h-164zM405 579c-92 0 -159 41 -159 144h56c9 -47 47 -66 103 -66s94 19 103 66h56c0 -103 -67 -144 -159 -144z" />
    <glyph glyph-name="uni04D0" unicode="&#x4d0;" horiz-adv-x="685" 
d="M-6 0l270 714h161l267 -714h-163l-54 159h-267l-56 -159h-158zM249 276h185l-90 262h-2zM341 775c-97 0 -163 50 -163 154h56c9 -47 51 -71 107 -71s98 24 107 71h56c0 -104 -66 -154 -163 -154z" />
    <glyph glyph-name="uni04D1" unicode="&#x4d1;" horiz-adv-x="574" 
d="M208 -13c-99 0 -176 47 -176 154c2 235 350 109 344 225c0 60 -42 70 -92 70c-56 0 -89 -22 -94 -78h-142c8 132 127 173 243 173c103 0 227 -23 227 -147v-269c0 -47 5 -94 18 -115h-144c-5 16 -9 33 -10 50c-45 -47 -110 -63 -174 -63zM261 81c111 0 115 87 115 119v53
c-24 -21 -73 -22 -118 -30c-44 -8 -84 -24 -84 -76s41 -66 87 -66zM286 579c-92 0 -159 41 -159 144h56c9 -47 47 -66 103 -66s94 19 103 66h56c0 -103 -67 -144 -159 -144z" />
    <glyph glyph-name="uni04D2" unicode="&#x4d2;" horiz-adv-x="685" 
d="M-6 0l270 714h161l267 -714h-163l-54 159h-267l-56 -159h-158zM249 276h185l-90 262h-2zM172 911h134v-117h-134v117zM377 911h135v-117h-135v117z" />
    <glyph glyph-name="uni04D3" unicode="&#x4d3;" horiz-adv-x="574" 
d="M208 -13c-99 0 -176 47 -176 154c2 235 350 109 344 225c0 60 -42 70 -92 70c-56 0 -89 -22 -94 -78h-142c8 132 127 173 243 173c103 0 227 -23 227 -147v-269c0 -47 5 -94 18 -115h-144c-5 16 -9 33 -10 50c-45 -47 -110 -63 -174 -63zM261 81c111 0 115 87 115 119v53
c-24 -21 -73 -22 -118 -30c-44 -8 -84 -24 -84 -76s41 -66 87 -66zM117 714h134v-117h-134v117zM322 714h135v-117h-135v117z" />
    <glyph glyph-name="uni04D4" unicode="&#x4d4;" horiz-adv-x="981" 
d="M-10 0l340 714h606v-132h-332v-153h312v-122h-312v-175h340v-132h-492v159h-224l-72 -159h-166zM280 276h172v306h-34z" />
    <glyph glyph-name="uni04D5" unicode="&#x4d5;" horiz-adv-x="907" 
d="M231 -13c-98 0 -193 37 -193 153c0 118 88 145 173 158c121 19 174 19 174 72c0 54 -47 66 -92 66c-56 0 -96 -20 -99 -80h-142c5 131 123 175 244 175c60 0 134 -17 171 -70c40 47 89 70 173 70c172 0 238 -147 238 -307h-369c-3 -68 44 -143 123 -143
c64 0 94 30 103 81h138c-29 -112 -125 -175 -238 -175c-75 0 -149 24 -193 87c-48 -64 -133 -87 -211 -87zM268 81c52 0 117 31 117 107v64c-52 -44 -205 -4 -205 -104c0 -52 44 -67 88 -67zM509 314h227c0 64 -39 122 -111 122s-116 -58 -116 -122z" />
    <glyph glyph-name="uni04D6" unicode="&#x4d6;" horiz-adv-x="648" 
d="M69 0v714h534v-132h-377v-153h346v-122h-346v-175h385v-132h-542zM343 775c-97 0 -163 50 -163 154h56c9 -47 51 -71 107 -71s98 24 107 71h56c0 -104 -66 -154 -163 -154z" />
    <glyph glyph-name="uni04D7" unicode="&#x4d7;" horiz-adv-x="574" 
d="M293 -13c-163 0 -264 110 -264 271c0 155 107 273 264 273c166 0 252 -132 252 -280c0 -9 0 -18 -1 -27h-373c4 -92 47 -131 127 -131c57 0 103 35 112 67h125c-40 -124 -125 -173 -242 -173zM171 314h231c-13 72 -44 110 -113 110c-92 0 -115 -70 -118 -110zM286 579
c-92 0 -159 41 -159 144h56c9 -47 47 -66 103 -66s94 19 103 66h56c0 -103 -67 -144 -159 -144z" />
    <glyph glyph-name="uni04D8" unicode="&#x4d8;" horiz-adv-x="748" 
d="M376 -16c-229 0 -338 162 -338 370c0 9 1 37 2 46h513c-15 125 -89 201 -190 201c-80 0 -144 -39 -163 -111h-149c19 139 144 241 309 241c219 0 350 -165 350 -373c0 -224 -137 -374 -334 -374zM375 114c88 0 150 55 173 164h-346c13 -93 69 -164 173 -164z" />
    <glyph glyph-name="afii10846" unicode="&#x4d9;" horiz-adv-x="574" 
d="M281 -13c-176 0 -262 148 -251 307h373c-4 92 -47 131 -127 131c-57 0 -103 -35 -112 -67h-125c40 124 125 173 242 173c163 0 264 -110 264 -271c0 -155 -107 -273 -264 -273zM285 94c92 0 115 70 118 110h-231c13 -72 44 -110 113 -110z" />
    <glyph glyph-name="uni04DC" unicode="&#x4dc;" horiz-adv-x="1061" 
d="M-6 0l285 423l-259 291h185l250 -294v294h151v-294l250 294h185l-259 -291l285 -423h-194l-190 312l-77 -87v-225h-151v225l-77 87l-191 -312h-193zM360 911h134v-117h-134v117zM565 911h135v-117h-135v117z" />
    <glyph glyph-name="uni04DD" unicode="&#x4dd;" horiz-adv-x="812" 
d="M-5 0l198 318l-178 199h157l167 -206v206h134v-206l167 206h157l-181 -202l201 -315h-164l-127 215l-53 -60v-155h-134v155l-53 60l-127 -215h-164zM236 714h134v-117h-134v117zM441 714h135v-117h-135v117z" />
    <glyph glyph-name="uni04DE" unicode="&#x4de;" horiz-adv-x="647" 
d="M330 -16c-196 0 -306 95 -309 256h155c3 -97 70 -136 154 -136c73 0 123 51 123 116c0 81 -65 100 -134 100h-54v106c12 -1 33 -1 42 -1c86 0 129 32 129 97c0 56 -43 88 -107 88c-77 0 -125 -39 -132 -108h-148c3 159 132 229 281 229c144 0 253 -80 253 -199
c0 -72 -44 -128 -108 -143c76 -14 135 -76 135 -168c0 -139 -121 -237 -280 -237zM153 911h134v-117h-134v117zM358 911h135v-117h-135v117z" />
    <glyph glyph-name="uni04DF" unicode="&#x4df;" horiz-adv-x="542" 
d="M264 -13c-131 0 -239 49 -242 181h135c5 -56 45 -86 110 -86c64 0 92 30 92 69c0 43 -25 72 -89 72h-55v89h37c60 0 98 15 98 67c0 31 -25 58 -81 58c-57 0 -90 -15 -98 -71h-132c11 120 116 165 233 165c137 0 216 -43 216 -139c0 -61 -49 -106 -93 -114v-2
c48 -5 110 -33 110 -123c0 -112 -97 -166 -241 -166zM101 714h134v-117h-134v117zM306 714h135v-117h-135v117z" />
    <glyph glyph-name="uni04E2" unicode="&#x4e2;" horiz-adv-x="745" 
d="M69 0v714h156v-495h3l272 495h176v-714h-156v496h-3l-272 -496h-176zM187 888h372v-75h-372v75z" />
    <glyph glyph-name="uni04E3" unicode="&#x4e3;" horiz-adv-x="600" 
d="M54 0v517h136v-350l195 350h161v-517h-136v350l-195 -350h-161zM114 691h372v-75h-372v75z" />
    <glyph glyph-name="uni04E4" unicode="&#x4e4;" horiz-adv-x="745" 
d="M69 0v714h156v-495h3l272 495h176v-714h-156v496h-3l-272 -496h-176zM202 911h134v-117h-134v117zM407 911h135v-117h-135v117z" />
    <glyph glyph-name="uni04E5" unicode="&#x4e5;" horiz-adv-x="600" 
d="M54 0v517h136v-350l195 350h161v-517h-136v350l-195 -350h-161zM130 714h134v-117h-134v117zM335 714h135v-117h-135v117z" />
    <glyph glyph-name="uni04E6" unicode="&#x4e6;" horiz-adv-x="778" 
d="M389 -16c-220 0 -351 162 -351 370c0 212 131 377 351 377s351 -165 351 -377c0 -208 -131 -370 -351 -370zM389 115c141 0 194 120 194 239c0 125 -53 245 -194 245s-194 -120 -194 -245c0 -119 53 -239 194 -239zM219 911h134v-117h-134v117zM424 911h135v-117h-135
v117z" />
    <glyph glyph-name="uni04E7" unicode="&#x4e7;" 
d="M305 -13c-162 0 -267 106 -267 271s105 273 267 273c163 0 268 -108 268 -273s-105 -271 -268 -271zM305 93c97 0 126 82 126 165s-29 166 -126 166c-96 0 -125 -83 -125 -166s29 -165 125 -165zM135 714h134v-117h-134v117zM340 714h135v-117h-135v117z" />
    <glyph glyph-name="uni04E8" unicode="&#x4e8;" horiz-adv-x="778" 
d="M389 -16c-220 0 -351 162 -351 370c0 212 131 377 351 377s351 -165 351 -377c0 -208 -131 -370 -351 -370zM389 111c128 0 182 95 195 200h-391c11 -105 70 -200 196 -200zM197 425h384c-19 99 -76 178 -192 178s-176 -79 -192 -178z" />
    <glyph glyph-name="uni04E9" unicode="&#x4e9;" 
d="M305 -13c-162 0 -267 106 -267 271s105 273 267 273c163 0 268 -108 268 -273s-105 -271 -268 -271zM305 89c85 0 120 60 128 132h-255c8 -72 43 -132 127 -132zM181 316h249c-13 61 -49 112 -125 112c-77 0 -111 -51 -124 -112z" />
    <glyph glyph-name="uni04EE" unicode="&#x4ee;" horiz-adv-x="647" 
d="M177 -13c-35 0 -68 8 -87 13v127c19 -5 44 -8 75 -8c48 0 72 29 72 61c0 31 -18 65 -33 94l-209 440h173l164 -372l155 372h167l-240 -526c-67 -145 -122 -201 -237 -201zM137 888h372v-75h-372v75z" />
    <glyph glyph-name="uni04EF" unicode="&#x4ef;" horiz-adv-x="519" 
d="M131 -181c-29 0 -58 2 -87 5v117c23 -3 48 -5 72 -5c43 0 66 27 66 64c0 11 -2 22 -6 32l-181 485h151l117 -354h2l113 354h147l-216 -581c-31 -84 -81 -117 -178 -117zM73 691h372v-75h-372v75z" />
    <glyph glyph-name="uni04F0" unicode="&#x4f0;" horiz-adv-x="647" 
d="M177 -13c-35 0 -68 8 -87 13v127c19 -5 44 -8 75 -8c48 0 72 29 72 61c0 31 -18 65 -33 94l-209 440h173l164 -372l155 372h167l-240 -526c-67 -145 -122 -201 -237 -201zM153 911h134v-117h-134v117zM358 911h135v-117h-135v117z" />
    <glyph glyph-name="uni04F1" unicode="&#x4f1;" horiz-adv-x="519" 
d="M131 -181c-29 0 -58 2 -87 5v117c23 -3 48 -5 72 -5c43 0 66 27 66 64c0 11 -2 22 -6 32l-181 485h151l117 -354h2l113 354h147l-216 -581c-31 -84 -81 -117 -178 -117zM89 714h134v-117h-134v117zM294 714h135v-117h-135v117z" />
    <glyph glyph-name="uni04F2" unicode="&#x4f2;" horiz-adv-x="647" 
d="M177 -13c-35 0 -68 8 -87 13v127c19 -5 44 -8 75 -8c48 0 72 29 72 61c0 31 -18 65 -33 94l-209 440h173l164 -372l155 372h167l-240 -526c-67 -145 -122 -201 -237 -201zM460 778h-99l91 142h157zM253 778h-98l90 142h157z" />
    <glyph glyph-name="uni04F3" unicode="&#x4f3;" horiz-adv-x="519" 
d="M131 -181c-29 0 -58 2 -87 5v117c23 -3 48 -5 72 -5c43 0 66 27 66 64c0 11 -2 22 -6 32l-181 485h151l117 -354h2l113 354h147l-216 -581c-31 -84 -81 -117 -178 -117zM400 581h-99l91 142h157zM193 581h-98l90 142h157z" />
    <glyph glyph-name="uni04F4" unicode="&#x4f4;" horiz-adv-x="675" 
d="M448 0v271c-35 -8 -110 -20 -153 -20c-160 0 -255 65 -255 249v214h156v-216c0 -87 31 -117 111 -117c43 0 118 11 141 16v317h157v-714h-157zM167 911h134v-117h-134v117zM372 911h135v-117h-135v117z" />
    <glyph glyph-name="uni04F5" unicode="&#x4f5;" horiz-adv-x="574" 
d="M378 0v198c-26 -8 -102 -23 -165 -23c-116 0 -173 70 -173 182v160h141v-131c0 -75 16 -101 79 -101c36 0 94 10 118 15v217h142v-517h-142zM117 714h134v-117h-134v117zM322 714h135v-117h-135v117z" />
    <glyph glyph-name="uni04F8" unicode="&#x4f8;" horiz-adv-x="929" 
d="M69 0v714h157v-258h148c143 0 253 -71 253 -227c0 -157 -106 -229 -261 -229h-297zM226 128h128c76 0 121 27 121 103c0 75 -52 102 -122 102h-127v-205zM703 0v714h157v-714h-157zM294 911h134v-117h-134v117zM499 911h135v-117h-135v117z" />
    <glyph glyph-name="uni04F9" unicode="&#x4f9;" horiz-adv-x="778" 
d="M54 0v517h142v-178h137c104 0 189 -57 189 -169c0 -115 -83 -170 -195 -170h-273zM196 98h97c52 0 86 21 86 72s-38 73 -87 73h-96v-145zM583 0v517h141v-517h-141zM219 714h134v-117h-134v117zM424 714h135v-117h-135v117z" />
    <glyph glyph-name="afii61352" unicode="&#x2116;" horiz-adv-x="1066" 
d="M69 0v700h150l243 -445v445h141v-700h-147l-245 446v-446h-142zM698 151v98h301v-98h-301zM843 280c-100 0 -164 62 -164 162c0 97 66 161 165 161c100 0 162 -64 162 -161c0 -100 -63 -162 -163 -162zM843 354c39 0 65 28 65 88s-27 87 -66 87s-64 -30 -64 -87
c0 -60 25 -88 65 -88z" />
    <glyph glyph-name="Aogonek" unicode="&#x104;" horiz-adv-x="685" 
d="M558 -217c-25 0 -107 5 -107 90c0 15 2 42 49 85c14 13 34 27 59 42h-30l-54 159h-267l-56 -159h-158l270 714h161l267 -714h-66c-30 -27 -51 -50 -62 -68c-11 -19 -17 -38 -17 -55c0 -20 19 -34 39 -34c21 0 39 5 58 30l48 -22c-40 -51 -89 -68 -134 -68zM249 276h185
l-90 262h-2z" />
    <glyph glyph-name="aogonek" unicode="&#x105;" horiz-adv-x="574" 
d="M402 -217c-25 0 -107 5 -107 90c0 15 2 42 49 85c14 13 34 27 59 42h-11c-5 16 -9 33 -10 50c-45 -47 -110 -63 -174 -63c-99 0 -176 47 -176 154c2 235 350 109 344 225c0 60 -42 70 -92 70c-56 0 -89 -22 -94 -78h-142c8 132 127 173 243 173c103 0 227 -23 227 -147
v-269c0 -47 5 -94 18 -115h-66c-30 -27 -51 -50 -62 -68c-11 -19 -17 -38 -17 -55c0 -20 19 -34 39 -34c21 0 39 5 58 30l48 -22c-40 -51 -89 -68 -134 -68zM261 81c111 0 115 87 115 119v53c-24 -21 -73 -22 -118 -30c-44 -8 -84 -23 -84 -76c0 -52 41 -66 87 -66z" />
    <glyph glyph-name="Cacute" unicode="&#x106;" horiz-adv-x="741" 
d="M697 474h-152c-11 71 -79 125 -156 125c-141 0 -194 -120 -194 -245c0 -119 53 -239 194 -239c96 0 150 64 162 160h152c-16 -180 -138 -291 -314 -291c-220 0 -351 162 -351 370c0 212 131 377 351 377c156 0 289 -92 308 -257zM403 778h-99l96 142h157z" />
    <glyph glyph-name="cacute" unicode="&#x107;" horiz-adv-x="574" 
d="M545 335h-139c-9 59 -44 89 -105 89c-91 0 -121 -92 -121 -168c0 -75 29 -163 118 -163c68 0 104 41 113 105h137c-19 -137 -112 -211 -249 -211c-156 0 -261 109 -261 264c0 161 96 280 264 280c123 0 235 -64 243 -196zM319 581h-99l96 142h157z" />
    <glyph glyph-name="Eogonek" unicode="&#x118;" horiz-adv-x="648" 
d="M477 -217c-25 0 -107 5 -107 90c0 15 2 42 49 85c14 13 34 27 59 42h-409v714h534v-132h-377v-153h346v-122h-346v-175h385v-132h-66c-30 -27 -51 -50 -62 -68c-11 -19 -17 -38 -17 -55c0 -20 19 -34 39 -34c21 0 39 5 58 30l48 -22c-40 -51 -89 -68 -134 -68z" />
    <glyph glyph-name="eogonek" unicode="&#x119;" horiz-adv-x="574" 
d="M277 -217c-25 0 -107 5 -107 90c0 15 2 42 49 85c11 10 24 20 40 31c-27 3 -53 8 -76 17c-97 39 -154 132 -154 252c0 155 107 273 264 273c176 0 262 -148 251 -307h-373c4 -92 47 -131 127 -131c57 0 103 35 112 67h125c-20 -62 -51 -106 -92 -133
c-31 -20 -68 -32 -109 -37c-24 -23 -41 -42 -51 -58c-11 -19 -17 -38 -17 -55c0 -20 19 -34 39 -34c21 0 39 5 58 30l48 -22c-40 -51 -89 -68 -134 -68zM171 314h231c-13 72 -44 110 -113 110c-92 0 -115 -70 -118 -110z" />
    <glyph glyph-name="Nacute" unicode="&#x143;" horiz-adv-x="741" 
d="M69 714h156l298 -479h2v479h147v-714h-157l-297 478h-2v-478h-147v714zM403 778h-99l96 142h157z" />
    <glyph glyph-name="nacute" unicode="&#x144;" horiz-adv-x="593" 
d="M54 517h135v-72h3c36 60 98 86 158 86c151 0 189 -85 189 -213v-318h-142v292c0 85 -23 127 -91 127c-77 0 -110 -43 -110 -148v-271h-142v517zM309 581h-99l96 142h157z" />
    <glyph glyph-name="Sacute" unicode="&#x15a;" horiz-adv-x="649" 
d="M24 237h152c0 -95 74 -132 158 -132c55 0 139 16 139 89c0 77 -108 89 -212 118c-106 26 -213 71 -213 203c0 147 138 216 267 216c149 0 286 -65 286 -230h-152c-5 85 -65 108 -141 108c-50 0 -108 -21 -108 -81c0 -56 35 -63 213 -108c53 -11 212 -48 212 -208
c0 -132 -102 -228 -297 -228c-158 0 -307 76 -304 253zM347 778h-99l96 142h157z" />
    <glyph glyph-name="sacute" unicode="&#x15b;" horiz-adv-x="537" 
d="M29 168h135c0 -61 54 -87 109 -87c40 0 93 16 93 66c0 43 -60 59 -161 80c-83 19 -164 46 -164 138c0 132 114 166 225 166c112 0 217 -38 228 -165h-135c-4 55 -46 70 -97 70c-32 0 -79 -5 -79 -48c0 -51 81 -58 161 -77c83 -19 164 -49 164 -145
c0 -137 -119 -179 -236 -179c-120 0 -238 43 -243 181zM301 581h-99l96 142h157z" />
    <glyph glyph-name="Zacute" unicode="&#x179;" horiz-adv-x="648" 
d="M23 124l383 458h-353v132h562v-124l-383 -458h393v-132h-602v124zM346 778h-99l96 142h157z" />
    <glyph glyph-name="zacute" unicode="&#x17a;" horiz-adv-x="519" 
d="M22 107l269 303h-249v107h436v-107l-269 -303h288v-107h-475v107zM282 581h-99l96 142h157z" />
    <glyph glyph-name="Zdotaccent" unicode="&#x17b;" horiz-adv-x="648" 
d="M23 124l383 458h-353v132h562v-124l-383 -458h393v-132h-602v124zM256 911h135v-117h-135v117z" />
    <glyph glyph-name="zdotaccent" unicode="&#x17c;" horiz-adv-x="519" 
d="M22 107l269 303h-249v107h436v-107l-269 -303h288v-107h-475v107zM192 714h135v-117h-135v117z" />
    <glyph glyph-name="uni0100" unicode="&#x100;" horiz-adv-x="685" 
d="M-7 0l271 714h161l267 -714h-163l-54 159h-267l-56 -159h-159zM249 276h185l-90 262h-2zM167 809v75h353v-75h-353z" />
    <glyph glyph-name="uni0102" unicode="&#x102;" horiz-adv-x="685" 
d="M-7 0l271 714h161l267 -714h-163l-54 159h-267l-56 -159h-159zM249 276h185l-90 262h-2zM177 921h65c8 -50 59 -67 99 -67c60 0 98 20 110 67h63c-13 -100 -78 -142 -178 -142c-96 0 -151 50 -159 142z" />
    <glyph glyph-name="uni01FA" unicode="&#x1fa;" horiz-adv-x="685" 
d="M507 973l-125 -115h-99l77 115h147zM447 739c0 -20 -5 -38 -16 -54l261 -685h-163l-54 159h-267l-56 -159h-159l264 683c-11 15 -17 34 -17 56c0 56 43 98 104 98c63 0 103 -42 103 -98zM293 739c0 -31 20 -53 51 -53s50 22 50 53c0 29 -19 53 -50 53s-51 -22 -51 -53z
M342 548l-93 -272h185l-90 272h-2z" />
    <glyph glyph-name="uni01FC" unicode="&#x1fc;" horiz-adv-x="981" 
d="M777 921l-154 -142h-99l96 142h157zM-11 0l341 714h606v-132h-332v-153h312v-122h-312v-175h340v-132h-492v159h-224l-72 -159h-167zM418 582l-138 -306h172v306h-34z" />
    <glyph glyph-name="uni0108" unicode="&#x108;" horiz-adv-x="741" 
d="M38 354c0 212 131 377 351 377c156 0 289 -92 308 -257h-152c-11 71 -79 125 -156 125c-141 0 -194 -120 -194 -245c0 -119 53 -239 194 -239c96 0 150 64 162 160h152c-16 -179 -138 -292 -314 -292c-220 0 -351 165 -351 371zM210 779l111 142h130l110 -142h-115
l-62 81l-64 -81h-110z" />
    <glyph glyph-name="uni010C" unicode="&#x10c;" horiz-adv-x="741" 
d="M38 354c0 212 131 377 351 377c156 0 289 -92 308 -257h-152c-11 71 -79 125 -156 125c-141 0 -194 -120 -194 -245c0 -119 53 -239 194 -239c96 0 150 64 162 160h152c-16 -179 -138 -292 -314 -292c-220 0 -351 165 -351 371zM559 921l-111 -142h-130l-110 142h115
l62 -81l64 81h110z" />
    <glyph glyph-name="uni010A" unicode="&#x10a;" horiz-adv-x="741" 
d="M38 354c0 212 131 377 351 377c156 0 289 -92 308 -257h-152c-11 71 -79 125 -156 125c-141 0 -194 -120 -194 -245c0 -119 53 -239 194 -239c96 0 150 64 162 160h152c-16 -179 -138 -292 -314 -292c-220 0 -351 165 -351 371zM316 788v117h135v-117h-135z" />
    <glyph glyph-name="uni010E" unicode="&#x10e;" horiz-adv-x="741" 
d="M69 0v714h308c185 0 324 -117 324 -353c0 -207 -106 -361 -324 -361h-308zM226 132h140c91 0 178 56 178 214c0 144 -51 236 -206 236h-112v-450zM508 921l-111 -142h-130l-110 142h115l62 -81l64 81h110z" />
    <glyph glyph-name="uni0110" unicode="&#x110;" horiz-adv-x="741" 
d="M69 0v320h-73v98h73v296h308c185 0 324 -117 324 -353c0 -207 -106 -361 -324 -361h-308zM226 582v-164h160v-99h-160v-187h140c91 0 178 56 178 214c0 144 -51 236 -206 236h-112z" />
    <glyph glyph-name="uni011A" unicode="&#x11a;" horiz-adv-x="648" 
d="M69 0v714h534v-132h-377v-153h346v-122h-346v-175h385v-132h-542zM508 921l-111 -142h-130l-110 142h115l62 -81l64 81h110z" />
    <glyph glyph-name="uni0112" unicode="&#x112;" horiz-adv-x="648" 
d="M69 0v714h534v-132h-377v-153h346v-122h-346v-175h385v-132h-542zM155 809v75h353v-75h-353z" />
    <glyph glyph-name="uni0114" unicode="&#x114;" horiz-adv-x="648" 
d="M69 0v714h534v-132h-377v-153h346v-122h-346v-175h385v-132h-542zM165 921h65c8 -50 59 -67 99 -67c60 0 98 20 110 67h63c-13 -100 -78 -142 -178 -142c-96 0 -151 50 -159 142z" />
    <glyph glyph-name="uni0116" unicode="&#x116;" horiz-adv-x="648" 
d="M69 0v714h534v-132h-377v-153h346v-122h-346v-175h385v-132h-542zM263 788v117h135v-117h-135z" />
    <glyph glyph-name="uni011C" unicode="&#x11c;" horiz-adv-x="759" 
d="M38 354c0 212 131 377 351 377c146 0 285 -89 301 -252h-150c-19 80 -75 120 -151 120c-141 0 -194 -120 -194 -245c0 -119 53 -239 194 -239c104 0 161 54 170 154h-158v117h300v-386h-100l-16 81c-56 -72 -127 -98 -196 -98c-220 0 -351 165 -351 371zM210 779l111 142
h130l110 -142h-115l-62 81l-64 -81h-110z" />
    <glyph glyph-name="uni011E" unicode="&#x11e;" horiz-adv-x="759" 
d="M38 354c0 212 131 377 351 377c146 0 285 -89 301 -252h-150c-19 80 -75 120 -151 120c-141 0 -194 -120 -194 -245c0 -119 53 -239 194 -239c104 0 161 54 170 154h-158v117h300v-386h-100l-16 81c-56 -72 -127 -98 -196 -98c-220 0 -351 165 -351 371zM218 921h65
c8 -50 59 -67 99 -67c60 0 98 20 110 67h63c-13 -100 -78 -142 -178 -142c-96 0 -151 50 -159 142z" />
    <glyph glyph-name="uni0120" unicode="&#x120;" horiz-adv-x="759" 
d="M38 354c0 212 131 377 351 377c146 0 285 -89 301 -252h-150c-19 80 -75 120 -151 120c-141 0 -194 -120 -194 -245c0 -119 53 -239 194 -239c104 0 161 54 170 154h-158v117h300v-386h-100l-16 81c-56 -72 -127 -98 -196 -98c-220 0 -351 165 -351 371zM316 788v117h135
v-117h-135z" />
    <glyph glyph-name="uni0122" unicode="&#x122;" horiz-adv-x="759" 
d="M38 354c0 212 131 377 351 377c146 0 285 -89 301 -252h-150c-19 80 -75 120 -151 120c-141 0 -194 -120 -194 -245c0 -119 53 -239 194 -239c104 0 161 54 170 154h-158v117h300v-386h-100l-16 81c-56 -72 -127 -98 -196 -98c-220 0 -351 165 -351 371zM307 -143v93h145
v-73c0 -84 -59 -94 -135 -94v37c32 3 50 12 57 37h-67z" />
    <glyph glyph-name="uni0124" unicode="&#x124;" horiz-adv-x="741" 
d="M69 0v714h157v-274h289v274h157v-714h-157v308h-289v-308h-157zM195 779l111 142h130l110 -142h-115l-62 81l-64 -81h-110z" />
    <glyph glyph-name="uni0126" unicode="&#x126;" horiz-adv-x="741" 
d="M69 0v714h157v-109h289v109h157v-714h-157v281h-289v-281h-157zM226 403h289v113h-289v-113z" />
    <glyph glyph-name="uni012C" unicode="&#x12c;" horiz-adv-x="295" 
d="M69 0v714h157v-714h-157zM-20 921h65c8 -50 59 -67 99 -67c60 0 98 20 110 67h63c-13 -100 -78 -142 -178 -142c-96 0 -151 50 -159 142z" />
    <glyph glyph-name="uni0128" unicode="&#x128;" horiz-adv-x="295" 
d="M69 0v714h157v-714h-157zM219 797c-61 0 -103 34 -147 34c-25 0 -38 -17 -45 -42h-63c8 59 47 122 117 122c54 0 101 -35 143 -35c24 0 36 10 43 35h64c-13 -60 -38 -114 -112 -114z" />
    <glyph glyph-name="uni012A" unicode="&#x12a;" horiz-adv-x="295" 
d="M69 0v714h157v-714h-157zM-30 809v75h353v-75h-353z" />
    <glyph glyph-name="uni0130" unicode="&#x130;" horiz-adv-x="295" 
d="M69 0v714h157v-714h-157zM80 788v117h135v-117h-135z" />
    <glyph glyph-name="uni012E" unicode="&#x12e;" horiz-adv-x="295" 
d="M69 0v714h157v-714c-77 -64 -86 -93 -86 -121c0 -24 13 -36 32 -36s33 11 46 28l41 -26c-31 -43 -60 -62 -109 -62c-64 0 -102 32 -102 83c0 47 34 89 110 134h-89z" />
    <glyph glyph-name="uni0134" unicode="&#x134;" horiz-adv-x="556" 
d="M14 204v62h142v-32c0 -69 17 -119 91 -119c83 0 83 66 83 117v482h157v-489c0 -92 -25 -242 -238 -242c-119 0 -235 65 -235 221zM228 779l111 142h130l110 -142h-115l-62 81l-64 -81h-110z" />
    <glyph glyph-name="uni0136" unicode="&#x136;" horiz-adv-x="722" 
d="M69 0v714h157v-296l279 296h196l-279 -282l306 -432h-197l-215 321l-90 -91v-230h-157zM298 -143v93h145v-73c0 -84 -59 -94 -135 -94v37c32 3 50 12 57 37h-67z" />
    <glyph glyph-name="uni0139" unicode="&#x139;" horiz-adv-x="593" 
d="M69 0v714h157v-582h348v-132h-505zM348 921l-154 -142h-99l96 142h157z" />
    <glyph glyph-name="uni013D" unicode="&#x13d;" horiz-adv-x="593" 
d="M69 0v714h157v-582h348v-132h-505zM483 714l-81 -142h-98l31 142h148z" />
    <glyph glyph-name="uni013B" unicode="&#x13b;" horiz-adv-x="593" 
d="M69 0v714h157v-582h348v-132h-505zM246 -143v93h145v-73c0 -84 -59 -94 -135 -94v37c32 3 50 12 57 37h-67z" />
    <glyph glyph-name="uni013F" unicode="&#x13f;" horiz-adv-x="593" 
d="M69 0v714h157v-582h348v-132h-505zM340 333v117h135v-117h-135z" />
    <glyph glyph-name="uni0147" unicode="&#x147;" horiz-adv-x="741" 
d="M69 0v714h156l298 -479h2v479h147v-714h-157l-297 478h-2v-478h-147zM542 921l-111 -142h-130l-110 142h115l62 -81l64 81h110z" />
    <glyph glyph-name="uni0145" unicode="&#x145;" horiz-adv-x="741" 
d="M69 0v714h156l298 -479h2v479h147v-714h-157l-297 478h-2v-478h-147zM300 -143v93h145v-73c0 -84 -59 -94 -135 -94v37c32 3 50 12 57 37h-67z" />
    <glyph glyph-name="uni014C" unicode="&#x14c;" horiz-adv-x="778" 
d="M38 354c0 212 131 377 351 377s351 -165 351 -377c0 -206 -131 -371 -351 -371s-351 165 -351 371zM195 354c0 -119 53 -239 194 -239s194 120 194 239c0 125 -53 245 -194 245s-194 -120 -194 -245zM213 809v75h353v-75h-353z" />
    <glyph glyph-name="uni014E" unicode="&#x14e;" horiz-adv-x="778" 
d="M38 354c0 212 131 377 351 377s351 -165 351 -377c0 -206 -131 -371 -351 -371s-351 165 -351 371zM195 354c0 -119 53 -239 194 -239s194 120 194 239c0 125 -53 245 -194 245s-194 -120 -194 -245zM223 921h65c8 -50 59 -67 99 -67c60 0 98 20 110 67h63
c-13 -100 -78 -142 -178 -142c-96 0 -151 50 -159 142z" />
    <glyph glyph-name="uni0150" unicode="&#x150;" horiz-adv-x="778" 
d="M38 354c0 212 131 377 351 377s351 -165 351 -377c0 -206 -131 -371 -351 -371s-351 165 -351 371zM195 354c0 -119 53 -239 194 -239s194 120 194 239c0 125 -53 245 -194 245s-194 -120 -194 -245zM679 921l-149 -142h-99l91 142h157zM472 921l-149 -142h-99l91 142
h157z" />
    <glyph glyph-name="uni01FE" unicode="&#x1fe;" horiz-adv-x="778" 
d="M585 921l-154 -142h-99l96 142h157zM34 10l86 95c-56 68 -82 153 -82 249c0 212 131 377 351 377c92 0 168 -28 225 -77l80 89l50 -44l-84 -93c52 -68 80 -152 80 -252c0 -206 -131 -371 -351 -371c-92 0 -167 29 -223 76l-83 -92zM223 219l296 329
c-31 31 -73 51 -130 51c-141 0 -194 -120 -194 -245c0 -47 8 -94 28 -135zM556 490l-295 -326c31 -31 72 -49 128 -49c141 0 194 120 194 239c0 48 -8 95 -27 136z" />
    <glyph glyph-name="uni0154" unicode="&#x154;" horiz-adv-x="722" 
d="M69 0v714h385c128 0 209 -89 209 -197c0 -84 -33 -147 -113 -179v-2c77 -21 99 -95 104 -167c3 -45 2 -130 30 -169h-157c-18 45 -17 114 -25 171c-11 75 -40 108 -119 108h-157v-279h-157zM226 592v-201h172c72 0 108 30 108 102c0 69 -36 99 -108 99h-172zM532 921
l-154 -142h-99l96 142h157z" />
    <glyph glyph-name="uni0158" unicode="&#x158;" horiz-adv-x="722" 
d="M69 0v714h385c128 0 209 -89 209 -197c0 -84 -33 -147 -113 -179v-2c77 -21 99 -95 104 -167c3 -45 2 -130 30 -169h-157c-18 45 -17 114 -25 171c-11 75 -40 108 -119 108h-157v-279h-157zM226 592v-201h172c72 0 108 30 108 102c0 69 -36 99 -108 99h-172zM514 921
l-111 -142h-130l-110 142h115l62 -81l64 81h110z" />
    <glyph glyph-name="uni0156" unicode="&#x156;" horiz-adv-x="722" 
d="M69 0v714h385c128 0 209 -89 209 -197c0 -84 -33 -147 -113 -179v-2c77 -21 99 -95 104 -167c3 -45 2 -130 30 -169h-157c-18 45 -17 114 -25 171c-11 75 -40 108 -119 108h-157v-279h-157zM226 592v-201h172c72 0 108 30 108 102c0 69 -36 99 -108 99h-172zM295 -143v93
h145v-73c0 -84 -59 -94 -135 -94v37c32 3 50 12 57 37h-67z" />
    <glyph glyph-name="uni015C" unicode="&#x15c;" horiz-adv-x="649" 
d="M24 237h152c0 -95 74 -132 158 -132c55 0 139 16 139 89c0 77 -108 89 -212 118c-106 26 -213 70 -213 203c0 147 138 216 267 216c149 0 286 -65 286 -230h-152c-5 85 -65 108 -141 108c-50 0 -108 -21 -108 -81c0 -56 35 -63 213 -108c53 -13 212 -46 212 -208
c0 -131 -102 -229 -297 -229c-158 0 -307 78 -304 254zM153 779l111 142h130l110 -142h-115l-62 81l-64 -81h-110z" />
    <glyph glyph-name="uni015E" unicode="&#x15e;" horiz-adv-x="649" 
d="M194 -195l21 48c21 -9 52 -18 79 -18c30 0 45 11 45 34c0 21 -18 33 -42 33c-15 0 -25 -3 -38 -8l-21 24l48 67c-141 13 -265 91 -262 252h152c0 -95 74 -132 158 -132c55 0 139 16 139 89c0 77 -108 89 -212 118c-106 26 -213 70 -213 203c0 147 138 216 267 216
c149 0 286 -65 286 -230h-152c-5 85 -65 108 -141 108c-50 0 -108 -21 -108 -81c0 -56 35 -63 213 -108c53 -13 212 -46 212 -208c0 -131 -101 -226 -292 -229l-26 -35l2 -2c12 5 29 7 40 7c52 0 86 -28 86 -77c0 -59 -45 -93 -125 -93c-47 0 -77 7 -116 22z" />
    <glyph glyph-name="uni0218" unicode="&#x218;" horiz-adv-x="649" 
d="M24 237h152c0 -95 74 -132 158 -132c55 0 139 16 139 89c0 77 -108 89 -212 118c-106 26 -213 70 -213 203c0 147 138 216 267 216c149 0 286 -65 286 -230h-152c-5 85 -65 108 -141 108c-50 0 -108 -21 -108 -81c0 -56 35 -63 213 -108c53 -13 212 -46 212 -208
c0 -131 -102 -229 -297 -229c-158 0 -307 78 -304 254zM247 -143v93h145v-73c0 -84 -59 -94 -135 -94v37c32 3 50 12 57 37h-67z" />
    <glyph glyph-name="uni0164" unicode="&#x164;" 
d="M227 0v582h-214v132h585v-132h-214v-582h-157zM481 921l-111 -142h-130l-110 142h115l62 -81l64 81h110z" />
    <glyph glyph-name="uni0162" unicode="&#x162;" 
d="M227 0v582h-214v132h585v-132h-214v-582h-157zM233 -143v93h145v-73c0 -84 -59 -94 -135 -94v37c32 3 50 12 57 37h-67z" />
    <glyph glyph-name="uni021A" unicode="&#x21a;" 
d="M227 0v582h-214v132h585v-132h-214v-582h-157zM233 -143v93h145v-73c0 -84 -59 -94 -135 -94v37c32 3 50 12 57 37h-67z" />
    <glyph glyph-name="uni0166" unicode="&#x166;" 
d="M80 366v96h147v120h-214v132h585v-132h-214v-120h147v-96h-147v-366h-157v366h-147z" />
    <glyph glyph-name="uni0168" unicode="&#x168;" horiz-adv-x="741" 
d="M675 714v-444c0 -193 -114 -287 -305 -287c-193 0 -304 92 -304 287v444h157v-444c0 -78 20 -155 147 -155c112 0 148 48 148 155v444h157zM442 797c-61 0 -103 34 -147 34c-25 0 -38 -17 -45 -42h-63c8 59 47 122 117 122c54 0 101 -35 143 -35c24 0 36 10 43 35h64
c-13 -60 -38 -114 -112 -114z" />
    <glyph glyph-name="uni016A" unicode="&#x16a;" horiz-adv-x="741" 
d="M675 714v-444c0 -193 -114 -287 -305 -287c-193 0 -304 92 -304 287v444h157v-444c0 -78 20 -155 147 -155c112 0 148 48 148 155v444h157zM194 809v75h353v-75h-353z" />
    <glyph glyph-name="uni016C" unicode="&#x16c;" horiz-adv-x="741" 
d="M675 714v-444c0 -193 -114 -287 -305 -287c-193 0 -304 92 -304 287v444h157v-444c0 -78 20 -155 147 -155c112 0 148 48 148 155v444h157zM204 921h65c8 -50 59 -67 99 -67c60 0 98 20 110 67h63c-13 -100 -78 -142 -178 -142c-96 0 -151 50 -159 142z" />
    <glyph glyph-name="uni016E" horiz-adv-x="741" 
d="M675 714v-444c0 -193 -114 -287 -305 -287c-193 0 -304 92 -304 287v444h157v-444c0 -78 20 -155 147 -155c112 0 148 48 148 155v444h157zM487 859c0 -64 -52 -114 -117 -114c-67 0 -117 50 -117 114s52 114 117 114c67 0 117 -50 117 -114zM309 859
c0 -36 24 -63 61 -63s61 26 61 63c0 36 -24 63 -61 63s-61 -26 -61 -63z" />
    <glyph glyph-name="uni0170" unicode="&#x170;" horiz-adv-x="741" 
d="M675 714v-444c0 -193 -114 -287 -305 -287c-193 0 -304 92 -304 287v444h157v-444c0 -78 20 -155 147 -155c112 0 148 48 148 155v444h157zM660 921l-149 -142h-99l91 142h157zM453 921l-149 -142h-99l91 142h157z" />
    <glyph glyph-name="uni0172" unicode="&#x172;" horiz-adv-x="741" 
d="M442 -125l45 -26c-32 -49 -71 -66 -124 -66c-67 0 -109 32 -109 83c0 43 27 79 82 118c-172 11 -270 102 -270 286v444h157v-444c0 -78 20 -155 147 -155c112 0 148 48 148 155v444h157v-444c0 -180 -99 -274 -267 -286c-51 -53 -58 -77 -58 -103c0 -24 17 -38 37 -38
c23 0 39 13 55 32z" />
    <glyph glyph-name="uni1E82" unicode="&#x1e82;" horiz-adv-x="944" 
d="M941 714l-192 -714h-156l-121 486h-2l-119 -486h-159l-189 714h157l113 -486h2l124 486h147l122 -492h2l117 492h154zM658 921l-154 -142h-99l96 142h157z" />
    <glyph glyph-name="uni0174" unicode="&#x174;" horiz-adv-x="944" 
d="M941 714l-192 -714h-156l-121 486h-2l-119 -486h-159l-189 714h157l113 -486h2l124 486h147l122 -492h2l117 492h154zM299 779l111 142h130l110 -142h-115l-62 81l-64 -81h-110z" />
    <glyph glyph-name="uni1E84" unicode="&#x1e84;" horiz-adv-x="944" 
d="M941 714l-192 -714h-156l-121 486h-2l-119 -486h-159l-189 714h157l113 -486h2l124 486h147l122 -492h2l117 492h154zM509 788v117h135v-117h-135zM303 788v117h135v-117h-135z" />
    <glyph glyph-name="uni1E80" unicode="&#x1e80;" horiz-adv-x="944" 
d="M941 714l-192 -714h-156l-121 486h-2l-119 -486h-159l-189 714h157l113 -486h2l124 486h147l122 -492h2l117 492h154zM442 779l-154 142h157l96 -142h-99z" />
    <glyph glyph-name="uni0176" unicode="&#x176;" horiz-adv-x="667" 
d="M254 0v278l-263 436h177l167 -282l166 282h175l-265 -440v-274h-157zM162 779l111 142h130l110 -142h-115l-62 81l-64 -81h-110z" />
    <glyph glyph-name="uni1EF2" unicode="&#x1ef2;" horiz-adv-x="667" 
d="M254 0v278l-263 436h177l167 -282l166 282h175l-265 -440v-274h-157zM295 779l-154 142h157l96 -142h-99z" />
    <glyph glyph-name="uni0101" unicode="&#x101;" horiz-adv-x="574" 
d="M190 358h-142c8 132 127 173 243 173c103 0 227 -23 227 -147v-269c0 -47 5 -94 18 -115h-144c-5 16 -9 33 -10 50c-45 -47 -110 -64 -174 -64c-99 0 -176 49 -176 155c0 133 115 151 212 162c89 11 132 17 132 63c0 60 -42 70 -92 70c-56 0 -89 -22 -94 -78zM376 200v53
c-15 -15 -47 -20 -86 -25c-59 -8 -116 -17 -116 -81c0 -52 41 -66 87 -66c111 0 115 87 115 119zM118 619v75h353v-75h-353z" />
    <glyph glyph-name="uni0103" unicode="&#x103;" horiz-adv-x="574" 
d="M190 358h-142c8 132 127 173 243 173c103 0 227 -23 227 -147v-269c0 -47 5 -94 18 -115h-144c-5 16 -9 33 -10 50c-45 -47 -110 -64 -174 -64c-99 0 -176 49 -176 155c0 133 115 151 212 162c89 11 132 17 132 63c0 60 -42 70 -92 70c-56 0 -89 -22 -94 -78zM376 200v53
c-15 -15 -47 -20 -86 -25c-59 -8 -116 -17 -116 -81c0 -52 41 -66 87 -66c111 0 115 87 115 119zM128 731h65c8 -50 59 -67 99 -67c60 0 98 20 110 67h63c-13 -100 -78 -142 -178 -142c-96 0 -151 50 -159 142z" />
    <glyph glyph-name="uni01FB" unicode="&#x1fb;" horiz-adv-x="574" 
d="M463 921l-128 -119h-98l79 119h147zM295 564c-64 0 -108 44 -108 105s47 105 108 105c64 0 108 -44 108 -105s-47 -105 -108 -105zM239 669c0 -35 21 -58 56 -58s56 25 56 58c0 35 -21 58 -56 58s-56 -25 -56 -58zM190 358h-142c8 132 127 173 243 173
c103 0 227 -23 227 -147v-269c0 -47 5 -94 18 -115h-144c-5 16 -9 33 -10 50c-45 -47 -110 -64 -174 -64c-99 0 -176 49 -176 155c0 133 115 151 212 162c89 11 132 17 132 63c0 60 -42 70 -92 70c-56 0 -89 -22 -94 -78zM376 200v53c-15 -15 -47 -20 -86 -25
c-59 -8 -116 -17 -116 -81c0 -52 41 -66 87 -66c111 0 115 87 115 119z" />
    <glyph glyph-name="uni01FD" unicode="&#x1fd;" horiz-adv-x="907" 
d="M878 224h-369c-3 -68 44 -143 123 -143c64 0 94 30 103 81h138c-30 -110 -126 -176 -238 -176c-75 0 -149 25 -193 88c-48 -63 -134 -88 -211 -88c-98 0 -193 39 -193 154c0 118 88 145 173 158c121 19 174 19 174 72c0 54 -47 66 -92 66c-56 0 -96 -20 -99 -80h-142
c5 131 123 175 244 175c60 0 134 -17 171 -70c40 47 89 70 173 70c172 0 238 -147 238 -307zM509 314h227c0 64 -39 122 -111 122s-116 -58 -116 -122zM385 188v64c-52 -44 -205 -5 -205 -104c0 -52 44 -67 88 -67c52 0 117 31 117 107zM660 731l-154 -142h-99l96 142h157z
" />
    <glyph glyph-name="uni0109" unicode="&#x109;" horiz-adv-x="574" 
d="M545 335h-139c-9 59 -44 89 -105 89c-91 0 -121 -92 -121 -168c0 -75 29 -163 118 -163c68 0 104 41 113 105h137c-19 -137 -112 -212 -249 -212c-156 0 -261 110 -261 265c0 161 96 280 264 280c123 0 235 -64 243 -196zM130 589l111 142h130l110 -142h-115l-62 81
l-64 -81h-110z" />
    <glyph glyph-name="uni010D" unicode="&#x10d;" horiz-adv-x="574" 
d="M545 335h-139c-9 59 -44 89 -105 89c-91 0 -121 -92 -121 -168c0 -75 29 -163 118 -163c68 0 104 41 113 105h137c-19 -137 -112 -212 -249 -212c-156 0 -261 110 -261 265c0 161 96 280 264 280c123 0 235 -64 243 -196zM481 731l-111 -142h-130l-110 142h115l62 -81
l64 81h110z" />
    <glyph glyph-name="uni010B" unicode="&#x10b;" horiz-adv-x="574" 
d="M545 335h-139c-9 59 -44 89 -105 89c-91 0 -121 -92 -121 -168c0 -75 29 -163 118 -163c68 0 104 41 113 105h137c-19 -137 -112 -212 -249 -212c-156 0 -261 110 -261 265c0 161 96 280 264 280c123 0 235 -64 243 -196zM237 598v117h135v-117h-135z" />
    <glyph glyph-name="uni010F" unicode="&#x10f;" 
d="M423 0v66h-2c-33 -56 -89 -80 -157 -80c-156 0 -232 133 -232 277c0 139 77 268 229 268c61 0 121 -26 153 -77h2v260h142v-714h-135zM421 260c0 84 -30 164 -122 164c-93 0 -125 -81 -125 -165c0 -81 37 -166 125 -166c93 0 122 82 122 167zM784 714l-81 -142h-98
l31 142h148z" />
    <glyph glyph-name="uni0111" unicode="&#x111;" horiz-adv-x="621" 
d="M258 568v76h158v70h142v-70h81v-76h-81v-568h-135v66h-2c-33 -56 -89 -80 -157 -80c-156 0 -232 133 -232 277c0 139 77 268 229 268c61 0 121 -26 153 -77h2v114h-158zM421 260c0 84 -30 164 -122 164c-93 0 -125 -81 -125 -165c0 -81 37 -166 125 -166
c93 0 122 82 122 167z" />
    <glyph glyph-name="uni011B" unicode="&#x11b;" horiz-adv-x="574" 
d="M544 224h-373c4 -92 47 -131 127 -131c57 0 103 35 112 67h125c-40 -124 -125 -174 -242 -174c-163 0 -264 112 -264 272c0 155 107 273 264 273c176 0 262 -148 251 -307zM171 314h231c-13 72 -44 110 -113 110c-92 0 -115 -70 -118 -110zM470 731l-111 -142h-130
l-110 142h115l62 -81l64 81h110z" />
    <glyph glyph-name="uni0113" unicode="&#x113;" horiz-adv-x="574" 
d="M544 224h-373c4 -92 47 -131 127 -131c57 0 103 35 112 67h125c-40 -124 -125 -174 -242 -174c-163 0 -264 112 -264 272c0 155 107 273 264 273c176 0 262 -148 251 -307zM171 314h231c-13 72 -44 110 -113 110c-92 0 -115 -70 -118 -110zM117 619v75h353v-75h-353z" />
    <glyph glyph-name="uni0115" unicode="&#x115;" horiz-adv-x="574" 
d="M544 224h-373c4 -92 47 -131 127 -131c57 0 103 35 112 67h125c-40 -124 -125 -174 -242 -174c-163 0 -264 112 -264 272c0 155 107 273 264 273c176 0 262 -148 251 -307zM171 314h231c-13 72 -44 110 -113 110c-92 0 -115 -70 -118 -110zM127 731h65
c8 -50 59 -67 99 -67c60 0 98 20 110 67h63c-13 -100 -78 -142 -178 -142c-96 0 -151 50 -159 142z" />
    <glyph glyph-name="uni0117" unicode="&#x117;" horiz-adv-x="574" 
d="M544 224h-373c4 -92 47 -131 127 -131c57 0 103 35 112 67h125c-40 -124 -125 -174 -242 -174c-163 0 -264 112 -264 272c0 155 107 273 264 273c176 0 262 -148 251 -307zM171 314h231c-13 72 -44 110 -113 110c-92 0 -115 -70 -118 -110zM225 598v117h135v-117h-135z
" />
    <glyph glyph-name="uni011D" unicode="&#x11d;" 
d="M551 517v-484c0 -84 -31 -229 -268 -229c-102 0 -220 49 -228 166h141c13 -53 55 -71 106 -71c80 0 115 52 114 128v68h-2c-31 -55 -92 -80 -155 -80c-156 0 -221 118 -221 260c0 134 78 256 222 256c68 0 119 -23 154 -83h2v69h135zM295 122c81 0 121 69 121 143
c0 84 -29 159 -121 159c-80 0 -115 -70 -115 -147c0 -74 27 -155 115 -155zM135 589l111 142h130l110 -142h-115l-62 81l-64 -81h-110z" />
    <glyph glyph-name="uni011F" unicode="&#x11f;" 
d="M551 517v-484c0 -84 -31 -229 -268 -229c-102 0 -220 49 -228 166h141c13 -53 55 -71 106 -71c80 0 115 52 114 128v68h-2c-31 -55 -92 -80 -155 -80c-156 0 -221 118 -221 260c0 134 78 256 222 256c68 0 119 -23 154 -83h2v69h135zM295 122c81 0 121 69 121 143
c0 84 -29 159 -121 159c-80 0 -115 -70 -115 -147c0 -74 27 -155 115 -155zM143 731h65c8 -50 59 -67 99 -67c60 0 98 20 110 67h63c-13 -100 -78 -142 -178 -142c-96 0 -151 50 -159 142z" />
    <glyph glyph-name="uni0121" unicode="&#x121;" 
d="M551 517v-484c0 -84 -31 -229 -268 -229c-102 0 -220 49 -228 166h141c13 -53 55 -71 106 -71c80 0 115 52 114 128v68h-2c-31 -55 -92 -80 -155 -80c-156 0 -221 118 -221 260c0 134 78 256 222 256c68 0 119 -23 154 -83h2v69h135zM295 122c81 0 121 69 121 143
c0 84 -29 159 -121 159c-80 0 -115 -70 -115 -147c0 -74 27 -155 115 -155zM241 598v117h135v-117h-135z" />
    <glyph glyph-name="uni0123" unicode="&#x123;" 
d="M551 517v-484c0 -84 -31 -229 -268 -229c-102 0 -220 49 -228 166h141c13 -53 55 -71 106 -71c80 0 115 52 114 128v68h-2c-31 -55 -92 -80 -155 -80c-156 0 -221 118 -221 260c0 134 78 256 222 256c68 0 119 -23 154 -83h2v69h135zM295 122c81 0 121 69 121 143
c0 84 -29 159 -121 159c-80 0 -115 -70 -115 -147c0 -74 27 -155 115 -155zM380 714v-93h-145v73c0 84 59 94 135 94v-37c-32 -3 -50 -12 -57 -37h67z" />
    <glyph glyph-name="uni0125" unicode="&#x125;" horiz-adv-x="593" 
d="M54 0v714h142v-269h3c36 60 98 86 151 86c151 0 189 -85 189 -213v-318h-142v292c0 85 -23 127 -91 127c-77 0 -110 -43 -110 -148v-271h-142zM110 779l111 142h130l110 -142h-115l-62 81l-64 -81h-110z" />
    <glyph glyph-name="uni0127" unicode="&#x127;" horiz-adv-x="603" 
d="M64 0v568h-81v76h81v70h142v-70h158v-76h-158v-123h3c36 60 98 86 151 86c151 0 189 -85 189 -213v-318h-142v292c0 85 -23 127 -91 127c-77 0 -110 -43 -110 -148v-271h-142z" />
    <glyph glyph-name="uni012D" unicode="&#x12d;" horiz-adv-x="258" 
d="M58 0v517h142v-517h-142zM-37 731h65c8 -50 59 -67 99 -67c60 0 98 20 110 67h63c-13 -100 -78 -142 -178 -142c-96 0 -151 50 -159 142z" />
    <glyph glyph-name="uni0129" unicode="&#x129;" horiz-adv-x="258" 
d="M58 0v517h142v-517h-142zM201 607c-61 0 -103 34 -147 34c-25 0 -38 -17 -45 -42h-63c8 59 47 122 117 122c54 0 101 -35 143 -35c24 0 36 10 43 35h64c-13 -60 -38 -114 -112 -114z" />
    <glyph glyph-name="uni012B" unicode="&#x12b;" horiz-adv-x="258" 
d="M58 0v517h142v-517h-142zM-47 619v75h353v-75h-353z" />
    <glyph glyph-name="uni012F" unicode="&#x12f;" horiz-adv-x="258" 
d="M200 714v-117h-142v117h142zM58 0v517h142v-517c-66 -63 -77 -93 -77 -121c0 -24 13 -36 32 -36s33 11 46 28l41 -26c-31 -43 -60 -62 -109 -62c-64 0 -102 32 -102 83c0 47 35 89 107 134h-80z" />
    <glyph glyph-name="uni0237" unicode="&#x237;" horiz-adv-x="278" 
d="M-19 -178v117c7 -3 18 -4 31 -4c29 0 55 7 55 46v536h142v-543c0 -106 -39 -156 -182 -156c-15 0 -31 1 -46 4z" />
    <glyph glyph-name="uni0135" unicode="&#x135;" horiz-adv-x="278" 
d="M-19 -178v117c7 -3 18 -4 31 -4c29 0 55 7 55 46v536h142v-543c0 -106 -39 -156 -182 -156c-15 0 -31 1 -46 4zM-40 589l111 142h130l110 -142h-115l-62 81l-64 -81h-110z" />
    <glyph glyph-name="uni0137" unicode="&#x137;" horiz-adv-x="574" 
d="M67 0v714h142v-383l179 186h168l-195 -190l217 -327h-172l-142 231l-55 -53v-178h-142zM235 -143v93h145v-73c0 -84 -59 -94 -135 -94v37c32 3 50 12 57 37h-67z" />
    <glyph glyph-name="uni0138" unicode="&#x138;" horiz-adv-x="565" 
d="M54 0v517h142v-204l179 204h168l-194 -202l217 -315h-172l-140 216l-58 -56v-160h-142z" />
    <glyph glyph-name="uni013A" unicode="&#x13a;" horiz-adv-x="258" 
d="M58 0v714h142v-714h-142zM313 921l-154 -142h-99l96 142h157z" />
    <glyph glyph-name="uni013E" unicode="&#x13e;" horiz-adv-x="388" 
d="M58 0v714h142v-714h-142zM384 714v-312h-109v312h109z" />
    <glyph glyph-name="uni013C" unicode="&#x13c;" horiz-adv-x="258" 
d="M58 0v714h142v-714h-142zM56 -143v93h145v-73c0 -84 -59 -94 -135 -94v37c32 3 50 12 57 37h-67z" />
    <glyph glyph-name="uni0140" unicode="&#x140;" horiz-adv-x="410" 
d="M58 0v714h142v-714h-142zM261 333v117h135v-117h-135z" />
    <glyph glyph-name="uni0148" unicode="&#x148;" horiz-adv-x="593" 
d="M54 0v517h135v-72h3c36 60 98 86 158 86c151 0 189 -85 189 -213v-318h-142v292c0 85 -23 127 -91 127c-77 0 -110 -43 -110 -148v-271h-142zM472 731l-111 -142h-130l-110 142h115l62 -81l64 81h110z" />
    <glyph glyph-name="uni0146" unicode="&#x146;" horiz-adv-x="593" 
d="M54 0v517h135v-72h3c36 60 98 86 158 86c151 0 189 -85 189 -213v-318h-142v292c0 85 -23 127 -91 127c-77 0 -110 -43 -110 -148v-271h-142zM221 -143v93h145v-73c0 -84 -59 -94 -135 -94v37c32 3 50 12 57 37h-67z" />
    <glyph glyph-name="uni0149" unicode="&#x149;" horiz-adv-x="737" 
d="M198 0v517h135v-72h3c36 60 98 86 158 86c151 0 189 -85 189 -213v-318h-142v292c0 85 -23 127 -91 127c-77 0 -110 -43 -110 -148v-271h-142zM20 560v154h142v-153c3 -88 -59 -157 -142 -168v66c51 17 66 52 66 101h-66z" />
    <glyph glyph-name="uni014D" unicode="&#x14d;" 
d="M38 258c0 165 105 273 267 273c163 0 268 -108 268 -273c0 -164 -105 -272 -268 -272c-162 0 -267 108 -267 272zM180 258c0 -83 29 -165 125 -165c97 0 126 82 126 165s-29 166 -126 166c-96 0 -125 -83 -125 -166zM130 619v75h353v-75h-353z" />
    <glyph glyph-name="uni014F" unicode="&#x14f;" 
d="M38 258c0 165 105 273 267 273c163 0 268 -108 268 -273c0 -164 -105 -272 -268 -272c-162 0 -267 108 -267 272zM180 258c0 -83 29 -165 125 -165c97 0 126 82 126 165s-29 166 -126 166c-96 0 -125 -83 -125 -166zM140 731h65c8 -50 59 -67 99 -67c60 0 98 20 110 67
h63c-13 -100 -78 -142 -178 -142c-96 0 -151 50 -159 142z" />
    <glyph glyph-name="uni0151" unicode="&#x151;" 
d="M38 258c0 165 105 273 267 273c163 0 268 -108 268 -273c0 -164 -105 -272 -268 -272c-162 0 -267 108 -267 272zM180 258c0 -83 29 -165 125 -165c97 0 126 82 126 165s-29 166 -126 166c-96 0 -125 -83 -125 -166zM596 731l-149 -142h-99l91 142h157zM389 731
l-149 -142h-99l91 142h157z" />
    <glyph glyph-name="uni01FF" unicode="&#x1ff;" 
d="M497 731l-154 -142h-99l96 142h157zM44 1l60 68c-44 48 -66 111 -66 189c0 165 105 273 267 273c63 0 118 -16 163 -48l53 61l37 -32l-54 -61c44 -47 69 -113 69 -193c0 -164 -105 -272 -268 -272c-65 0 -120 17 -165 50l-59 -67zM195 172l193 220c-20 21 -48 32 -83 32
c-96 0 -125 -83 -125 -166c0 -31 4 -61 15 -86zM415 349l-195 -222c19 -21 46 -34 85 -34c97 0 126 82 126 165c0 32 -5 64 -16 91z" />
    <glyph glyph-name="uni0155" unicode="&#x155;" horiz-adv-x="389" 
d="M54 0v517h135v-96h2c27 65 94 110 165 110c9 0 20 -2 31 -5v-132c-13 3 -34 5 -51 5c-105 0 -140 -74 -140 -166v-233h-142zM410 731l-154 -142h-99l96 142h157z" />
    <glyph glyph-name="uni0159" unicode="&#x159;" horiz-adv-x="389" 
d="M54 0v517h135v-96h2c27 65 94 110 165 110c9 0 20 -2 31 -5v-132c-13 3 -34 5 -51 5c-105 0 -140 -74 -140 -166v-233h-142zM396 731l-111 -142h-130l-110 142h115l62 -81l64 81h110z" />
    <glyph glyph-name="uni0157" unicode="&#x157;" horiz-adv-x="389" 
d="M54 0v517h135v-96h2c27 65 94 110 165 110c9 0 20 -2 31 -5v-132c-13 3 -34 5 -51 5c-105 0 -140 -74 -140 -166v-233h-142zM53 -143v93h145v-73c0 -84 -59 -94 -135 -94v37c32 3 50 12 57 37h-67z" />
    <glyph glyph-name="uni015D" unicode="&#x15d;" horiz-adv-x="537" 
d="M29 168h135c0 -61 54 -87 109 -87c40 0 93 16 93 66c0 43 -60 59 -161 80c-83 19 -164 46 -164 138c0 132 114 166 225 166c112 0 217 -38 228 -165h-135c-4 55 -46 70 -97 70c-32 0 -79 -5 -79 -48c0 -51 81 -58 161 -77c83 -19 164 -49 164 -145
c0 -136 -119 -180 -236 -180c-120 0 -238 45 -243 182zM96 589l111 142h130l110 -142h-115l-62 81l-64 -81h-110z" />
    <glyph glyph-name="uni015F" unicode="&#x15f;" horiz-adv-x="537" 
d="M138 -195l21 48c21 -9 52 -18 79 -18c30 0 45 11 45 34c0 21 -18 33 -42 33c-15 0 -25 -3 -38 -8l-21 24l50 70c-104 8 -200 58 -203 180h135c0 -61 54 -87 109 -87c40 0 93 16 93 66c0 43 -60 59 -161 80c-83 19 -164 46 -164 138c0 132 114 166 225 166
c112 0 217 -38 228 -165h-135c-4 55 -46 70 -97 70c-32 0 -79 -5 -79 -48c0 -51 81 -58 161 -77c83 -19 164 -49 164 -145c0 -133 -114 -177 -229 -180l-28 -38l2 -2c12 5 29 7 40 7c52 0 86 -28 86 -77c0 -59 -45 -93 -125 -93c-47 0 -77 7 -116 22z" />
    <glyph glyph-name="uni0219" unicode="&#x219;" horiz-adv-x="537" 
d="M29 168h135c0 -61 54 -87 109 -87c40 0 93 16 93 66c0 43 -60 59 -161 80c-83 19 -164 46 -164 138c0 132 114 166 225 166c112 0 217 -38 228 -165h-135c-4 55 -46 70 -97 70c-32 0 -79 -5 -79 -48c0 -51 81 -58 161 -77c83 -19 164 -49 164 -145
c0 -136 -119 -180 -236 -180c-120 0 -238 45 -243 182zM192 -143v93h145v-73c0 -84 -59 -94 -135 -94v37c32 3 50 12 57 37h-67z" />
    <glyph glyph-name="uni0165" unicode="&#x165;" horiz-adv-x="352" 
d="M466 714l-81 -142h-98l31 142h148zM234 672v-155h104v-95h-104v-256c0 -48 12 -60 60 -60c16 0 31 1 44 4v-111c-24 -4 -55 -5 -83 -5c-88 0 -163 19 -163 123v305h-86v95h86v155h142z" />
    <glyph glyph-name="uni0163" unicode="&#x163;" horiz-adv-x="352" 
d="M234 672v-155h104v-95h-104v-256c0 -48 12 -60 60 -60c16 0 31 1 44 4v-111c-24 -4 -55 -5 -83 -5c-88 0 -163 19 -163 123v305h-86v95h86v155h142zM104 -195l21 48c21 -9 49 -18 84 -18c24 0 40 10 40 34c0 25 -17 32 -40 32c-15 0 -28 -2 -40 -7l-21 24l59 84h49
l-39 -54h2c8 3 19 5 34 5c45 0 92 -21 92 -70c0 -78 -58 -100 -117 -100c-64 0 -86 8 -124 22z" />
    <glyph glyph-name="uni021B" unicode="&#x21b;" horiz-adv-x="352" 
d="M234 672v-155h104v-95h-104v-256c0 -48 12 -60 60 -60c16 0 31 1 44 4v-111c-24 -4 -55 -5 -83 -5c-88 0 -163 19 -163 123v305h-86v95h86v155h142zM141 -143v93h145v-73c0 -84 -59 -94 -135 -94v37c32 3 50 12 57 37h-67z" />
    <glyph glyph-name="uni0167" unicode="&#x167;" horiz-adv-x="352" 
d="M234 672v-155h104v-95h-104v-81h92v-76h-92v-99c0 -48 12 -60 60 -60c16 0 31 1 44 4v-111c-24 -4 -55 -5 -83 -5c-88 0 -163 19 -163 123v148h-78v76h78v81h-86v95h86v155h142z" />
    <glyph glyph-name="uni0169" unicode="&#x169;" horiz-adv-x="593" 
d="M539 517v-517h-135v72h-3c-36 -60 -98 -86 -158 -86c-151 0 -189 85 -189 213v318h142v-292c0 -85 23 -127 91 -127c77 0 110 43 110 148v271h142zM370 607c-61 0 -103 34 -147 34c-25 0 -38 -17 -45 -42h-63c8 59 47 122 117 122c54 0 101 -35 143 -35c24 0 36 10 43 35
h64c-13 -60 -38 -114 -112 -114z" />
    <glyph glyph-name="uni016B" unicode="&#x16b;" horiz-adv-x="593" 
d="M539 517v-517h-135v72h-3c-36 -60 -98 -86 -158 -86c-151 0 -189 85 -189 213v318h142v-292c0 -85 23 -127 91 -127c77 0 110 43 110 148v271h142zM123 619v75h353v-75h-353z" />
    <glyph glyph-name="uni016D" unicode="&#x16d;" horiz-adv-x="593" 
d="M539 517v-517h-135v72h-3c-36 -60 -98 -86 -158 -86c-151 0 -189 85 -189 213v318h142v-292c0 -85 23 -127 91 -127c77 0 110 43 110 148v271h142zM132 731h65c8 -50 59 -67 99 -67c60 0 98 20 110 67h63c-13 -100 -78 -142 -178 -142c-96 0 -151 50 -159 142z" />
    <glyph glyph-name="uni016F" unicode="&#x16f;" horiz-adv-x="593" 
d="M539 517v-517h-135v72h-3c-36 -60 -98 -86 -158 -86c-151 0 -189 85 -189 213v318h142v-292c0 -85 23 -127 91 -127c77 0 110 43 110 148v271h142zM176 684c0 69 54 120 123 120c71 0 122 -51 122 -120s-54 -120 -123 -120c-71 0 -122 51 -122 120zM362 684
c0 39 -24 67 -63 67s-64 -28 -64 -67s24 -67 63 -67s64 28 64 67z" />
    <glyph glyph-name="uni0171" unicode="&#x171;" horiz-adv-x="593" 
d="M539 517v-517h-135v72h-3c-36 -60 -98 -86 -158 -86c-151 0 -189 85 -189 213v318h142v-292c0 -85 23 -127 91 -127c77 0 110 43 110 148v271h142zM588 731l-149 -142h-99l91 142h157zM381 731l-149 -142h-99l91 142h157z" />
    <glyph glyph-name="uni0173" unicode="&#x173;" horiz-adv-x="593" 
d="M539 517v-517h-65c-58 -58 -66 -90 -66 -118c0 -25 17 -39 38 -39c23 0 39 13 55 32l45 -26c-32 -49 -71 -66 -124 -66c-67 0 -109 33 -109 84c0 48 31 86 91 133v72h-3c-36 -60 -98 -86 -158 -86c-151 0 -189 85 -189 213v318h142v-292c0 -85 23 -127 91 -127
c77 0 110 43 110 148v271h142z" />
    <glyph glyph-name="uni1E83" unicode="&#x1e83;" horiz-adv-x="814" 
d="M808 517l-163 -517h-146l-92 347h-2l-88 -347h-147l-164 517h150l95 -351h2l86 351h138l88 -350h2l95 350h146zM594 731l-154 -142h-99l96 142h157z" />
    <glyph glyph-name="uni0175" unicode="&#x175;" horiz-adv-x="814" 
d="M808 517l-163 -517h-146l-92 347h-2l-88 -347h-147l-164 517h150l95 -351h2l86 351h138l88 -350h2l95 350h146zM234 589l111 142h130l110 -142h-115l-62 81l-64 -81h-110z" />
    <glyph glyph-name="uni1E85" unicode="&#x1e85;" horiz-adv-x="814" 
d="M808 517l-163 -517h-146l-92 347h-2l-88 -347h-147l-164 517h150l95 -351h2l86 351h138l88 -350h2l95 350h146zM444 598v117h135v-117h-135zM238 598v117h135v-117h-135z" />
    <glyph glyph-name="uni1E81" unicode="&#x1e81;" horiz-adv-x="814" 
d="M808 517l-163 -517h-146l-92 347h-2l-88 -347h-147l-164 517h150l95 -351h2l86 351h138l88 -350h2l95 350h146zM376 589l-154 142h157l96 -142h-99z" />
    <glyph glyph-name="uni0177" unicode="&#x177;" horiz-adv-x="519" 
d="M525 517l-216 -582c-31 -84 -81 -117 -178 -117c-29 0 -58 2 -87 5v117c23 -3 48 -5 76 -5c37 0 62 26 62 65c0 11 -2 22 -6 32l-182 485h152l117 -354h2l113 354h147zM91 589l111 142h130l110 -142h-115l-62 81l-64 -81h-110z" />
    <glyph glyph-name="uni1EF3" unicode="&#x1ef3;" horiz-adv-x="519" 
d="M525 517l-216 -582c-31 -84 -81 -117 -178 -117c-29 0 -58 2 -87 5v117c23 -3 48 -5 76 -5c37 0 62 26 62 65c0 11 -2 22 -6 32l-182 485h152l117 -354h2l113 354h147zM227 589l-154 142h157l96 -142h-99z" />
    <glyph glyph-name="uni0132" unicode="&#x132;" horiz-adv-x="845" 
d="M69 0v714h157v-714h-157zM303 204v62h142v-32c0 -69 17 -119 91 -119c83 0 83 66 83 117v482h157v-489c0 -92 -25 -242 -238 -242c-119 0 -235 65 -235 221z" />
    <glyph glyph-name="uni0133" unicode="&#x133;" horiz-adv-x="524" 
d="M200 714v-117h-142v117h142zM58 0v517h142v-517h-142zM455 714v-117h-142v117h142zM227 -178v117c7 -3 18 -4 31 -4c29 0 55 7 55 46v536h142v-543c0 -106 -39 -156 -182 -156c-15 0 -31 1 -46 4z" />
    <glyph glyph-name="uniFB00" unicode="&#xfb00;" horiz-adv-x="636" 
d="M388 0v422h-161v-422h-142v422h-85v95h85v40c0 92 57 157 173 157c25 0 51 -3 75 -4v-106c-17 2 -35 3 -52 3c-39 0 -54 -16 -54 -59v-31h161v40c0 92 57 157 173 157c25 0 51 -3 75 -4v-106c-17 2 -35 3 -52 3c-39 0 -54 -16 -54 -59v-31h98v-95h-98v-422h-142z" />
    <glyph glyph-name="uniFB03" unicode="&#xfb03;" horiz-adv-x="894" 
d="M388 0v422h-161v-422h-142v422h-85v95h85v40c0 92 57 157 173 157c25 0 51 -3 75 -4v-106c-17 2 -35 3 -52 3c-39 0 -54 -16 -54 -59v-31h161v40c0 92 57 157 173 157c25 0 51 -3 75 -4v-106c-17 2 -35 3 -52 3c-39 0 -54 -16 -54 -59v-31h98v-95h-98v-422h-142zM836 714
v-117h-142v117h142zM694 0v517h142v-517h-142z" />
    <glyph glyph-name="uniFB04" unicode="&#xfb04;" horiz-adv-x="894" 
d="M388 0v422h-161v-422h-142v422h-85v95h85v40c0 92 57 157 173 157c25 0 51 -3 75 -4v-106c-17 2 -35 3 -52 3c-39 0 -54 -16 -54 -59v-31h161v40c0 92 57 157 173 157c25 0 51 -3 75 -4v-106c-17 2 -35 3 -52 3c-39 0 -54 -16 -54 -59v-31h98v-95h-98v-422h-142zM694 0
v714h142v-714h-142z" />
    <glyph glyph-name="uniE000" horiz-adv-x="259" 
d="M106 779l-154 142h157l96 -142h-99z" />
    <glyph glyph-name="uniE002" horiz-adv-x="259" 
d="M308 921l-154 -142h-99l96 142h157z" />
    <glyph glyph-name="uniE004" horiz-adv-x="259" 
d="M-46 779l111 142h130l110 -142h-115l-62 81l-64 -81h-110z" />
    <glyph glyph-name="uniE006" horiz-adv-x="259" 
d="M305 921l-111 -142h-130l-110 142h115l62 -81l64 81h110z" />
    <glyph glyph-name="uniE008" horiz-adv-x="259" 
d="M266 714l-81 -142h-98l31 142h148z" />
    <glyph glyph-name="uniE009" horiz-adv-x="259" 
d="M201 797c-61 0 -103 34 -147 34c-25 0 -38 -17 -45 -42h-63c8 59 47 122 117 122c54 0 101 -35 143 -35c24 0 36 10 43 35h64c-13 -60 -38 -114 -112 -114z" />
    <glyph glyph-name="uniE00B" horiz-adv-x="259" 
d="M165 788v117h135v-117h-135zM-41 788v117h135v-117h-135z" />
    <glyph glyph-name="uniE00D" horiz-adv-x="259" 
d="M-47 809v75h353v-75h-353z" />
    <glyph glyph-name="uni02C9" unicode="&#x2c9;" horiz-adv-x="259" 
d="M-47 619v75h353v-75h-353z" />
    <glyph glyph-name="uniE00F" horiz-adv-x="259" 
d="M-39 921h65c8 -50 59 -67 99 -67c60 0 98 20 110 67h63c-13 -100 -78 -142 -178 -142c-96 0 -151 50 -159 142z" />
    <glyph glyph-name="uniE011" horiz-adv-x="259" 
d="M247 859c0 -64 -52 -114 -117 -114c-67 0 -117 50 -117 114s52 114 117 114c67 0 117 -50 117 -114zM69 859c0 -36 24 -63 61 -63s61 26 61 63c0 36 -24 63 -61 63s-61 -26 -61 -63z" />
    <glyph glyph-name="uniE013" horiz-adv-x="259" 
d="M399 921l-149 -142h-99l91 142h157zM192 921l-149 -142h-99l91 142h157z" />
    <glyph glyph-name="uniE015" horiz-adv-x="259" 
d="M62 788v117h135v-117h-135z" />
    <glyph glyph-name="uniE017" horiz-adv-x="278" 
d="M75 -143v93h145v-73c0 -84 -59 -94 -135 -94v37c32 3 50 12 57 37h-67z" />
    <glyph glyph-name="uniE01A" horiz-adv-x="278" 
d="M214 714v-93h-145v73c0 84 59 94 135 94v-37c-32 -3 -50 -12 -57 -37h67z" />
    <glyph glyph-name="uni00AD" unicode="&#xad;" horiz-adv-x="407" 
d="M53 212v122h301v-122h-301z" />
    <glyph glyph-name="uni2219" unicode="&#x2219;" horiz-adv-x="278" 
d="M55 287c0 48 40 85 85 85c44 0 84 -37 84 -85c0 -43 -39 -84 -83 -84c-47 0 -86 38 -86 84z" />
    <glyph glyph-name="uni2215" unicode="&#x2215;" horiz-adv-x="167" 
d="M-166 -22l414 744h85l-412 -744h-87z" />
    <glyph glyph-name="uni2153" unicode="&#x2153;" horiz-adv-x="834" 
d="M130 -22l414 744h85l-412 -744h-87zM247 703v-423h-102v268h-110v72h22c60 0 98 23 106 83h84zM610 189v69h26c41 0 64 20 64 49s-19 49 -58 49c-41 0 -62 -22 -62 -66h-95c4 89 62 142 161 142c88 0 146 -42 146 -113c0 -39 -22 -72 -66 -88c57 -11 83 -50 83 -106
c0 -81 -74 -134 -170 -134c-109 0 -164 59 -164 139h96c5 -36 24 -60 71 -60c45 0 73 24 73 59c0 43 -24 60 -77 60h-28z" />
    <glyph glyph-name="uni215B" unicode="&#x215b;" horiz-adv-x="834" 
d="M130 -22l414 744h85l-412 -744h-87zM247 703v-423h-102v268h-110v72h22c60 0 98 23 106 83h84zM493 315c0 69 61 117 149 117c101 0 149 -49 149 -113c0 -43 -26 -77 -70 -90c57 -15 88 -51 88 -106c0 -85 -78 -132 -166 -132c-98 0 -168 43 -168 131c0 55 36 92 88 104
c-47 15 -70 46 -70 89zM583 309c0 -31 24 -51 59 -51c37 0 58 20 58 51c0 33 -22 53 -58 53c-39 0 -59 -21 -59 -53zM570 127c0 -43 30 -63 73 -63c47 0 70 21 70 63c0 39 -28 64 -71 64c-45 0 -72 -24 -72 -64z" />
    <glyph glyph-name="uni2154" unicode="&#x2154;" horiz-adv-x="834" 
d="M180 -22l414 744h85l-412 -744h-87zM333 360v-80h-314c0 100 30 143 101 188l72 45c39 23 50 43 50 72c0 27 -19 50 -52 50c-47 0 -61 -31 -64 -76h-100c0 89 58 153 165 153c99 0 152 -50 152 -127c0 -60 -34 -95 -95 -132l-68 -42c-27 -16 -43 -36 -46 -51h199z
M624 189v69h26c41 0 64 20 64 49s-19 49 -58 49c-41 0 -62 -22 -62 -66h-95c4 89 62 142 161 142c88 0 146 -42 146 -113c0 -39 -22 -72 -66 -88c57 -11 83 -50 83 -106c0 -81 -74 -134 -170 -134c-109 0 -164 59 -164 139h96c5 -36 24 -60 71 -60c45 0 73 24 73 59
c0 43 -24 60 -77 60h-28z" />
    <glyph glyph-name="uni215C" unicode="&#x215c;" horiz-adv-x="834" 
d="M171 -22l414 744h85l-412 -744h-87zM157 469v69h26c41 0 64 20 64 49s-19 49 -58 49c-41 0 -62 -22 -62 -66h-95c4 89 62 142 161 142c88 0 146 -42 146 -113c0 -39 -22 -72 -66 -88c57 -11 83 -50 83 -106c0 -81 -74 -134 -170 -134c-109 0 -164 59 -164 139h96
c5 -36 24 -60 71 -60c45 0 73 24 73 59c0 43 -24 60 -77 60h-28zM498 315c0 69 61 117 149 117c101 0 149 -49 149 -113c0 -43 -26 -77 -70 -90c57 -15 88 -51 88 -106c0 -85 -78 -132 -166 -132c-98 0 -168 43 -168 131c0 55 36 92 88 104c-47 15 -70 46 -70 89zM588 309
c0 -31 24 -51 59 -51c37 0 58 20 58 51c0 33 -22 53 -58 53c-39 0 -59 -21 -59 -53zM575 127c0 -43 30 -63 73 -63c47 0 70 21 70 63c0 39 -28 64 -71 64c-45 0 -72 -24 -72 -64z" />
    <glyph glyph-name="uni215D" unicode="&#x215d;" horiz-adv-x="834" 
d="M169 -22l414 744h85l-412 -744h-87zM335 703v-77h-181l-16 -86c19 19 47 27 82 27c85 0 135 -58 135 -139c0 -96 -67 -157 -167 -157c-89 0 -152 48 -156 125h94c7 -28 29 -46 65 -46c39 0 69 25 69 76c0 45 -21 73 -66 73c-27 0 -48 -14 -59 -31h-93l37 235h256z
M498 315c0 69 61 117 149 117c101 0 149 -49 149 -113c0 -43 -26 -77 -70 -90c57 -15 88 -51 88 -106c0 -85 -78 -132 -166 -132c-98 0 -168 43 -168 131c0 55 36 92 88 104c-47 15 -70 46 -70 89zM588 309c0 -31 24 -51 59 -51c37 0 58 20 58 51c0 33 -22 53 -58 53
c-39 0 -59 -21 -59 -53zM575 127c0 -43 30 -63 73 -63c47 0 70 21 70 63c0 39 -28 64 -71 64c-45 0 -72 -24 -72 -64z" />
    <glyph glyph-name="uni215E" unicode="&#x215e;" horiz-adv-x="834" 
d="M120 -22l414 744h85l-412 -744h-87zM353 703v-77c-91 -80 -129 -230 -132 -346h-110c11 139 58 242 141 342h-199v81h300zM483 315c0 69 61 117 149 117c101 0 149 -49 149 -113c0 -43 -26 -77 -70 -90c57 -15 88 -51 88 -106c0 -85 -78 -132 -166 -132
c-98 0 -168 43 -168 131c0 55 36 92 88 104c-47 15 -70 46 -70 89zM573 309c0 -31 24 -51 59 -51c37 0 58 20 58 51c0 33 -22 53 -58 53c-39 0 -59 -21 -59 -53zM560 127c0 -43 30 -63 73 -63c47 0 70 21 70 63c0 39 -28 64 -71 64c-45 0 -72 -24 -72 -64z" />
    <glyph glyph-name="uni0394" unicode="&#x394;" horiz-adv-x="681" 
d="M-7 0l269 714h161l265 -714h-695zM340 538l-142 -406h282l-138 406h-2z" />
    <glyph glyph-name="uni03BC" unicode="&#x3bc;" horiz-adv-x="593" 
d="M539 517v-517h-135v72h-3c-44 -67 -87 -86 -130 -86c-35 0 -56 9 -75 24v-192h-142v699h142v-292c0 -85 23 -127 91 -127c77 0 110 43 110 148v271h142z" />
    <glyph glyph-name="uni2113" unicode="&#x2113;" horiz-adv-x="500" 
d="M409 125l47 -72c-53 -45 -111 -67 -172 -67c-105 0 -164 62 -164 147v41l-55 -48h-2l-49 75l105 86v238c0 112 76 196 180 196c92 0 151 -59 151 -150c0 -103 -63 -197 -192 -306v-110c0 -51 30 -68 61 -68c25 0 55 13 88 38h2zM337 563c0 37 -16 66 -39 66
s-40 -31 -40 -78v-169c56 60 79 121 79 181z" />
    <glyph glyph-name="uni212E" unicode="&#x212e;" horiz-adv-x="770" 
d="M726 349h-533v-238c52 -51 115 -78 191 -78c109 0 188 47 255 159l46 -28c-80 -125 -163 -178 -301 -178c-207 0 -340 161 -340 363c0 205 133 365 340 365c203 0 342 -150 342 -365zM193 398h384v191c-56 53 -121 79 -194 79c-76 0 -138 -28 -190 -79v-191z" />
    <glyph glyph-name="uni014B" unicode="&#x14b;" horiz-adv-x="593" 
d="M289 -178v117c15 -3 30 -4 45 -4c35 0 63 19 63 64v293c0 85 -23 127 -91 127c-77 0 -110 -43 -110 -148v-271h-142v517h135v-72h3c36 60 98 86 158 86c151 0 189 -85 189 -213v-324c0 -113 -43 -176 -192 -176c-15 0 -35 1 -58 4z" />
    <glyph glyph-name="uni014A" unicode="&#x14a;" horiz-adv-x="741" 
d="M69 0v714h156l298 -471h2v471h147v-715c0 -120 -50 -181 -199 -181c-22 0 -47 2 -76 6v121c24 -4 43 -6 58 -6c40 0 71 18 72 61l-309 478h-2v-478h-147z" />
    <glyph glyph-name="uniF001" horiz-adv-x="591" 
d="M533 714v-117h-142v117h142zM85 0v422h-85v95h85v40c0 92 57 157 173 157c25 0 51 -3 75 -4v-106c-17 2 -35 3 -52 3c-39 0 -54 -16 -54 -59v-31h98v-95h-98v-422h-142zM391 0v517h142v-517h-142z" />
    <glyph glyph-name="uniF002" horiz-adv-x="591" 
d="M391 0v714h142v-714h-142zM85 0v422h-85v95h85v40c0 92 57 157 173 157c25 0 51 -3 75 -4v-106c-17 2 -35 3 -52 3c-39 0 -54 -16 -54 -59v-31h98v-95h-98v-422h-142z" />
    <glyph glyph-name="uni2010" unicode="&#x2010;" horiz-adv-x="407" 
d="M53 212v122h301v-122h-301z" />
    <glyph glyph-name="uni2015" unicode="&#x2015;" horiz-adv-x="1000" 
d="M70 212v122h860v-122h-860z" />
    <glyph glyph-name="uni203D" unicode="&#x203d;" horiz-adv-x="556" 
d="M336 714v-59c128 -15 188 -79 188 -170c0 -147 -162 -165 -170 -271h-124l-23 308v24c-35 -15 -46 -43 -47 -79h-127c1 91 54 163 174 184v63h129zM383 477c0 33 -12 59 -47 72v-27l-24 -163l23 21c27 24 48 53 48 97zM216 0v154h157v-154h-157z" />
    <glyph glyph-name="uni2070" unicode="&#x2070;" horiz-adv-x="390" 
d="M195 388c-96 0 -166 56 -166 219c0 165 74 222 166 222c96 0 166 -54 166 -218c0 -166 -74 -223 -166 -223zM195 752c-44 0 -66 -33 -66 -145c0 -108 21 -142 66 -142c44 0 66 33 66 146c0 109 -21 141 -66 141z" />
    <glyph glyph-name="uni2074" unicode="&#x2074;" horiz-adv-x="390" 
d="M211 397v83h-188v84l193 256h91v-264h57v-76h-57v-83h-96zM211 556v154l-113 -154h113z" />
    <glyph glyph-name="uni2075" unicode="&#x2075;" horiz-adv-x="390" 
d="M335 820v-77h-181l-16 -86c19 19 47 27 82 27c85 0 135 -58 135 -139c0 -96 -67 -157 -167 -157c-89 0 -152 48 -156 125h94c7 -28 29 -46 65 -46c39 0 69 25 69 76c0 45 -21 73 -66 73c-27 0 -48 -14 -59 -31h-93l37 235h256z" />
    <glyph glyph-name="uni2076" unicode="&#x2076;" horiz-adv-x="390" 
d="M349 722h-95c-6 23 -22 34 -49 34c-55 0 -76 -52 -77 -117c25 29 57 41 100 41c76 0 131 -51 131 -139c0 -91 -65 -153 -156 -153c-120 0 -171 81 -171 209c0 132 51 232 175 232c80 0 131 -32 142 -107zM199 611c-47 0 -69 -30 -69 -75c0 -43 25 -72 68 -72
c39 0 67 23 67 71c0 43 -19 76 -66 76z" />
    <glyph glyph-name="uni2077" unicode="&#x2077;" horiz-adv-x="390" 
d="M344 820v-77c-91 -80 -129 -230 -132 -346h-110c11 139 58 242 141 342h-199v81h300z" />
    <glyph glyph-name="uni2078" unicode="&#x2078;" horiz-adv-x="390" 
d="M46 712c0 69 61 117 149 117c101 0 149 -49 149 -113c0 -43 -26 -77 -70 -90c57 -15 88 -51 88 -106c0 -85 -78 -132 -166 -132c-98 0 -168 43 -168 131c0 55 36 92 88 104c-47 15 -70 46 -70 89zM136 706c0 -31 24 -51 59 -51c37 0 58 20 58 51c0 33 -22 53 -58 53
c-39 0 -59 -21 -59 -53zM123 524c0 -43 30 -63 73 -63c47 0 70 21 70 63c0 39 -28 64 -71 64c-45 0 -72 -24 -72 -64z" />
    <glyph glyph-name="uni2079" unicode="&#x2079;" horiz-adv-x="390" 
d="M41 495h95c6 -23 23 -34 51 -34c56 0 75 47 75 118c-23 -26 -56 -39 -98 -39c-76 0 -133 49 -133 137c0 91 65 152 156 152c120 0 171 -81 171 -209c0 -137 -49 -232 -173 -232c-80 0 -133 32 -144 107zM191 608c47 0 69 31 69 74s-25 72 -68 72c-39 0 -67 -24 -67 -71
c0 -41 19 -75 66 -75z" />
    <glyph glyph-name="uni207A" unicode="&#x207a;" horiz-adv-x="400" 
d="M243 709v-117h116v-77h-116v-118h-86v118h-116v77h116v117h86z" />
    <glyph glyph-name="uni207B" unicode="&#x207b;" horiz-adv-x="270" 
d="M39 520v84h192v-84h-192z" />
    <glyph glyph-name="uni207C" unicode="&#x207c;" horiz-adv-x="400" 
d="M359 657v-77h-318v77h318zM359 524v-77h-318v77h318z" />
    <glyph glyph-name="uni207D" unicode="&#x207d;" horiz-adv-x="225" 
d="M122 876h83c-47 -87 -64 -181 -64 -277c0 -100 21 -194 64 -281h-83c-59 84 -85 178 -85 275c0 91 26 203 85 283z" />
    <glyph glyph-name="uni207E" unicode="&#x207e;" horiz-adv-x="225" 
d="M103 318h-83c47 87 64 181 64 277c0 100 -21 194 -64 281h83c59 -84 85 -178 85 -275c0 -92 -26 -202 -85 -283z" />
    <glyph glyph-name="uni207F" unicode="&#x207f;" horiz-adv-x="390" 
d="M40 397v319h97v-47c25 41 62 56 105 56c75 0 108 -47 108 -127v-201h-102v181c0 43 -12 69 -47 69c-36 0 -59 -28 -59 -76v-174h-102z" />
    <glyph glyph-name="uni2080" unicode="&#x2080;" horiz-adv-x="390" 
d="M195 -178c-96 0 -166 56 -166 219c0 165 74 222 166 222c96 0 166 -54 166 -218c0 -166 -74 -223 -166 -223zM195 186c-44 0 -66 -33 -66 -145c0 -108 21 -142 66 -142c44 0 66 33 66 146c0 109 -21 141 -66 141z" />
    <glyph glyph-name="uni2081" unicode="&#x2081;" horiz-adv-x="390" 
d="M269 254v-423h-102v268h-110v72h22c60 0 98 23 106 83h84z" />
    <glyph glyph-name="uni2082" unicode="&#x2082;" horiz-adv-x="390" 
d="M354 -89v-80h-321c0 100 30 143 101 188l72 45c39 23 50 43 50 72c0 27 -19 50 -52 50c-47 0 -61 -31 -64 -76h-100c0 89 58 153 165 153c99 0 152 -50 152 -127c0 -60 -34 -95 -95 -132l-68 -42c-27 -16 -43 -36 -46 -51h206z" />
    <glyph glyph-name="uni2083" unicode="&#x2083;" horiz-adv-x="390" 
d="M162 20v69h26c41 0 64 20 64 49s-19 49 -58 49c-41 0 -62 -22 -62 -66h-95c4 89 62 142 161 142c88 0 146 -42 146 -113c0 -39 -22 -72 -66 -88c57 -11 83 -50 83 -106c0 -81 -74 -134 -170 -134c-109 0 -164 59 -164 139h96c5 -36 24 -60 71 -60c45 0 73 24 73 59
c0 43 -24 60 -77 60h-28z" />
    <glyph glyph-name="uni2084" unicode="&#x2084;" horiz-adv-x="390" 
d="M211 -169v83h-188v84l193 256h91v-264h57v-76h-57v-83h-96zM211 -10v154l-113 -154h113z" />
    <glyph glyph-name="uni2085" unicode="&#x2085;" horiz-adv-x="390" 
d="M335 254v-77h-181l-16 -86c19 19 47 27 82 27c85 0 135 -58 135 -139c0 -96 -67 -157 -167 -157c-89 0 -152 48 -156 125h94c7 -28 29 -46 65 -46c39 0 69 25 69 76c0 45 -21 73 -66 73c-27 0 -48 -14 -59 -31h-93l37 235h256z" />
    <glyph glyph-name="uni2086" unicode="&#x2086;" horiz-adv-x="390" 
d="M349 156h-95c-6 23 -22 34 -49 34c-55 0 -76 -52 -77 -117c25 29 57 41 100 41c76 0 131 -51 131 -139c0 -91 -65 -153 -156 -153c-120 0 -171 81 -171 209c0 132 51 232 175 232c80 0 131 -32 142 -107zM199 45c-47 0 -69 -30 -69 -75c0 -43 25 -72 68 -72
c39 0 67 23 67 71c0 43 -19 76 -66 76z" />
    <glyph glyph-name="uni2087" unicode="&#x2087;" horiz-adv-x="390" 
d="M344 254v-77c-91 -80 -129 -230 -132 -346h-110c11 139 58 242 141 342h-199v81h300z" />
    <glyph glyph-name="uni2088" unicode="&#x2088;" horiz-adv-x="390" 
d="M46 146c0 69 61 117 149 117c101 0 149 -49 149 -113c0 -43 -26 -77 -70 -90c57 -15 88 -51 88 -106c0 -85 -78 -132 -166 -132c-98 0 -168 43 -168 131c0 55 36 92 88 104c-47 15 -70 46 -70 89zM136 140c0 -31 24 -51 59 -51c37 0 58 20 58 51c0 33 -22 53 -58 53
c-39 0 -59 -21 -59 -53zM123 -42c0 -43 30 -63 73 -63c47 0 70 21 70 63c0 39 -28 64 -71 64c-45 0 -72 -24 -72 -64z" />
    <glyph glyph-name="uni2089" unicode="&#x2089;" horiz-adv-x="390" 
d="M41 -71h95c6 -23 23 -34 51 -34c56 0 75 47 75 118c-23 -26 -56 -39 -98 -39c-76 0 -133 49 -133 137c0 91 65 152 156 152c120 0 171 -81 171 -209c0 -137 -49 -232 -173 -232c-80 0 -133 32 -144 107zM191 42c47 0 69 31 69 74s-25 72 -68 72c-39 0 -67 -24 -67 -71
c0 -41 19 -75 66 -75z" />
    <glyph glyph-name="uni208A" unicode="&#x208a;" horiz-adv-x="400" 
d="M243 143v-117h116v-77h-116v-118h-86v118h-116v77h116v117h86z" />
    <glyph glyph-name="uni208B" unicode="&#x208b;" horiz-adv-x="270" 
d="M39 -46v84h192v-84h-192z" />
    <glyph glyph-name="uni208C" unicode="&#x208c;" horiz-adv-x="400" 
d="M359 91v-77h-318v77h318zM359 -42v-77h-318v77h318z" />
    <glyph glyph-name="uni208D" unicode="&#x208d;" horiz-adv-x="225" 
d="M122 310h83c-47 -87 -64 -181 -64 -277c0 -100 21 -194 64 -281h-83c-59 84 -85 178 -85 275c0 91 26 203 85 283z" />
    <glyph glyph-name="uni208E" unicode="&#x208e;" horiz-adv-x="225" 
d="M103 -248h-83c47 87 64 181 64 277c0 100 -21 194 -64 281h83c59 -84 85 -178 85 -275c0 -92 -26 -202 -85 -283z" />
    <glyph glyph-name="uni2105" unicode="&#x2105;" horiz-adv-x="834" 
d="M167 -22l414 744h85l-412 -744h-87zM355 576h-100c-7 48 -27 60 -52 60c-45 0 -61 -41 -61 -145c0 -103 22 -140 61 -140c29 0 51 21 55 70h98c-11 -92 -63 -148 -152 -148c-107 0 -165 68 -165 217c0 156 61 224 168 224c88 0 143 -45 148 -138zM638 -14
c-96 0 -166 56 -166 219c0 165 74 222 166 222c96 0 166 -54 166 -218c0 -166 -74 -223 -166 -223zM638 350c-44 0 -66 -33 -66 -145c0 -108 21 -142 66 -142c44 0 66 33 66 146c0 109 -21 141 -66 141z" />
    <glyph glyph-name="uni2117" unicode="&#x2117;" horiz-adv-x="800" 
d="M16 358c0 227 181 373 384 373s384 -146 384 -373c0 -228 -181 -375 -384 -375s-384 147 -384 375zM118 358c0 -171 125 -295 282 -295c155 0 282 124 282 295c0 170 -127 293 -282 293c-157 0 -282 -123 -282 -293zM260 149v419h162c107 0 160 -43 160 -130
c0 -83 -57 -130 -145 -130h-92v-159h-85zM345 503v-130h82c45 0 72 24 72 65c0 40 -26 65 -73 65h-81z" />
    <glyph glyph-name="uni0374" unicode="&#x374;" horiz-adv-x="278" 
d="M249 732l-94 -171h-102l43 171h153z" />
    <glyph glyph-name="uni0375" unicode="&#x375;" horiz-adv-x="278" 
d="M26 -203l89 171h102l-38 -171h-153z" />
    <glyph glyph-name="uni037E" unicode="&#x37e;" horiz-adv-x="278" 
d="M218 508v-154h-157v154h157zM61 0v154h157v-154c0 -92 -71 -153 -156 -166v72c41 8 74 49 71 94h-72z" />
    <glyph glyph-name="uni0384" unicode="&#x384;" horiz-adv-x="241" 
d="M63 589l30 142h162l-74 -142h-118z" />
    <glyph glyph-name="uniE01B" horiz-adv-x="241" 
d="M63 572l30 142h162l-74 -142h-118z" />
    <glyph glyph-name="uni0385" unicode="&#x385;" horiz-adv-x="512" 
d="M175 589l26 142h152l-67 -142h-111zM359 598v117h125v-117h-125zM28 598v117h125v-117h-125z" />
    <glyph glyph-name="uni0386" unicode="&#x386;" horiz-adv-x="722" 
d="M30 0l271 714h161l267 -714h-163l-54 159h-267l-56 -159h-159zM286 276h185l-90 262h-2zM14 572l30 142h162l-74 -142h-118z" />
    <glyph glyph-name="uni0387" unicode="&#x387;" horiz-adv-x="278" 
d="M218 508v-154h-157v154h157z" />
    <glyph glyph-name="uni0388" unicode="&#x388;" horiz-adv-x="844" 
d="M14 572l30 142h162l-74 -142h-118zM265 0v714h534v-132h-377v-153h346v-122h-346v-175h385v-132h-542z" />
    <glyph glyph-name="uni0389" unicode="&#x389;" horiz-adv-x="937" 
d="M14 572l30 142h162l-74 -142h-118zM265 0v714h157v-274h289v274h157v-714h-157v308h-289v-308h-157z" />
    <glyph glyph-name="uni038A" unicode="&#x38a;" horiz-adv-x="491" 
d="M14 572l30 142h162l-74 -142h-118zM265 0v714h157v-714h-157z" />
    <glyph glyph-name="uni038C" unicode="&#x38c;" horiz-adv-x="928" 
d="M188 354c0 212 131 377 351 377s351 -165 351 -377c0 -206 -131 -371 -351 -371s-351 165 -351 371zM345 354c0 -119 53 -239 194 -239s194 120 194 239c0 125 -53 245 -194 245s-194 -120 -194 -245zM14 572l30 142h162l-74 -142h-118z" />
    <glyph glyph-name="uni038E" unicode="&#x38e;" horiz-adv-x="924" 
d="M511 0v278l-263 436h177l167 -282l166 282h175l-265 -440v-274h-157zM14 572l30 142h162l-74 -142h-118z" />
    <glyph glyph-name="uni038F" unicode="&#x38f;" horiz-adv-x="929" 
d="M542 599c-115 0 -192 -75 -192 -215c0 -124 51 -197 146 -266v-118h-306v128h137v5c-79 48 -134 135 -134 260c0 192 146 338 349 338c205 0 349 -134 349 -338c0 -124 -65 -212 -140 -260v-5h141v-128h-305v118c99 67 147 141 147 266c0 140 -75 215 -192 215zM14 572
l30 142h162l-74 -142h-118z" />
    <glyph glyph-name="uni0390" unicode="&#x390;" horiz-adv-x="280" 
d="M203 517v-381c0 -29 11 -43 33 -43c11 0 20 2 32 5v-91c-33 -16 -59 -21 -92 -21c-77 0 -115 38 -115 113v418h142zM74 589l26 142h152l-67 -142h-111zM258 598v117h125v-117h-125zM-73 598v117h125v-117h-125z" />
    <glyph glyph-name="uni0391" unicode="&#x391;" horiz-adv-x="685" 
d="M-7 0l271 714h161l267 -714h-163l-54 159h-267l-56 -159h-159zM249 276h185l-90 262h-2z" />
    <glyph glyph-name="uni0392" unicode="&#x392;" horiz-adv-x="704" 
d="M69 0v714h336c136 0 228 -44 228 -177c0 -72 -33 -118 -97 -149c88 -25 131 -92 131 -181c0 -145 -123 -207 -252 -207h-346zM226 425h159c56 0 96 25 96 85c0 67 -52 82 -108 82h-147v-167zM226 122h168c61 0 116 20 116 94c0 73 -45 102 -113 102h-171v-196z" />
    <glyph glyph-name="uni0393" unicode="&#x393;" horiz-adv-x="571" 
d="M69 0v714h489v-132h-332v-582h-157z" />
    <glyph glyph-name="uni0395" unicode="&#x395;" horiz-adv-x="648" 
d="M69 0v714h534v-132h-377v-153h346v-122h-346v-175h385v-132h-542z" />
    <glyph glyph-name="uni0396" unicode="&#x396;" horiz-adv-x="648" 
d="M23 0v124l383 458h-353v132h562v-124l-383 -458h393v-132h-602z" />
    <glyph glyph-name="uni0397" unicode="&#x397;" horiz-adv-x="741" 
d="M69 0v714h157v-274h289v274h157v-714h-157v308h-289v-308h-157z" />
    <glyph glyph-name="uni0398" unicode="&#x398;" horiz-adv-x="778" 
d="M38 354c0 212 131 377 351 377s351 -165 351 -377c0 -206 -131 -371 -351 -371s-351 165 -351 371zM195 354c0 -119 53 -239 194 -239s194 120 194 239c0 125 -53 245 -194 245s-194 -120 -194 -245zM275 304v122h231v-122h-231z" />
    <glyph glyph-name="uni0399" unicode="&#x399;" horiz-adv-x="295" 
d="M69 0v714h157v-714h-157z" />
    <glyph glyph-name="uni039A" unicode="&#x39a;" horiz-adv-x="722" 
d="M69 0v714h157v-296l279 296h196l-279 -282l306 -432h-197l-215 321l-90 -91v-230h-157z" />
    <glyph glyph-name="uni039B" unicode="&#x39b;" horiz-adv-x="665" 
d="M-7 0l261 714h161l257 -714h-163l-175 538h-2l-180 -538h-159z" />
    <glyph glyph-name="uni039C" unicode="&#x39c;" horiz-adv-x="907" 
d="M69 0v714h221l167 -491h2l158 491h221v-714h-147v506h-2l-175 -506h-121l-175 501h-2v-501h-147z" />
    <glyph glyph-name="uni039D" unicode="&#x39d;" horiz-adv-x="741" 
d="M69 0v714h156l298 -479h2v479h147v-714h-157l-297 478h-2v-478h-147z" />
    <glyph glyph-name="uni039E" unicode="&#x39e;" horiz-adv-x="623" 
d="M50 582v132h523v-132h-523zM99 306v132h425v-132h-425zM41 0v132h541v-132h-541z" />
    <glyph glyph-name="uni039F" unicode="&#x39f;" horiz-adv-x="778" 
d="M38 354c0 212 131 377 351 377s351 -165 351 -377c0 -206 -131 -371 -351 -371s-351 165 -351 371zM195 354c0 -119 53 -239 194 -239s194 120 194 239c0 125 -53 245 -194 245s-194 -120 -194 -245z" />
    <glyph glyph-name="uni03A0" unicode="&#x3a0;" horiz-adv-x="753" 
d="M69 0v714h615v-714h-157v582h-301v-582h-157z" />
    <glyph glyph-name="uni03A1" unicode="&#x3a1;" horiz-adv-x="667" 
d="M69 0v714h322c179 0 247 -113 247 -229s-68 -229 -247 -229h-165v-256h-157zM226 592v-214h122c72 0 138 16 138 107s-66 107 -138 107h-122z" />
    <glyph glyph-name="uni03A3" unicode="&#x3a3;" horiz-adv-x="648" 
d="M615 0h-578v130l225 240l-213 214v130h550v-131h-347l204 -209v-2l-222 -240h381v-132z" />
    <glyph glyph-name="uni03A4" unicode="&#x3a4;" 
d="M227 0v582h-214v132h585v-132h-214v-582h-157z" />
    <glyph glyph-name="uni03A5" unicode="&#x3a5;" horiz-adv-x="667" 
d="M254 0v278l-263 436h177l167 -282l166 282h175l-265 -440v-274h-157z" />
    <glyph glyph-name="uni03A6" unicode="&#x3a6;" horiz-adv-x="815" 
d="M330 749h157v-70c179 -8 292 -109 292 -304c0 -189 -116 -292 -292 -300v-75h-157v75c-179 8 -293 100 -293 296c0 199 117 300 293 308v70zM487 563v-371c89 3 135 53 135 183c0 131 -46 185 -135 188zM330 191v372c-92 -3 -137 -63 -137 -192c0 -131 46 -177 137 -180z
" />
    <glyph glyph-name="uni03A7" unicode="&#x3a7;" horiz-adv-x="667" 
d="M-6 0l250 374l-230 340h182l140 -228l145 228h172l-229 -341l249 -373h-187l-156 247l-159 -247h-177z" />
    <glyph glyph-name="uni03A8" unicode="&#x3a8;" horiz-adv-x="841" 
d="M342 271v443h157v-442c96 0 133 47 133 167v275h158v-277c0 -175 -92 -270 -291 -283v-154h-157v154c-208 9 -291 104 -291 283v277h158v-275c0 -119 36 -167 133 -168z" />
    <glyph glyph-name="uni03AA" unicode="&#x3aa;" horiz-adv-x="296" 
d="M182 788v117h135v-117h-135zM-24 788v117h135v-117h-135zM69 0v714h157v-714h-157z" />
    <glyph glyph-name="uni03AB" unicode="&#x3ab;" horiz-adv-x="657" 
d="M372 788v117h135v-117h-135zM166 788v117h135v-117h-135zM254 0v278l-263 436h177l167 -282l166 282h175l-265 -440v-274h-157z" />
    <glyph glyph-name="uni03AC" unicode="&#x3ac;" horiz-adv-x="618" 
d="M401 517h142v-381c0 -31 13 -43 32 -43c9 0 20 2 31 5v-91c-27 -14 -56 -21 -86 -21c-49 0 -100 24 -115 80h-2c-27 -49 -73 -80 -150 -80c-145 0 -221 140 -221 275c0 131 69 270 229 270c56 0 107 -28 138 -76h2v62zM406 259c0 81 -34 165 -110 165
c-96 0 -122 -91 -122 -167s36 -164 119 -164c84 0 113 87 113 166zM244 589l30 142h162l-74 -142h-118z" />
    <glyph glyph-name="uni03AD" unicode="&#x3ad;" horiz-adv-x="515" 
d="M205 589l30 142h162l-74 -142h-118zM486 364h-138c-7 44 -41 63 -86 63c-53 0 -80 -23 -80 -63c0 -29 20 -50 63 -50h65v-90h-68c-49 0 -73 -21 -73 -64c0 -47 36 -70 93 -70c60 0 98 18 106 86h137c-21 -136 -107 -190 -254 -190c-139 0 -225 60 -225 160
c0 57 34 97 94 116v4c-53 19 -75 58 -75 106c0 99 96 159 220 159c125 0 204 -51 221 -167z" />
    <glyph glyph-name="uni03AE" unicode="&#x3ae;" horiz-adv-x="593" 
d="M54 0v517h135v-72h3c36 60 98 86 158 86c151 0 189 -85 189 -213v-499h-142v473c0 85 -23 127 -91 127c-77 0 -110 -43 -110 -148v-271h-142zM246 589l30 142h162l-74 -142h-118z" />
    <glyph glyph-name="uni03AF" unicode="&#x3af;" horiz-adv-x="273" 
d="M196 517v-381c0 -29 11 -43 33 -43c11 0 20 2 32 5v-91c-33 -16 -59 -21 -92 -21c-77 0 -115 38 -115 113v418h142zM63 589l30 142h162l-74 -142h-118z" />
    <glyph glyph-name="uni03B0" unicode="&#x3b0;" horiz-adv-x="568" 
d="M57 517h142v-324c0 -68 29 -100 84 -100c75 0 110 55 110 180c0 67 -19 167 -64 244h147c45 -79 59 -177 59 -242c0 -174 -88 -289 -252 -289c-151 0 -226 64 -226 192v339zM199 589l26 142h152l-67 -142h-111zM383 598v117h125v-117h-125zM52 598v117h125v-117h-125z
" />
    <glyph glyph-name="uni03B1" unicode="&#x3b1;" horiz-adv-x="618" 
d="M401 517h142v-381c0 -31 13 -43 32 -43c9 0 20 2 31 5v-91c-27 -14 -56 -21 -86 -21c-49 0 -100 24 -115 80h-2c-27 -49 -73 -80 -150 -80c-145 0 -221 140 -221 275c0 131 69 270 229 270c56 0 107 -28 138 -76h2v62zM406 259c0 81 -34 165 -110 165
c-96 0 -122 -91 -122 -167s36 -164 119 -164c84 0 113 87 113 166z" />
    <glyph glyph-name="uni03B2" unicode="&#x3b2;" horiz-adv-x="588" 
d="M54 -182v672c0 161 78 232 230 232c161 0 223 -81 223 -174c0 -64 -36 -117 -100 -128v-3c102 -16 150 -105 150 -196c0 -163 -94 -235 -207 -235c-79 0 -128 37 -153 76h-1v-244h-142zM318 351h-54v90h26c51 0 76 31 76 92c0 51 -27 80 -82 80c-65 0 -95 -36 -95 -135
v-204c0 -125 45 -182 116 -182c55 0 110 33 110 124c0 100 -33 135 -97 135z" />
    <glyph glyph-name="uni03B3" unicode="&#x3b3;" horiz-adv-x="508" 
d="M353 517h145c-35 -237 -125 -413 -192 -520l1 -179h-143v141c0 154 -87 428 -159 558h151c43 -75 90 -253 101 -358h5c42 81 75 220 91 358z" />
    <glyph glyph-name="uni03B4" unicode="&#x3b4;" horiz-adv-x="592" 
d="M36 249c0 113 60 195 177 230c-76 44 -97 86 -97 125c0 63 45 118 199 118c49 0 123 -8 176 -33v-106c-64 29 -135 35 -176 35c-31 0 -53 -6 -53 -23c0 -22 43 -44 90 -73c97 -62 204 -135 204 -275c0 -124 -77 -261 -253 -261c-172 0 -267 116 -267 263zM179 249
c0 -109 51 -156 124 -156c68 0 111 54 111 154c0 72 -30 128 -117 179c-83 -19 -118 -80 -118 -177z" />
    <glyph glyph-name="uni03B5" unicode="&#x3b5;" horiz-adv-x="515" 
d="M486 364h-138c-7 44 -41 63 -86 63c-53 0 -80 -23 -80 -63c0 -29 20 -50 63 -50h65v-90h-68c-49 0 -73 -21 -73 -64c0 -47 36 -70 93 -70c60 0 98 18 106 86h137c-21 -136 -107 -190 -254 -190c-139 0 -225 60 -225 160c0 57 34 97 94 116v4c-53 19 -75 58 -75 106
c0 99 96 159 220 159c125 0 204 -51 221 -167z" />
    <glyph glyph-name="uni03B6" unicode="&#x3b6;" horiz-adv-x="474" 
d="M345 -66c0 35 -6 66 -44 66h-32c-148 0 -231 106 -231 262c0 151 72 272 241 344h-198v108h393v-93c-213 -85 -294 -199 -294 -359c0 -100 40 -147 128 -147h24c106 0 140 -72 140 -155c0 -33 -4 -75 -15 -114h-124c9 36 12 69 12 88z" />
    <glyph glyph-name="uni03B7" unicode="&#x3b7;" horiz-adv-x="593" 
d="M54 0v517h135v-72h3c36 60 98 86 158 86c151 0 189 -85 189 -213v-499h-142v473c0 85 -23 127 -91 127c-77 0 -110 -43 -110 -148v-271h-142z" />
    <glyph glyph-name="uni03B8" unicode="&#x3b8;" horiz-adv-x="575" 
d="M287 722c190 0 252 -144 252 -367c0 -220 -64 -369 -252 -369c-190 0 -251 154 -251 369c0 216 64 367 251 367zM182 416h210c0 136 -29 199 -105 199c-80 0 -105 -64 -105 -199zM287 94c79 0 106 50 106 215h-212c0 -165 30 -215 106 -215z" />
    <glyph glyph-name="uni03B9" unicode="&#x3b9;" horiz-adv-x="273" 
d="M196 517v-381c0 -29 11 -43 33 -43c11 0 20 2 32 5v-91c-33 -16 -59 -21 -92 -21c-77 0 -115 38 -115 113v418h142z" />
    <glyph glyph-name="uni03BA" unicode="&#x3ba;" horiz-adv-x="567" 
d="M54 0v517h142v-207l184 207h168l-198 -207l221 -310h-172l-145 212l-58 -56v-156h-142z" />
    <glyph glyph-name="uni03BB" unicode="&#x3bb;" horiz-adv-x="551" 
d="M519 93c11 0 20 1 32 5v-91c-27 -15 -55 -21 -80 -21c-63 0 -94 26 -109 73l-85 270h-3l-117 -329h-152l207 478l-41 98c-13 31 -35 36 -66 36c-16 0 -32 -2 -49 -7v106c31 9 63 11 91 11c92 0 130 -38 167 -138l177 -466c8 -21 16 -25 28 -25z" />
    <glyph glyph-name="uni03BD" unicode="&#x3bd;" horiz-adv-x="530" 
d="M374 517h141c-28 -179 -88 -349 -175 -517h-158l-177 517h149l113 -364h3c51 104 88 232 104 364z" />
    <glyph glyph-name="uni03BE" unicode="&#x3be;" horiz-adv-x="465" 
d="M299 115h27c106 0 139 -72 139 -155c0 -33 -4 -75 -15 -114h-124c9 36 12 69 12 88c0 44 -9 66 -52 66h-28c-147 0 -222 84 -222 200c0 88 44 157 144 180v2c-91 13 -123 77 -123 138c0 128 99 202 232 202c51 0 105 -9 161 -33v-106c-55 20 -104 31 -145 31
c-68 0 -106 -34 -106 -94c0 -68 35 -95 130 -95h88v-102h-91c-108 0 -148 -27 -148 -103s45 -105 121 -105z" />
    <glyph glyph-name="uni03BF" unicode="&#x3bf;" 
d="M38 258c0 165 105 273 267 273c163 0 268 -108 268 -273c0 -164 -105 -272 -268 -272c-162 0 -267 108 -267 272zM180 258c0 -83 29 -165 125 -165c97 0 126 82 126 165s-29 166 -126 166c-96 0 -125 -83 -125 -166z" />
    <glyph glyph-name="uni03C1" unicode="&#x3c1;" horiz-adv-x="597" 
d="M54 -182v439c0 176 90 274 251 274c180 0 261 -135 261 -274c0 -127 -63 -271 -226 -271c-49 0 -109 24 -142 77h-2v-245h-142zM424 263c0 91 -41 161 -119 161c-65 0 -114 -60 -114 -165c0 -92 40 -166 117 -166c83 0 116 79 116 170z" />
    <glyph glyph-name="uni03C2" unicode="&#x3c2;" horiz-adv-x="547" 
d="M303 115h38c106 0 140 -72 140 -155c0 -33 -4 -75 -15 -114h-124c9 36 12 69 12 88c0 35 -6 66 -44 66h-43c-132 0 -231 86 -231 262c0 131 81 269 263 269c112 0 204 -56 231 -173h-138c-16 49 -52 66 -93 66c-92 0 -121 -88 -121 -162c0 -101 48 -147 125 -147z" />
    <glyph glyph-name="uni03C3" unicode="&#x3c3;" horiz-adv-x="598" 
d="M36 258c0 152 104 259 281 259h278v-107h-129c51 -24 84 -92 84 -152c0 -125 -71 -272 -255 -272c-166 0 -259 121 -259 272zM178 258c0 -113 48 -165 117 -165c73 0 113 61 113 165c0 76 -15 124 -54 152h-32c-81 0 -144 -37 -144 -152z" />
    <glyph glyph-name="uni03C4" unicode="&#x3c4;" horiz-adv-x="499" 
d="M311 410v-272c0 -36 22 -44 47 -44c15 0 28 2 40 5v-91c-32 -16 -59 -22 -102 -22c-84 0 -127 33 -127 113v311h-164v107h490v-107h-184z" />
    <glyph glyph-name="uni03C5" unicode="&#x3c5;" horiz-adv-x="572" 
d="M54 517h142v-324c0 -68 29 -100 84 -100c75 0 110 55 110 180c0 67 -19 167 -64 244h147c45 -79 59 -177 59 -242c0 -174 -88 -289 -252 -289c-151 0 -226 64 -226 192v339z" />
    <glyph glyph-name="uni03C6" unicode="&#x3c6;" horiz-adv-x="754" 
d="M449 660v-129c164 -5 271 -108 271 -268c0 -175 -113 -274 -271 -277v-168h-142v168c-156 3 -271 96 -271 275c0 160 107 265 271 270v129h142zM449 426v-331c84 0 129 51 129 168c0 101 -41 163 -129 163zM307 93v331c-85 0 -129 -62 -129 -163c0 -117 48 -168 129 -168
z" />
    <glyph glyph-name="uni03C7" unicode="&#x3c7;" horiz-adv-x="537" 
d="M341 198l196 -379h-162l-110 250l-105 -250h-160l195 374l-178 324h162l91 -200l89 200h158z" />
    <glyph glyph-name="uni03C8" unicode="&#x3c8;" horiz-adv-x="726" 
d="M492 517h146c35 -70 50 -170 50 -242c0 -171 -100 -286 -257 -289v-168h-142v167c-169 5 -235 102 -235 257v275h142v-268c0 -76 14 -152 93 -157v567h142v-567c76 3 115 72 115 181c0 75 -19 174 -54 244z" />
    <glyph glyph-name="uni03C9" unicode="&#x3c9;" horiz-adv-x="760" 
d="M307 200v172h143v-173c0 -72 14 -107 53 -107c59 0 79 61 79 152c0 97 -27 185 -94 273h149c67 -88 87 -178 87 -279c0 -132 -62 -252 -208 -252c-69 0 -115 29 -140 88c-31 -61 -64 -88 -139 -88c-153 0 -201 121 -201 251c0 89 17 181 87 280h149
c-72 -96 -94 -193 -94 -274c0 -90 19 -151 77 -151c40 0 52 36 52 108z" />
    <glyph glyph-name="uni03CA" unicode="&#x3ca;" horiz-adv-x="280" 
d="M203 517v-381c0 -29 11 -43 33 -43c11 0 20 2 32 5v-91c-33 -16 -59 -21 -92 -21c-77 0 -115 38 -115 113v418h142zM173 598v117h135v-117h-135zM-33 598v117h135v-117h-135z" />
    <glyph glyph-name="uni03CB" unicode="&#x3cb;" horiz-adv-x="575" 
d="M57 517h142v-324c0 -68 29 -100 84 -100c75 0 110 55 110 180c0 67 -19 167 -64 244h147c45 -79 59 -177 59 -242c0 -174 -88 -289 -252 -289c-151 0 -226 64 -226 192v339zM310 598v117h135v-117h-135zM104 598v117h135v-117h-135z" />
    <glyph glyph-name="uni03CC" unicode="&#x3cc;" 
d="M244 589l30 142h162l-74 -142h-118zM38 258c0 165 105 273 267 273c163 0 268 -108 268 -273c0 -164 -105 -272 -268 -272c-162 0 -267 108 -267 272zM180 258c0 -83 29 -165 125 -165c97 0 126 82 126 165s-29 166 -126 166c-96 0 -125 -83 -125 -166z" />
    <glyph glyph-name="uni03CD" unicode="&#x3cd;" horiz-adv-x="575" 
d="M215 589l30 142h162l-74 -142h-118zM57 517h142v-324c0 -68 29 -100 84 -100c75 0 110 55 110 180c0 67 -19 167 -64 244h147c45 -79 59 -177 59 -242c0 -174 -88 -289 -252 -289c-151 0 -226 64 -226 192v339z" />
    <glyph glyph-name="uni03CE" unicode="&#x3ce;" horiz-adv-x="760" 
d="M307 200v172h143v-173c0 -72 14 -107 53 -107c59 0 79 61 79 152c0 97 -27 185 -94 273h149c67 -88 87 -178 87 -279c0 -132 -62 -252 -208 -252c-69 0 -115 29 -140 88c-31 -61 -64 -88 -139 -88c-153 0 -201 121 -201 251c0 89 17 181 87 280h149
c-72 -96 -94 -193 -94 -274c0 -90 19 -151 77 -151c40 0 52 36 52 108zM319 589l30 142h162l-74 -142h-118z" />
    <glyph glyph-name="uni02BB" unicode="&#x2bb;" horiz-adv-x="278" 
d="M67 452v103c0 100 49 153 137 172v-51c-34 -10 -56 -28 -67 -55c-7 -14 -9 -27 -8 -40h77v-129h-139z" />
    <glyph glyph-name="uni02BC" unicode="&#x2bc;" horiz-adv-x="278" 
d="M67 443v51c32 10 54 27 66 51c7 15 9 29 8 44h-77v128h140v-103c0 -97 -50 -154 -137 -171z" />
    <glyph glyph-name="uni20A3" unicode="&#x20a3;" horiz-adv-x="556" 
d="M546 699v-125h-327v-139h281v-123h-281v-105h151v-109h-151v-98h-137v98h-82v109h82v492h464z" />
    <glyph glyph-name="uni01F5" unicode="&#x1f5;" 
d="M410 269c0 100 -46 154 -118 154c-49 0 -82 -23 -101 -69c-10 -24 -15 -54 -15 -90c0 -31 5 -58 16 -82c19 -45 52 -68 101 -68c65 0 117 47 117 155zM329 533c33 -14 61 -40 82 -77v76h135v-505c0 -69 -12 -120 -35 -155c-39 -60 -115 -90 -228 -90
c-136 0 -229 53 -238 160h151c4 -17 10 -28 19 -35c15 -13 41 -19 76 -19c50 0 84 17 101 50c11 21 16 57 16 108v35c-13 -23 -28 -41 -43 -52c-27 -21 -63 -31 -108 -31c-68 0 -123 24 -164 72s-61 113 -61 195c0 79 20 145 59 199s95 81 168 81c27 0 50 -4 70 -12z
M291 772h155l-148 -146h-101z" />
    <glyph glyph-name="uni0326" unicode="&#x326;" horiz-adv-x="0" 
d="M-372 -338v51c32 10 54 27 66 51c7 15 9 29 8 44h-77v128h140v-103c0 -99 -50 -155 -137 -171z" />
    <glyph glyph-name="uni03F3" unicode="&#x3f3;" horiz-adv-x="257" 
d="M49 715h140v-125h-140v125zM49 -5v20v510h140v-489c0 -19 0 -35 1 -51c0 -55 -5 -79 -33 -102c-28 -24 -79 -30 -128 -30c-12 0 -20 0 -25 1v102c45 -2 44 27 45 39z" />
    <glyph glyph-name="uni017F" unicode="&#x17f;" horiz-adv-x="333" 
d="M227 572v-143v-429h-139v429h-78v98h76v35c0 57 10 96 29 117c21 32 69 48 146 48c17 0 29 0 53 -3v-113c-7 1 -20 1 -39 2c-36 1 -48 -20 -48 -41z" />
    <glyph glyph-name="uni0258" unicode="&#x258;" horiz-adv-x="556" 
d="M169 319h216c-9 69 -44 113 -108 113c-60 0 -104 -38 -108 -113zM69 443c47 72 119 103 208 103c75 0 135 -25 182 -74s70 -119 70 -211c0 -99 -26 -170 -78 -214c-51 -43 -111 -65 -179 -65c-82 0 -146 26 -191 78c-29 33 -46 65 -50 96h142c8 -15 17 -27 26 -36
c18 -17 41 -25 70 -25c27 0 50 7 69 20c32 21 49 59 51 113h-365c-1 45 1 80 5 105c6 42 19 79 40 110z" />
    <glyph glyph-name="uni0254" unicode="&#x254;" horiz-adv-x="556" 
d="M34 185h143c3 -20 9 -38 20 -54c15 -21 40 -32 73 -32c47 0 79 23 96 70c9 25 13 58 13 99c0 39 -4 70 -13 94c-17 44 -48 66 -94 66c-65 0 -89 -39 -94 -95h-142c3 43 19 83 46 121c43 61 108 91 193 91c86 0 149 -25 189 -76c41 -51 61 -117 61 -198
c0 -183 -95 -290 -252 -290c-67 0 -121 15 -164 45c-42 30 -67 83 -75 159z" />
    <glyph glyph-name="uni0250" unicode="&#x250;" horiz-adv-x="556" 
d="M197 321v-51c17 11 32 17 64 22l31 6c29 5 50 12 63 19c21 13 32 32 32 59c0 48 -29 68 -68 68c-30 0 -58 -9 -83 -27c-25 -17 -38 -49 -39 -96zM329 210l-47 -5c-26 -3 -44 -8 -55 -13c-20 -8 -30 -21 -30 -39c0 -44 30 -58 89 -58c33 0 56 8 70 25c10 12 16 28 19 48
h135c-3 -46 -16 -84 -39 -114c-37 -47 -100 -71 -190 -71c-58 0 -110 12 -155 35s-68 67 -68 131v244c0 17 0 37 -1 62c-1 36 -10 44 -29 53v20h152c8 -21 11 -38 12 -62c19 21 42 38 67 53c30 17 64 26 101 26c97 0 167 -58 167 -158c0 -65 -25 -113 -76 -142
c-27 -16 -68 -28 -122 -35z" />
    <glyph glyph-name="uni0309" unicode="&#x309;" horiz-adv-x="0" 
d="M-318 739c-7 7 -11 9 -32 10h-25l-2 39c13 1 33 3 46 3c33 0 67 -8 88 -39c5 -8 11 -23 11 -39c0 -26 -15 -55 -64 -66l-7 -21h-68l4 37c53 4 63 25 63 46c0 12 -5 22 -14 30z" />
    <glyph glyph-name="uni0305" unicode="&#x305;" horiz-adv-x="0" 
d="M-479 635v74h348v-74h-348z" />
    <glyph glyph-name="uni0311" unicode="&#x311;" horiz-adv-x="0" 
d="M-305 750c100 0 160 -46 168 -146h-66c-4 30 -20 51 -47 62c-15 6 -33 9 -55 9s-41 -3 -56 -9c-27 -11 -42 -32 -47 -62h-66c9 100 69 146 169 146z" />
    <glyph glyph-name="uni031B" unicode="&#x31b;" horiz-adv-x="0" 
d="M-479 443l47 27c21 6 42 8 65 5c22 -2 48 4 77 19l-42 73l126 73l75 -131l-109 -63c-39 -21 -88 -40 -135 -29c-49 11 -95 11 -104 26z" />
    <glyph glyph-name="uni0312" unicode="&#x312;" horiz-adv-x="0" 
d="M-375 452v103c0 100 49 153 137 172v-51c-33 -10 -56 -28 -67 -55c-6 -14 -8 -27 -7 -40h76v-129h-139z" />
    <glyph glyph-name="uni0313" unicode="&#x313;" horiz-adv-x="0" 
d="M-372 443v51c32 10 54 27 66 51c7 15 9 29 8 44h-77v128h140v-103c0 -97 -50 -154 -137 -171z" />
    <glyph glyph-name="uni0315" unicode="&#x315;" horiz-adv-x="0" 
d="M-372 443v51c32 10 54 27 66 51c7 15 9 29 8 44h-77v128h140v-103c0 -97 -50 -154 -137 -171z" />
    <glyph glyph-name="uni0314" unicode="&#x314;" horiz-adv-x="0" 
d="M-375 624v103h139v-129h-76c-1 -13 1 -26 7 -40c11 -27 34 -45 67 -55v-51c-88 17 -137 72 -137 172z" />
    <glyph glyph-name="uni030F" unicode="&#x30f;" horiz-adv-x="0" 
d="M-377 750l72 -143h-95l-120 143h143zM-305 750h142l73 -143h-96z" />
    <glyph glyph-name="uni030D" unicode="&#x30d;" horiz-adv-x="0" 
d="M-342 712h74v-152h-74v152z" />
    <glyph glyph-name="uni030E" unicode="&#x30e;" horiz-adv-x="0" 
d="M-423 712h74v-152h-74v152zM-262 712h74v-152h-74v152z" />
    <glyph glyph-name="uni0310" unicode="&#x310;" horiz-adv-x="0" 
d="M-305 604c-100 0 -160 46 -169 146h66c5 -30 20 -50 47 -61c15 -6 34 -9 56 -9s40 3 55 9c27 11 43 31 47 61h66c-8 -100 -68 -146 -168 -146zM-370 761v115h127v-115h-127z" />
    <glyph glyph-name="uni0316" unicode="&#x316;" horiz-adv-x="0" 
d="M-274 -31l93 -146h-100l-148 146h155z" />
    <glyph glyph-name="uni0317" unicode="&#x317;" horiz-adv-x="0" 
d="M-336 -31h155l-148 -146h-101z" />
    <glyph glyph-name="uni0320" unicode="&#x320;" horiz-adv-x="0" 
d="M-479 -146v74h348v-74h-348z" />
    <glyph glyph-name="uni0323" unicode="&#x323;" horiz-adv-x="0" 
d="M-369 -168v116h127v-116h-127z" />
    <glyph glyph-name="uni0324" unicode="&#x324;" horiz-adv-x="0" 
d="M-271 -168v116h127v-116h-127zM-466 -168v116h127v-116h-127z" />
    <glyph glyph-name="uni0325" unicode="&#x325;" horiz-adv-x="0" 
d="M-305 -134c32 0 57 25 57 57s-25 58 -57 58s-58 -26 -58 -58s26 -57 58 -57zM-305 30c59 0 106 -48 106 -107s-47 -106 -106 -106s-107 47 -107 106c0 29 11 55 32 76s46 31 75 31z" />
    <glyph glyph-name="uni0329" unicode="&#x329;" horiz-adv-x="0" 
d="M-342 -69h74v-152h-74v152z" />
    <glyph glyph-name="uni032C" unicode="&#x32c;" horiz-adv-x="0" 
d="M-242 -177h-125l-115 146h113l64 -83l64 83h113z" />
    <glyph glyph-name="uni032D" unicode="&#x32d;" horiz-adv-x="0" 
d="M-242 -31l114 -146h-113l-64 82l-64 -82h-113l115 146h125z" />
    <glyph glyph-name="uni032E" unicode="&#x32e;" horiz-adv-x="0" 
d="M-305 -177c-100 0 -160 46 -169 146h66c5 -30 20 -50 47 -61c15 -7 34 -10 56 -10s40 3 55 10c27 11 43 31 47 61h66c-8 -100 -68 -146 -168 -146z" />
    <glyph glyph-name="uni032F" unicode="&#x32f;" horiz-adv-x="0" 
d="M-305 -31c100 0 160 -46 168 -146h-66c-4 30 -20 50 -47 61c-15 7 -33 10 -55 10s-41 -3 -56 -10c-27 -11 -42 -31 -47 -61h-66c9 100 69 146 169 146z" />
    <glyph glyph-name="uni0330" unicode="&#x330;" horiz-adv-x="0" 
d="M-320 -57l46 -17c27 -9 30 -11 41 -11c31 0 41 19 46 42h65c-11 -68 -44 -121 -111 -121c-10 0 -24 3 -43 8l-31 9l-39 13c-11 4 -21 5 -32 5c-12 0 -22 -4 -30 -11s-14 -17 -17 -30h-63c7 33 16 59 28 76c21 31 51 46 92 46c19 0 36 -5 48 -9z" />
    <glyph glyph-name="uni0331" unicode="&#x331;" horiz-adv-x="0" 
d="M-459 -146v74h308v-74h-308z" />
    <glyph glyph-name="uni0332" unicode="&#x332;" horiz-adv-x="0" 
d="M-479 -146v74h348v-74h-348z" />
    <glyph glyph-name="uni0334" unicode="&#x334;" horiz-adv-x="0" 
d="M-320 333l46 -17c27 -8 30 -10 41 -10c31 0 41 19 46 42h65c-11 -69 -44 -121 -111 -121c-10 0 -24 2 -43 7l-31 9l-39 13c-11 4 -21 6 -32 6c-12 0 -22 -4 -30 -11s-14 -18 -17 -31h-63c7 34 16 59 28 76c21 31 51 47 92 47c19 0 36 -5 48 -10z" />
    <glyph glyph-name="uni0335" unicode="&#x335;" horiz-adv-x="0" 
d="M-479 245v74h348v-74h-348z" />
    <glyph glyph-name="uni0336" unicode="&#x336;" horiz-adv-x="0" 
d="M-479 245v74h348v-74h-348z" />
    <glyph glyph-name="uni0333" unicode="&#x333;" horiz-adv-x="0" 
d="M-479 -146v74h348v-74h-348zM-479 -292v74h348v-74h-348z" />
    <glyph glyph-name="uni033E" unicode="&#x33e;" horiz-adv-x="0" 
d="M-337 644l-17 45c-5 12 -10 31 -10 48c0 41 16 72 47 93c17 11 42 20 76 27v-63c-13 -3 -24 -9 -31 -17c-7 -7 -11 -17 -11 -30c0 -11 2 -20 6 -32l13 -39l9 -31c5 -19 7 -33 7 -43c0 -67 -52 -99 -121 -111v65c23 5 42 15 42 47c0 9 -2 13 -10 41z" />
    <glyph glyph-name="uni033F" unicode="&#x33f;" horiz-adv-x="0" 
d="M-479 635v74h348v-74h-348zM-479 489v74h348v-74h-348z" />
    <glyph glyph-name="uni0343" unicode="&#x343;" horiz-adv-x="0" 
d="M-372 443v51c32 10 54 27 66 51c7 15 9 29 8 44h-77v128h140v-103c0 -97 -50 -154 -137 -171z" />
    <glyph glyph-name="uni0342" unicode="&#x342;" horiz-adv-x="0" 
d="M-305 750c100 0 160 -46 168 -146h-66c-4 30 -20 51 -47 62c-15 6 -33 9 -55 9s-41 -3 -56 -9c-27 -11 -42 -32 -47 -62h-66c9 100 69 146 169 146z" />
    <glyph glyph-name="uni0344" unicode="&#x344;" horiz-adv-x="0" 
d="M-482 621v90h89v-90h-89zM-218 621v90h91v-90h-91zM-380 620l65 135h119l-115 -135h-69z" />
    <glyph glyph-name="uni0348" unicode="&#x348;" horiz-adv-x="0" 
d="M-423 -69h74v-152h-74v152zM-262 -69h74v-152h-74v152z" />
    <glyph glyph-name="uni034F" unicode="&#x34f;" horiz-adv-x="0" 
 />
    <glyph glyph-name="uni025F" unicode="&#x25f;" horiz-adv-x="333" 
d="M14 -194v113c7 -1 20 -2 39 -2c37 -1 49 20 49 41v44h-92v99h92v429h138v-429h78v-99h-76v-34c0 -57 -10 -96 -29 -117c-20 -32 -69 -48 -146 -48c-17 0 -29 0 -53 3z" />
    <glyph glyph-name="uni0265" unicode="&#x265;" 
d="M97 53c-15 20 -24 40 -27 61s-5 56 -5 103v313h143v-324c0 -29 5 -52 14 -69c13 -25 37 -37 72 -37c75 0 113 50 113 142v288h138v-718h-138v255c-41 -61 -95 -83 -154 -83c-65 0 -121 22 -156 69z" />
    <glyph glyph-name="uni026F" unicode="&#x26f;" horiz-adv-x="889" 
d="M98 62c-15 18 -26 41 -31 68c-3 18 -5 44 -5 78l1 336h143v-339c0 -20 3 -37 10 -50c12 -25 35 -37 68 -37c39 0 65 16 80 48c7 17 11 37 11 61v317h140v-317c0 -31 3 -54 10 -69c11 -25 34 -38 69 -38c39 0 66 13 80 38c7 15 11 37 11 66v320h141v-531h-135v77
c-17 -27 -34 -47 -49 -59c-27 -21 -62 -31 -105 -31c-41 0 -74 9 -99 27c-20 17 -35 38 -45 64c-19 -31 -41 -54 -68 -69c-29 -15 -61 -22 -96 -22c-47 0 -95 15 -131 62z" />
    <glyph glyph-name="uni0279" unicode="&#x279;" horiz-adv-x="389" 
d="M63 1v143c17 -3 32 -3 40 -3c56 0 94 18 113 55c11 21 16 52 16 95v254h140v-532h-133v92c-21 -35 -40 -59 -56 -72c-26 -22 -60 -33 -101 -33c-5 0 -7 0 -19 1z" />
    <glyph glyph-name="uni0270" unicode="&#x270;" horiz-adv-x="889" 
d="M98 62c-15 18 -26 41 -31 68c-3 18 -5 44 -5 78l1 336h143v-339c0 -20 3 -37 10 -50c12 -25 35 -37 68 -37c39 0 65 16 80 48c7 17 11 37 11 61v317h140v-317c0 -31 3 -54 10 -69c11 -25 34 -38 69 -38c39 0 66 13 80 38c7 15 11 37 11 66v320h141v-732h-135v278
c-17 -27 -34 -47 -49 -59c-27 -21 -62 -31 -105 -31c-41 0 -74 9 -99 27c-20 17 -35 38 -45 64c-19 -31 -41 -54 -68 -69c-29 -15 -61 -22 -96 -22c-47 0 -95 15 -131 62z" />
    <glyph glyph-name="uni027C" unicode="&#x27c;" horiz-adv-x="389" 
d="M373 544v-143c-19 3 -32 3 -40 3c-56 0 -94 -18 -113 -55c-11 -21 -16 -52 -16 -95v-442h-141v720h133v-93c22 36 41 60 56 73c27 22 61 33 102 33c5 0 6 -1 19 -1z" />
    <glyph glyph-name="uni027A" unicode="&#x27a;" horiz-adv-x="389" 
d="M63 1v143c17 -3 32 -3 40 -3c56 0 94 18 113 55c11 21 16 52 16 95v429h140v-707h-133v92c-21 -35 -40 -59 -56 -72c-26 -22 -60 -33 -101 -33c-5 0 -7 0 -19 1z" />
    <glyph glyph-name="uni025B" unicode="&#x25b;" horiz-adv-x="505" 
d="M260 432c-56 0 -97 -15 -97 -60v-9c1 -16 12 -29 31 -38c20 -9 40 -13 61 -13h47v-92h-46c-23 0 -46 -6 -69 -19c-22 -12 -33 -28 -33 -47c0 -52 44 -70 96 -70c65 0 98 31 106 76h115l-6 -44c-10 -34 -31 -64 -63 -90c-32 -25 -81 -38 -146 -38c-59 0 -110 12 -155 35
s-67 57 -67 100c0 67 32 118 76 143c-45 23 -68 51 -68 110c0 11 1 27 4 50s26 47 67 71c42 25 89 37 141 37c66 0 114 -11 143 -34s52 -62 67 -119h-120c-8 19 -17 32 -26 39c-9 8 -29 12 -58 12z" />
    <glyph glyph-name="uni025C" unicode="&#x25c;" horiz-adv-x="505" 
d="M246 432c-29 0 -49 -4 -58 -12c-9 -7 -18 -20 -26 -39h-120c15 57 38 96 67 119s77 34 143 34c52 0 99 -12 140 -37c42 -24 64 -48 67 -71s5 -39 5 -50c0 -59 -23 -87 -68 -110c44 -25 76 -76 76 -143c0 -43 -22 -77 -67 -100s-96 -35 -155 -35c-65 0 -114 13 -146 38
c-32 26 -53 56 -63 90l-6 44h115c8 -45 41 -76 106 -76c52 0 96 18 96 70c0 19 -11 35 -34 47c-22 13 -45 19 -68 19h-46v92h47c21 0 41 4 60 13c20 9 31 22 32 38v9c0 45 -41 60 -97 60z" />
    <glyph glyph-name="uni0269" unicode="&#x269;" horiz-adv-x="278" 
d="M67 0v525h140v-525h-140z" />
    <glyph glyph-name="uni0283" unicode="&#x283;" horiz-adv-x="380" 
d="M222 -121c-26 -60 -72 -90 -139 -90c-28 0 -67 8 -103 21l12 111c25 -13 37 -19 56 -19c23 0 39 13 48 39c5 17 9 52 10 105l19 449c3 81 13 138 28 173c25 58 72 87 139 87c21 0 44 -3 70 -9c26 -7 37 -10 34 -10l-10 -111c-24 11 -39 17 -59 17c-25 0 -42 -13 -51 -39
c-6 -17 -10 -53 -12 -108l-17 -474c-3 -62 -11 -109 -25 -142z" />
    <glyph glyph-name="uni0287" unicode="&#x287;" horiz-adv-x="333" 
d="M234 237h75v-99h-75v-149h-137v149h-87v99h87v281c0 22 -3 36 -9 41c-5 5 -22 8 -50 8c-9 0 -19 -1 -28 -1v104l66 2c66 3 111 -9 135 -34c15 -16 23 -41 23 -74v-327z" />
    <glyph glyph-name="uni0288" unicode="&#x288;" horiz-adv-x="333" 
d="M84 428h-74v99h74v149h138v-149h87v-99h-87v-491c0 -22 3 -36 8 -41c6 -5 23 -8 51 -8c9 0 19 0 28 1v-104l-66 -3c-66 -2 -111 9 -135 34c-16 16 -24 41 -24 74v538z" />
    <glyph glyph-name="uni028C" unicode="&#x28c;" horiz-adv-x="556" 
d="M275 393l-113 -393h-150l192 532h147l191 -532h-156z" />
    <glyph glyph-name="uni028D" unicode="&#x28d;" horiz-adv-x="778" 
d="M533 382l-76 -382h-142l-81 383l-83 -383h-145l155 532h143l83 -387l85 387h144l150 -532h-150z" />
    <glyph glyph-name="uni028E" unicode="&#x28e;" horiz-adv-x="556" 
d="M462 746v-112l-17 1c-28 1 -54 -1 -70 -12c-9 -6 -17 -18 -24 -35s-9 -28 -8 -32l196 -556h-155l-116 393l-110 -393h-148l182 523c35 101 63 164 84 188c21 25 62 37 123 37c24 0 34 -1 63 -2z" />
    <glyph glyph-name="uni0294" unicode="&#x294;" 
d="M157 690c39 25 86 37 142 37c73 0 134 -18 183 -53s73 -87 73 -156c0 -42 -11 -78 -32 -107c-12 -17 -36 -40 -71 -67l-35 -27c-19 -15 -31 -32 -37 -51c-4 -13 -6 -101 -6 -266h-132c2 194 7 301 15 322c9 21 31 46 66 73l35 27c12 9 22 19 29 29c13 18 19 38 19 59
c0 25 -7 47 -22 67c-14 21 -40 31 -79 31c-37 0 -64 -13 -80 -38s-24 -50 -24 -77h-141c4 93 36 158 97 197z" />
    <glyph glyph-name="uni0295" unicode="&#x295;" 
d="M458 690c61 -39 93 -104 97 -197h-141c0 27 -8 52 -24 77c-15 25 -42 38 -80 38c-39 0 -65 -10 -80 -31c-14 -20 -21 -42 -21 -67c0 -21 7 -41 20 -59c7 -10 16 -20 28 -29l35 -27c35 -27 57 -52 66 -73s14 -128 16 -322h-132c-1 165 -3 253 -7 266c-6 19 -18 36 -37 51
l-35 27c-35 27 -59 50 -71 67c-21 29 -32 65 -32 107c0 69 24 121 73 156s110 53 183 53c56 0 103 -12 142 -37z" />
    <glyph glyph-name="uni0296" unicode="&#x296;" 
d="M157 37c-61 39 -93 104 -97 197h141c0 -27 8 -54 24 -79s43 -37 80 -37c39 0 65 10 79 30c15 21 22 43 22 68c0 22 -6 42 -19 59c-7 11 -17 20 -29 29l-35 28c-35 27 -57 51 -66 72c-8 21 -13 129 -15 323h132c0 -165 2 -254 6 -266c6 -19 18 -36 37 -51l35 -27
c35 -27 59 -50 71 -68c21 -29 32 -64 32 -107c0 -69 -24 -121 -73 -156s-110 -52 -183 -52c-56 0 -103 12 -142 37z" />
    <glyph glyph-name="uni029E" unicode="&#x29e;" horiz-adv-x="556" 
d="M553 529v-717h-137v388l-173 -200h-173l186 203l-193 326h168l127 -227l58 60v167h137z" />
    <glyph glyph-name="uni0251" unicode="&#x251;" horiz-adv-x="592" 
d="M385 468v57h140v-525h-144v64c-41 -52 -91 -76 -156 -76c-58 0 -105 29 -142 87c-36 58 -54 121 -54 189c0 70 20 132 59 187c40 55 91 82 153 82c59 0 101 -20 144 -65zM281 424c-35 0 -63 -16 -83 -48c-19 -32 -29 -70 -29 -114s10 -82 29 -114s47 -48 83 -48
c33 0 58 16 76 48s27 70 27 114s-9 82 -27 114c-17 32 -43 48 -76 48z" />
    <glyph glyph-name="uni0252" unicode="&#x252;" horiz-adv-x="592" 
d="M169 53v-57h-140v525h144v-64c41 52 91 76 156 76c58 0 105 -29 141 -88c37 -58 55 -121 55 -189c0 -70 -20 -132 -60 -187c-39 -55 -90 -82 -153 -82c-57 0 -100 21 -143 66zM273 97c35 0 63 16 82 47c20 32 30 70 30 114c0 45 -10 83 -29 114c-19 32 -47 48 -83 48
c-33 0 -58 -16 -76 -48c-18 -31 -27 -69 -27 -114c0 -44 9 -82 26 -114c18 -31 44 -47 77 -47z" />
    <glyph glyph-name="uni0186" unicode="&#x186;" horiz-adv-x="722" 
d="M583 68c-58 -59 -132 -89 -223 -89c-121 0 -210 40 -266 120c-31 45 -47 89 -50 134h151c9 -35 22 -61 37 -78c27 -31 68 -47 122 -47c109 0 177 92 177 253s-74 242 -177 242c-53 0 -94 -17 -121 -52c-15 -19 -28 -46 -38 -83h-149c13 78 46 142 99 191
c54 49 123 74 207 74c103 0 185 -33 244 -100s89 -158 89 -274c0 -126 -34 -223 -102 -291z" />
    <glyph glyph-name="uni0189" unicode="&#x189;" horiz-adv-x="722" 
d="M222 125h104c41 0 70 3 88 8c29 8 53 26 72 53c17 25 29 55 36 89c7 35 10 65 10 92c0 99 -24 165 -73 199c-27 19 -69 29 -126 29h-111v-149h152v-125h-152v-196zM637 152c-52 -101 -139 -152 -261 -152h-300v321h-67v125h67v273h301c111 0 187 -31 244 -110
c44 -61 64 -139 64 -232c0 -87 -16 -162 -48 -225z" />
    <glyph glyph-name="uni018D" unicode="&#x18d;" horiz-adv-x="577" 
d="M327 193l173 -108v-100h-421v112h220c-7 1 -34 20 -79 57s-88 82 -127 137s-58 113 -58 172c0 75 23 135 68 182s104 70 176 70c79 0 142 -24 187 -73c46 -48 69 -112 69 -191c0 -65 -19 -121 -57 -168c-37 -47 -88 -77 -151 -90zM279 293c36 0 64 16 85 49s32 71 32 115
c0 85 -41 154 -117 154c-35 0 -63 -15 -82 -46c-19 -30 -28 -66 -28 -109c0 -44 10 -82 30 -115c20 -32 47 -48 80 -48z" />
    <glyph glyph-name="uni018E" unicode="&#x18e;" horiz-adv-x="667" 
d="M98 592v128h527v-720h-545v129h399v185h-350v125h350v153h-381z" />
    <glyph glyph-name="uni01A7" unicode="&#x1a7;" horiz-adv-x="667" 
d="M489 222h143c0 -75 -27 -134 -81 -177c-53 -43 -127 -64 -220 -64c-92 0 -163 22 -214 65c-50 44 -75 99 -75 164s21 114 64 147c28 22 69 40 123 53l125 29c47 12 78 22 93 30c23 13 34 32 34 58c0 56 -50 89 -127 89c-35 0 -64 -6 -87 -18c-35 -19 -54 -50 -57 -93
h-145c3 77 31 135 84 175c54 41 119 61 195 61c91 0 159 -21 206 -64s71 -96 71 -161c0 -71 -24 -123 -73 -156c-29 -19 -80 -38 -155 -55l-77 -17c-44 -10 -77 -21 -98 -34s-31 -31 -31 -55c0 -41 21 -68 63 -83c22 -8 51 -12 86 -12c59 0 101 15 126 44c13 17 22 41 27 74
z" />
    <glyph glyph-name="uni01A8" unicode="&#x1a8;" horiz-adv-x="556" 
d="M377 170h142c0 -109 -78 -188 -246 -188c-164 0 -240 74 -240 179c0 40 14 73 41 100s69 46 124 59c83 19 132 32 145 39c14 7 21 19 21 35c0 25 -24 47 -84 47c-37 0 -63 -9 -78 -28c-9 -11 -14 -25 -15 -43h-140c13 131 102 177 235 177c70 0 124 -18 162 -53
c39 -35 58 -77 58 -126c0 -42 -12 -74 -37 -96c-25 -23 -67 -41 -127 -56c-84 -20 -132 -34 -145 -42s-20 -20 -20 -36c0 -32 35 -49 90 -49c47 0 78 9 95 28c10 11 16 28 19 53z" />
    <glyph glyph-name="uni01A9" unicode="&#x1a9;" horiz-adv-x="595" 
d="M230 585l227 -227l-227 -228h332v-130h-532v110l245 247l-245 248v110h532v-130h-332z" />
    <glyph glyph-name="uni01AF" unicode="&#x1af;" horiz-adv-x="918" 
d="M76 277v443h153v-443c0 -49 6 -85 18 -108c18 -41 58 -61 119 -61s100 20 118 61c12 23 18 59 18 108v443h153v-128h3c22 -2 48 4 78 19l-43 73l126 73l76 -131l-109 -63c-19 -11 -41 -20 -65 -27c-23 -7 -45 -8 -66 -3v-256c0 -76 -12 -135 -36 -178
c-44 -79 -128 -118 -253 -118s-209 39 -254 118c-24 43 -36 102 -36 178z" />
    <glyph glyph-name="uni01B0" unicode="&#x1b0;" horiz-adv-x="805" 
d="M61 532h143v-321c0 -30 3 -53 10 -68c13 -27 38 -40 75 -40c47 0 80 19 98 57c9 21 13 48 13 83v289h142v-71c1 -1 2 -1 3 -1c23 -2 49 4 79 19l-43 73l126 73l75 -130l-109 -63c-19 -11 -40 -21 -64 -28c-23 -6 -45 -7 -67 -3v-401h-136v75c-3 -3 -13 -24 -28 -36
c-44 -39 -80 -51 -135 -51c-79 0 -132 28 -159 85c-15 31 -23 77 -23 138v321z" />
    <glyph glyph-name="uni01B1" unicode="&#x1b1;" horiz-adv-x="775" 
d="M384 135c54 0 95 20 123 60s42 88 42 145c0 112 -26 189 -105 245v130h285v-120h-149c83 -66 125 -153 125 -260c0 -94 -28 -173 -84 -238c-55 -65 -132 -97 -231 -97c-95 0 -173 32 -232 97s-89 145 -89 238c0 115 36 189 125 260h-150v120h286v-130
c-79 -56 -105 -132 -105 -245c0 -57 13 -106 39 -146c27 -39 67 -59 120 -59z" />
    <glyph glyph-name="uni01C0" unicode="&#x1c0;" horiz-adv-x="280" 
d="M81 727h128v-727h-128v727z" />
    <glyph glyph-name="uni01C1" unicode="&#x1c1;" horiz-adv-x="529" 
d="M81 727h128v-727h-128v727zM325 727h128v-727h-128v727z" />
    <glyph glyph-name="uni01C3" unicode="&#x1c3;" horiz-adv-x="333" 
d="M110 535v182h153v-182l-40 -336h-73zM113 0v141h146v-141h-146z" />
    <glyph glyph-name="uni01C2" unicode="&#x1c2;" horiz-adv-x="572" 
d="M331 521h211v-128h-211v-100h211v-128h-211v-165h-128v165h-190v128h190v100h-190v128h190v206h128v-206z" />
    <glyph glyph-name="uni03F2" unicode="&#x3f2;" horiz-adv-x="556" 
d="M525 341h-142c-3 20 -9 38 -20 54c-16 21 -40 32 -73 32c-47 0 -79 -23 -96 -70c-9 -25 -14 -57 -14 -98c0 -39 5 -71 14 -94c17 -45 48 -67 94 -67c64 0 87 39 94 95h142c-3 -43 -19 -83 -46 -120c-43 -61 -108 -92 -194 -92c-85 0 -148 25 -189 76
c-40 51 -60 117 -60 198c0 184 94 290 251 290c67 0 121 -15 164 -45s68 -83 75 -159z" />
    <glyph glyph-name="uni037A" unicode="&#x37a;" horiz-adv-x="139" 
d="M34 -313v262h70v-262h-70z" />
    <glyph glyph-name="uni2032" unicode="&#x2032;" horiz-adv-x="333" 
d="M179 719h155l-148 -292h-101z" />
    </font>
</defs>
</svg>
